  0
SECTION
  2
BLOCKS
  0
ENDSEC
  0
SECTION
  2
ENTITIES
  0
LINE
  8
0
 10
12.9
 11
23.1
 20
3.1
 21
3.1
  0
LINE
  8
0
 10
23.1
 11
23.1
 20
3.1
 21
0
  0
LINE
  8
0
 10
23.1
 11
45.9
 20
0
 21
0
  0
LINE
  8
0
 10
45.9
 11
45.9
 20
0
 21
3.1
  0
LINE
  8
0
 10
45.9
 11
56.1
 20
3.1
 21
3.1
  0
LINE
  8
0
 10
56.1
 11
56.1
 20
3.1
 21
0
  0
LINE
  8
0
 10
56.1
 11
78.9
 20
0
 21
0
  0
LINE
  8
0
 10
78.9
 11
78.9
 20
0
 21
3.1
  0
LINE
  8
0
 10
78.9
 11
89.1
 20
3.1
 21
3.1
  0
LINE
  8
0
 10
89.1
 11
89.1
 20
3.1
 21
0
  0
LINE
  8
0
 10
89.1
 11
111.9
 20
0
 21
0
  0
LINE
  8
0
 10
111.9
 11
111.9
 20
0
 21
3.1
  0
LINE
  8
0
 10
111.9
 11
122.1
 20
3.1
 21
3.1
  0
LINE
  8
0
 10
122.1
 11
122.1
 20
3.1
 21
0
  0
LINE
  8
0
 10
122.1
 11
144.9
 20
0
 21
0
  0
LINE
  8
0
 10
144.9
 11
144.9
 20
0
 21
3.1
  0
LINE
  8
0
 10
144.9
 11
155.1
 20
3.1
 21
3.1
  0
LINE
  8
0
 10
155.1
 11
155.1
 20
3.1
 21
0
  0
LINE
  8
0
 10
155.1
 11
177.9
 20
0
 21
0
  0
LINE
  8
0
 10
177.9
 11
177.9
 20
0
 21
3.1
  0
LINE
  8
0
 10
177.9
 11
188.1
 20
3.1
 21
3.1
  0
LINE
  8
0
 10
188.1
 11
188.1
 20
3.1
 21
0
  0
LINE
  8
0
 10
188.1
 11
210.9
 20
0
 21
0
  0
LINE
  8
0
 10
210.9
 11
210.9
 20
0
 21
3.1
  0
LINE
  8
0
 10
210.9
 11
221.1
 20
3.1
 21
3.1
  0
LINE
  8
0
 10
221.1
 11
221.1
 20
3.1
 21
0
  0
LINE
  8
0
 10
221.1
 11
243.9
 20
0
 21
0
  0
LINE
  8
0
 10
243.9
 11
243.9
 20
0
 21
3.1
  0
LINE
  8
0
 10
243.9
 11
254.1
 20
3.1
 21
3.1
  0
LINE
  8
0
 10
254.1
 11
254.1
 20
3.1
 21
0
  0
LINE
  8
0
 10
254.1
 11
276.9
 20
0
 21
0
  0
LINE
  8
0
 10
276.9
 11
276.9
 20
0
 21
3.1
  0
LINE
  8
0
 10
276.9
 11
287.1
 20
3.1
 21
3.1
  0
LINE
  8
0
 10
287.1
 11
287.1
 20
3.1
 21
0
  0
LINE
  8
0
 10
287.1
 11
309.9
 20
0
 21
0
  0
LINE
  8
0
 10
309.9
 11
309.9
 20
0
 21
3.1
  0
LINE
  8
0
 10
309.9
 11
320.1
 20
3.1
 21
3.1
  0
LINE
  8
0
 10
320.1
 11
320.1
 20
3.1
 21
0
  0
LINE
  8
0
 10
320.1
 11
342.9
 20
0
 21
0
  0
LINE
  8
0
 10
342.9
 11
342.9
 20
0
 21
3.1
  0
LINE
  8
0
 10
342.9
 11
353.1
 20
3.1
 21
3.1
  0
LINE
  8
0
 10
353.1
 11
353.1
 20
3.1
 21
0
  0
LINE
  8
0
 10
353.1
 11
375.9
 20
0
 21
0
  0
LINE
  8
0
 10
375.9
 11
375.9
 20
0
 21
3.1
  0
LINE
  8
0
 10
375.9
 11
386.1
 20
3.1
 21
3.1
  0
LINE
  8
0
 10
386.1
 11
386.1
 20
3.1
 21
0
  0
LINE
  8
0
 10
386.1
 11
399
 20
0
 21
0
  0
LINE
  8
0
 10
399
 11
399
 20
0
 21
12.9
  0
LINE
  8
0
 10
399
 11
395.9
 20
12.9
 21
12.9
  0
LINE
  8
0
 10
395.9
 11
395.9
 20
12.9
 21
23.1
  0
LINE
  8
0
 10
395.9
 11
399
 20
23.1
 21
23.1
  0
LINE
  8
0
 10
399
 11
399
 20
23.1
 21
45.9
  0
LINE
  8
0
 10
399
 11
395.9
 20
45.9
 21
45.9
  0
LINE
  8
0
 10
395.9
 11
395.9
 20
45.9
 21
56.1
  0
LINE
  8
0
 10
395.9
 11
399
 20
56.1
 21
56.1
  0
LINE
  8
0
 10
399
 11
399
 20
56.1
 21
78.9
  0
LINE
  8
0
 10
399
 11
395.9
 20
78.9
 21
78.9
  0
LINE
  8
0
 10
395.9
 11
395.9
 20
78.9
 21
89.1
  0
LINE
  8
0
 10
395.9
 11
399
 20
89.1
 21
89.1
  0
LINE
  8
0
 10
399
 11
399
 20
89.1
 21
111.9
  0
LINE
  8
0
 10
399
 11
395.9
 20
111.9
 21
111.9
  0
LINE
  8
0
 10
395.9
 11
395.9
 20
111.9
 21
122.1
  0
LINE
  8
0
 10
395.9
 11
399
 20
122.1
 21
122.1
  0
LINE
  8
0
 10
399
 11
399
 20
122.1
 21
144.9
  0
LINE
  8
0
 10
399
 11
395.9
 20
144.9
 21
144.9
  0
LINE
  8
0
 10
395.9
 11
395.9
 20
144.9
 21
155.1
  0
LINE
  8
0
 10
395.9
 11
399
 20
155.1
 21
155.1
  0
LINE
  8
0
 10
399
 11
399
 20
155.1
 21
177.9
  0
LINE
  8
0
 10
399
 11
395.9
 20
177.9
 21
177.9
  0
LINE
  8
0
 10
395.9
 11
395.9
 20
177.9
 21
188.1
  0
LINE
  8
0
 10
395.9
 11
399
 20
188.1
 21
188.1
  0
LINE
  8
0
 10
399
 11
399
 20
188.1
 21
210.9
  0
LINE
  8
0
 10
399
 11
395.9
 20
210.9
 21
210.9
  0
LINE
  8
0
 10
395.9
 11
395.9
 20
210.9
 21
221.1
  0
LINE
  8
0
 10
395.9
 11
399
 20
221.1
 21
221.1
  0
LINE
  8
0
 10
399
 11
399
 20
221.1
 21
243.9
  0
LINE
  8
0
 10
399
 11
395.9
 20
243.9
 21
243.9
  0
LINE
  8
0
 10
395.9
 11
395.9
 20
243.9
 21
254.1
  0
LINE
  8
0
 10
395.9
 11
399
 20
254.1
 21
254.1
  0
LINE
  8
0
 10
399
 11
399
 20
254.1
 21
276.9
  0
LINE
  8
0
 10
399
 11
395.9
 20
276.9
 21
276.9
  0
LINE
  8
0
 10
395.9
 11
395.9
 20
276.9
 21
287.1
  0
LINE
  8
0
 10
395.9
 11
399
 20
287.1
 21
287.1
  0
LINE
  8
0
 10
399
 11
399
 20
287.1
 21
309.9
  0
LINE
  8
0
 10
399
 11
395.9
 20
309.9
 21
309.9
  0
LINE
  8
0
 10
395.9
 11
395.9
 20
309.9
 21
320.1
  0
LINE
  8
0
 10
395.9
 11
399
 20
320.1
 21
320.1
  0
LINE
  8
0
 10
399
 11
399
 20
320.1
 21
342.9
  0
LINE
  8
0
 10
399
 11
395.9
 20
342.9
 21
342.9
  0
LINE
  8
0
 10
395.9
 11
395.9
 20
342.9
 21
353.1
  0
LINE
  8
0
 10
395.9
 11
399
 20
353.1
 21
353.1
  0
LINE
  8
0
 10
399
 11
399
 20
353.1
 21
375.9
  0
LINE
  8
0
 10
399
 11
395.9
 20
375.9
 21
375.9
  0
LINE
  8
0
 10
395.9
 11
395.9
 20
375.9
 21
386.1
  0
LINE
  8
0
 10
395.9
 11
399
 20
386.1
 21
386.1
  0
LINE
  8
0
 10
399
 11
399
 20
386.1
 21
399
  0
LINE
  8
0
 10
399
 11
386.1
 20
399
 21
399
  0
LINE
  8
0
 10
386.1
 11
386.1
 20
399
 21
395.9
  0
LINE
  8
0
 10
386.1
 11
375.9
 20
395.9
 21
395.9
  0
LINE
  8
0
 10
375.9
 11
375.9
 20
395.9
 21
399
  0
LINE
  8
0
 10
375.9
 11
353.1
 20
399
 21
399
  0
LINE
  8
0
 10
353.1
 11
353.1
 20
399
 21
395.9
  0
LINE
  8
0
 10
353.1
 11
342.9
 20
395.9
 21
395.9
  0
LINE
  8
0
 10
342.9
 11
342.9
 20
395.9
 21
399
  0
LINE
  8
0
 10
342.9
 11
320.1
 20
399
 21
399
  0
LINE
  8
0
 10
320.1
 11
320.1
 20
399
 21
395.9
  0
LINE
  8
0
 10
320.1
 11
309.9
 20
395.9
 21
395.9
  0
LINE
  8
0
 10
309.9
 11
309.9
 20
395.9
 21
399
  0
LINE
  8
0
 10
309.9
 11
287.1
 20
399
 21
399
  0
LINE
  8
0
 10
287.1
 11
287.1
 20
399
 21
395.9
  0
LINE
  8
0
 10
287.1
 11
276.9
 20
395.9
 21
395.9
  0
LINE
  8
0
 10
276.9
 11
276.9
 20
395.9
 21
399
  0
LINE
  8
0
 10
276.9
 11
254.1
 20
399
 21
399
  0
LINE
  8
0
 10
254.1
 11
254.1
 20
399
 21
395.9
  0
LINE
  8
0
 10
254.1
 11
243.9
 20
395.9
 21
395.9
  0
LINE
  8
0
 10
243.9
 11
243.9
 20
395.9
 21
399
  0
LINE
  8
0
 10
243.9
 11
221.1
 20
399
 21
399
  0
LINE
  8
0
 10
221.1
 11
221.1
 20
399
 21
395.9
  0
LINE
  8
0
 10
221.1
 11
210.9
 20
395.9
 21
395.9
  0
LINE
  8
0
 10
210.9
 11
210.9
 20
395.9
 21
399
  0
LINE
  8
0
 10
210.9
 11
188.1
 20
399
 21
399
  0
LINE
  8
0
 10
188.1
 11
188.1
 20
399
 21
395.9
  0
LINE
  8
0
 10
188.1
 11
177.9
 20
395.9
 21
395.9
  0
LINE
  8
0
 10
177.9
 11
177.9
 20
395.9
 21
399
  0
LINE
  8
0
 10
177.9
 11
155.1
 20
399
 21
399
  0
LINE
  8
0
 10
155.1
 11
155.1
 20
399
 21
395.9
  0
LINE
  8
0
 10
155.1
 11
144.9
 20
395.9
 21
395.9
  0
LINE
  8
0
 10
144.9
 11
144.9
 20
395.9
 21
399
  0
LINE
  8
0
 10
144.9
 11
122.1
 20
399
 21
399
  0
LINE
  8
0
 10
122.1
 11
122.1
 20
399
 21
395.9
  0
LINE
  8
0
 10
122.1
 11
111.9
 20
395.9
 21
395.9
  0
LINE
  8
0
 10
111.9
 11
111.9
 20
395.9
 21
399
  0
LINE
  8
0
 10
111.9
 11
89.1
 20
399
 21
399
  0
LINE
  8
0
 10
89.1
 11
89.1
 20
399
 21
395.9
  0
LINE
  8
0
 10
89.1
 11
78.9
 20
395.9
 21
395.9
  0
LINE
  8
0
 10
78.9
 11
78.9
 20
395.9
 21
399
  0
LINE
  8
0
 10
78.9
 11
56.1
 20
399
 21
399
  0
LINE
  8
0
 10
56.1
 11
56.1
 20
399
 21
395.9
  0
LINE
  8
0
 10
56.1
 11
45.9
 20
395.9
 21
395.9
  0
LINE
  8
0
 10
45.9
 11
45.9
 20
395.9
 21
399
  0
LINE
  8
0
 10
45.9
 11
23.1
 20
399
 21
399
  0
LINE
  8
0
 10
23.1
 11
23.1
 20
399
 21
395.9
  0
LINE
  8
0
 10
23.1
 11
12.9
 20
395.9
 21
395.9
  0
LINE
  8
0
 10
12.9
 11
12.9
 20
395.9
 21
399
  0
LINE
  8
0
 10
12.9
 11
0
 20
399
 21
399
  0
LINE
  8
0
 10
0
 11
0
 20
399
 21
386.1
  0
LINE
  8
0
 10
0
 11
3.1
 20
386.1
 21
386.1
  0
LINE
  8
0
 10
3.1
 11
3.1
 20
386.1
 21
375.9
  0
LINE
  8
0
 10
3.1
 11
0
 20
375.9
 21
375.9
  0
LINE
  8
0
 10
0
 11
0
 20
375.9
 21
353.1
  0
LINE
  8
0
 10
0
 11
3.1
 20
353.1
 21
353.1
  0
LINE
  8
0
 10
3.1
 11
3.1
 20
353.1
 21
342.9
  0
LINE
  8
0
 10
3.1
 11
0
 20
342.9
 21
342.9
  0
LINE
  8
0
 10
0
 11
0
 20
342.9
 21
320.1
  0
LINE
  8
0
 10
0
 11
3.1
 20
320.1
 21
320.1
  0
LINE
  8
0
 10
3.1
 11
3.1
 20
320.1
 21
309.9
  0
LINE
  8
0
 10
3.1
 11
0
 20
309.9
 21
309.9
  0
LINE
  8
0
 10
0
 11
0
 20
309.9
 21
287.1
  0
LINE
  8
0
 10
0
 11
3.1
 20
287.1
 21
287.1
  0
LINE
  8
0
 10
3.1
 11
3.1
 20
287.1
 21
276.9
  0
LINE
  8
0
 10
3.1
 11
0
 20
276.9
 21
276.9
  0
LINE
  8
0
 10
0
 11
0
 20
276.9
 21
254.1
  0
LINE
  8
0
 10
0
 11
3.1
 20
254.1
 21
254.1
  0
LINE
  8
0
 10
3.1
 11
3.1
 20
254.1
 21
243.9
  0
LINE
  8
0
 10
3.1
 11
0
 20
243.9
 21
243.9
  0
LINE
  8
0
 10
0
 11
0
 20
243.9
 21
221.1
  0
LINE
  8
0
 10
0
 11
3.1
 20
221.1
 21
221.1
  0
LINE
  8
0
 10
3.1
 11
3.1
 20
221.1
 21
210.9
  0
LINE
  8
0
 10
3.1
 11
0
 20
210.9
 21
210.9
  0
LINE
  8
0
 10
0
 11
0
 20
210.9
 21
188.1
  0
LINE
  8
0
 10
0
 11
3.1
 20
188.1
 21
188.1
  0
LINE
  8
0
 10
3.1
 11
3.1
 20
188.1
 21
177.9
  0
LINE
  8
0
 10
3.1
 11
0
 20
177.9
 21
177.9
  0
LINE
  8
0
 10
0
 11
0
 20
177.9
 21
155.1
  0
LINE
  8
0
 10
0
 11
3.1
 20
155.1
 21
155.1
  0
LINE
  8
0
 10
3.1
 11
3.1
 20
155.1
 21
144.9
  0
LINE
  8
0
 10
3.1
 11
0
 20
144.9
 21
144.9
  0
LINE
  8
0
 10
0
 11
0
 20
144.9
 21
122.1
  0
LINE
  8
0
 10
0
 11
3.1
 20
122.1
 21
122.1
  0
LINE
  8
0
 10
3.1
 11
3.1
 20
122.1
 21
111.9
  0
LINE
  8
0
 10
3.1
 11
0
 20
111.9
 21
111.9
  0
LINE
  8
0
 10
0
 11
0
 20
111.9
 21
89.1
  0
LINE
  8
0
 10
0
 11
3.1
 20
89.1
 21
89.1
  0
LINE
  8
0
 10
3.1
 11
3.1
 20
89.1
 21
78.9
  0
LINE
  8
0
 10
3.1
 11
0
 20
78.9
 21
78.9
  0
LINE
  8
0
 10
0
 11
0
 20
78.9
 21
56.1
  0
LINE
  8
0
 10
0
 11
3.1
 20
56.1
 21
56.1
  0
LINE
  8
0
 10
3.1
 11
3.1
 20
56.1
 21
45.9
  0
LINE
  8
0
 10
3.1
 11
0
 20
45.9
 21
45.9
  0
LINE
  8
0
 10
0
 11
0
 20
45.9
 21
23.1
  0
LINE
  8
0
 10
0
 11
3.1
 20
23.1
 21
23.1
  0
LINE
  8
0
 10
3.1
 11
3.1
 20
23.1
 21
12.9
  0
LINE
  8
0
 10
3.1
 11
0
 20
12.9
 21
12.9
  0
LINE
  8
0
 10
0
 11
0
 20
12.9
 21
0
  0
LINE
  8
0
 10
0
 11
12.9
 20
0
 21
0
  0
LINE
  8
0
 10
12.9
 11
12.9
 20
0
 21
3.1
  0
LINE
  8
0
 10
32.9
 11
32.9
 20
375.9
 21
386.1
  0
LINE
  8
0
 10
32.9
 11
36.1
 20
386.1
 21
386.1
  0
LINE
  8
0
 10
36.1
 11
36.1
 20
386.1
 21
375.9
  0
LINE
  8
0
 10
36.1
 11
32.9
 20
375.9
 21
375.9
  0
LINE
  8
0
 10
65.9
 11
65.9
 20
375.9
 21
386.1
  0
LINE
  8
0
 10
65.9
 11
69.1
 20
386.1
 21
386.1
  0
LINE
  8
0
 10
69.1
 11
69.1
 20
386.1
 21
375.9
  0
LINE
  8
0
 10
69.1
 11
65.9
 20
375.9
 21
375.9
  0
LINE
  8
0
 10
98.9
 11
98.9
 20
375.9
 21
386.1
  0
LINE
  8
0
 10
98.9
 11
102.1
 20
386.1
 21
386.1
  0
LINE
  8
0
 10
102.1
 11
102.1
 20
386.1
 21
375.9
  0
LINE
  8
0
 10
102.1
 11
98.9
 20
375.9
 21
375.9
  0
LINE
  8
0
 10
197.9
 11
197.9
 20
375.9
 21
386.1
  0
LINE
  8
0
 10
197.9
 11
201.1
 20
386.1
 21
386.1
  0
LINE
  8
0
 10
201.1
 11
201.1
 20
386.1
 21
375.9
  0
LINE
  8
0
 10
201.1
 11
197.9
 20
375.9
 21
375.9
  0
LINE
  8
0
 10
230.9
 11
230.9
 20
375.9
 21
386.1
  0
LINE
  8
0
 10
230.9
 11
234.1
 20
386.1
 21
386.1
  0
LINE
  8
0
 10
234.1
 11
234.1
 20
386.1
 21
375.9
  0
LINE
  8
0
 10
234.1
 11
230.9
 20
375.9
 21
375.9
  0
LINE
  8
0
 10
263.9
 11
263.9
 20
375.9
 21
386.1
  0
LINE
  8
0
 10
263.9
 11
267.1
 20
386.1
 21
386.1
  0
LINE
  8
0
 10
267.1
 11
267.1
 20
386.1
 21
375.9
  0
LINE
  8
0
 10
267.1
 11
263.9
 20
375.9
 21
375.9
  0
LINE
  8
0
 10
329.9
 11
329.9
 20
375.9
 21
386.1
  0
LINE
  8
0
 10
329.9
 11
333.1
 20
386.1
 21
386.1
  0
LINE
  8
0
 10
333.1
 11
333.1
 20
386.1
 21
375.9
  0
LINE
  8
0
 10
333.1
 11
329.9
 20
375.9
 21
375.9
  0
LINE
  8
0
 10
362.9
 11
362.9
 20
375.9
 21
386.1
  0
LINE
  8
0
 10
362.9
 11
366.1
 20
386.1
 21
386.1
  0
LINE
  8
0
 10
366.1
 11
366.1
 20
386.1
 21
375.9
  0
LINE
  8
0
 10
366.1
 11
362.9
 20
375.9
 21
375.9
  0
LINE
  8
0
 10
164.9
 11
164.9
 20
375.9
 21
386.1
  0
LINE
  8
0
 10
164.9
 11
168.1
 20
386.1
 21
386.1
  0
LINE
  8
0
 10
168.1
 11
168.1
 20
386.1
 21
375.9
  0
LINE
  8
0
 10
168.1
 11
164.9
 20
375.9
 21
375.9
  0
LINE
  8
0
 10
296.9
 11
296.9
 20
375.9
 21
386.1
  0
LINE
  8
0
 10
296.9
 11
300.1
 20
386.1
 21
386.1
  0
LINE
  8
0
 10
300.1
 11
300.1
 20
386.1
 21
375.9
  0
LINE
  8
0
 10
300.1
 11
296.9
 20
375.9
 21
375.9
  0
LINE
  8
0
 10
131.9
 11
131.9
 20
375.9
 21
386.1
  0
LINE
  8
0
 10
131.9
 11
135.1
 20
386.1
 21
386.1
  0
LINE
  8
0
 10
135.1
 11
135.1
 20
386.1
 21
375.9
  0
LINE
  8
0
 10
135.1
 11
131.9
 20
375.9
 21
375.9
  0
LINE
  8
0
 10
213.5
 11
213.5
 20
378.5
 21
383.5
  0
LINE
  8
0
 10
213.5
 11
218.5
 20
383.5
 21
383.5
  0
LINE
  8
0
 10
218.5
 11
218.5
 20
383.5
 21
378.5
  0
LINE
  8
0
 10
218.5
 11
213.5
 20
378.5
 21
378.5
  0
LINE
  8
0
 10
180.5
 11
180.5
 20
378.5
 21
383.5
  0
LINE
  8
0
 10
180.5
 11
185.5
 20
383.5
 21
383.5
  0
LINE
  8
0
 10
185.5
 11
185.5
 20
383.5
 21
378.5
  0
LINE
  8
0
 10
185.5
 11
180.5
 20
378.5
 21
378.5
  0
LINE
  8
0
 10
246.5
 11
246.5
 20
378.5
 21
383.5
  0
LINE
  8
0
 10
246.5
 11
251.5
 20
383.5
 21
383.5
  0
LINE
  8
0
 10
251.5
 11
251.5
 20
383.5
 21
378.5
  0
LINE
  8
0
 10
251.5
 11
246.5
 20
378.5
 21
378.5
  0
LINE
  8
0
 10
279.5
 11
279.5
 20
378.5
 21
383.5
  0
LINE
  8
0
 10
279.5
 11
284.5
 20
383.5
 21
383.5
  0
LINE
  8
0
 10
284.5
 11
284.5
 20
383.5
 21
378.5
  0
LINE
  8
0
 10
284.5
 11
279.5
 20
378.5
 21
378.5
  0
LINE
  8
0
 10
312.5
 11
312.5
 20
378.5
 21
383.5
  0
LINE
  8
0
 10
312.5
 11
317.5
 20
383.5
 21
383.5
  0
LINE
  8
0
 10
317.5
 11
317.5
 20
383.5
 21
378.5
  0
LINE
  8
0
 10
317.5
 11
312.5
 20
378.5
 21
378.5
  0
LINE
  8
0
 10
345.5
 11
345.5
 20
378.5
 21
383.5
  0
LINE
  8
0
 10
345.5
 11
350.5
 20
383.5
 21
383.5
  0
LINE
  8
0
 10
350.5
 11
350.5
 20
383.5
 21
378.5
  0
LINE
  8
0
 10
350.5
 11
345.5
 20
378.5
 21
378.5
  0
LINE
  8
0
 10
378.5
 11
378.5
 20
378.5
 21
383.5
  0
LINE
  8
0
 10
378.5
 11
383.5
 20
383.5
 21
383.5
  0
LINE
  8
0
 10
383.5
 11
383.5
 20
383.5
 21
378.5
  0
LINE
  8
0
 10
383.5
 11
378.5
 20
378.5
 21
378.5
  0
LINE
  8
0
 10
114.5
 11
114.5
 20
378.5
 21
383.5
  0
LINE
  8
0
 10
114.5
 11
119.5
 20
383.5
 21
383.5
  0
LINE
  8
0
 10
119.5
 11
119.5
 20
383.5
 21
378.5
  0
LINE
  8
0
 10
119.5
 11
114.5
 20
378.5
 21
378.5
  0
LINE
  8
0
 10
15.5
 11
15.5
 20
378.5
 21
383.5
  0
LINE
  8
0
 10
15.5
 11
20.5
 20
383.5
 21
383.5
  0
LINE
  8
0
 10
20.5
 11
20.5
 20
383.5
 21
378.5
  0
LINE
  8
0
 10
20.5
 11
15.5
 20
378.5
 21
378.5
  0
LINE
  8
0
 10
81.5
 11
81.5
 20
378.5
 21
383.5
  0
LINE
  8
0
 10
81.5
 11
86.5
 20
383.5
 21
383.5
  0
LINE
  8
0
 10
86.5
 11
86.5
 20
383.5
 21
378.5
  0
LINE
  8
0
 10
86.5
 11
81.5
 20
378.5
 21
378.5
  0
LINE
  8
0
 10
147.5
 11
147.5
 20
378.5
 21
383.5
  0
LINE
  8
0
 10
147.5
 11
152.5
 20
383.5
 21
383.5
  0
LINE
  8
0
 10
152.5
 11
152.5
 20
383.5
 21
378.5
  0
LINE
  8
0
 10
152.5
 11
147.5
 20
378.5
 21
378.5
  0
LINE
  8
0
 10
48.5
 11
48.5
 20
378.5
 21
383.5
  0
LINE
  8
0
 10
48.5
 11
53.5
 20
383.5
 21
383.5
  0
LINE
  8
0
 10
53.5
 11
53.5
 20
383.5
 21
378.5
  0
LINE
  8
0
 10
53.5
 11
48.5
 20
378.5
 21
378.5
  0
LINE
  8
0
 10
12.9
 11
12.9
 20
362.9
 21
366.1
  0
LINE
  8
0
 10
12.9
 11
23.1
 20
366.1
 21
366.1
  0
LINE
  8
0
 10
23.1
 11
23.1
 20
366.1
 21
362.9
  0
LINE
  8
0
 10
23.1
 11
12.9
 20
362.9
 21
362.9
  0
LINE
  8
0
 10
78.9
 11
78.9
 20
362.9
 21
366.1
  0
LINE
  8
0
 10
78.9
 11
89.1
 20
366.1
 21
366.1
  0
LINE
  8
0
 10
89.1
 11
89.1
 20
366.1
 21
362.9
  0
LINE
  8
0
 10
89.1
 11
78.9
 20
362.9
 21
362.9
  0
LINE
  8
0
 10
144.9
 11
144.9
 20
362.9
 21
366.1
  0
LINE
  8
0
 10
144.9
 11
155.1
 20
366.1
 21
366.1
  0
LINE
  8
0
 10
155.1
 11
155.1
 20
366.1
 21
362.9
  0
LINE
  8
0
 10
155.1
 11
144.9
 20
362.9
 21
362.9
  0
LINE
  8
0
 10
177.9
 11
177.9
 20
362.9
 21
366.1
  0
LINE
  8
0
 10
177.9
 11
188.1
 20
366.1
 21
366.1
  0
LINE
  8
0
 10
188.1
 11
188.1
 20
366.1
 21
362.9
  0
LINE
  8
0
 10
188.1
 11
177.9
 20
362.9
 21
362.9
  0
LINE
  8
0
 10
276.9
 11
276.9
 20
362.9
 21
366.1
  0
LINE
  8
0
 10
276.9
 11
287.1
 20
366.1
 21
366.1
  0
LINE
  8
0
 10
287.1
 11
287.1
 20
366.1
 21
362.9
  0
LINE
  8
0
 10
287.1
 11
276.9
 20
362.9
 21
362.9
  0
LINE
  8
0
 10
210.9
 11
210.9
 20
362.9
 21
366.1
  0
LINE
  8
0
 10
210.9
 11
221.1
 20
366.1
 21
366.1
  0
LINE
  8
0
 10
221.1
 11
221.1
 20
366.1
 21
362.9
  0
LINE
  8
0
 10
221.1
 11
210.9
 20
362.9
 21
362.9
  0
LINE
  8
0
 10
45.9
 11
45.9
 20
362.9
 21
366.1
  0
LINE
  8
0
 10
45.9
 11
56.1
 20
366.1
 21
366.1
  0
LINE
  8
0
 10
56.1
 11
56.1
 20
366.1
 21
362.9
  0
LINE
  8
0
 10
56.1
 11
45.9
 20
362.9
 21
362.9
  0
LINE
  8
0
 10
111.9
 11
111.9
 20
362.9
 21
366.1
  0
LINE
  8
0
 10
111.9
 11
122.1
 20
366.1
 21
366.1
  0
LINE
  8
0
 10
122.1
 11
122.1
 20
366.1
 21
362.9
  0
LINE
  8
0
 10
122.1
 11
111.9
 20
362.9
 21
362.9
  0
LINE
  8
0
 10
309.9
 11
309.9
 20
362.9
 21
366.1
  0
LINE
  8
0
 10
309.9
 11
320.1
 20
366.1
 21
366.1
  0
LINE
  8
0
 10
320.1
 11
320.1
 20
366.1
 21
362.9
  0
LINE
  8
0
 10
320.1
 11
309.9
 20
362.9
 21
362.9
  0
LINE
  8
0
 10
243.9
 11
243.9
 20
362.9
 21
366.1
  0
LINE
  8
0
 10
243.9
 11
254.1
 20
366.1
 21
366.1
  0
LINE
  8
0
 10
254.1
 11
254.1
 20
366.1
 21
362.9
  0
LINE
  8
0
 10
254.1
 11
243.9
 20
362.9
 21
362.9
  0
LINE
  8
0
 10
342.9
 11
342.9
 20
362.9
 21
366.1
  0
LINE
  8
0
 10
342.9
 11
353.1
 20
366.1
 21
366.1
  0
LINE
  8
0
 10
353.1
 11
353.1
 20
366.1
 21
362.9
  0
LINE
  8
0
 10
353.1
 11
342.9
 20
362.9
 21
362.9
  0
LINE
  8
0
 10
375.9
 11
375.9
 20
362.9
 21
366.1
  0
LINE
  8
0
 10
375.9
 11
386.1
 20
366.1
 21
366.1
  0
LINE
  8
0
 10
386.1
 11
386.1
 20
366.1
 21
362.9
  0
LINE
  8
0
 10
386.1
 11
375.9
 20
362.9
 21
362.9
  0
LINE
  8
0
 10
98.9
 11
98.9
 20
342.9
 21
353.1
  0
LINE
  8
0
 10
98.9
 11
102.1
 20
353.1
 21
353.1
  0
LINE
  8
0
 10
102.1
 11
102.1
 20
353.1
 21
342.9
  0
LINE
  8
0
 10
102.1
 11
98.9
 20
342.9
 21
342.9
  0
LINE
  8
0
 10
197.9
 11
197.9
 20
342.9
 21
353.1
  0
LINE
  8
0
 10
197.9
 11
201.1
 20
353.1
 21
353.1
  0
LINE
  8
0
 10
201.1
 11
201.1
 20
353.1
 21
342.9
  0
LINE
  8
0
 10
201.1
 11
197.9
 20
342.9
 21
342.9
  0
LINE
  8
0
 10
230.9
 11
230.9
 20
342.9
 21
353.1
  0
LINE
  8
0
 10
230.9
 11
234.1
 20
353.1
 21
353.1
  0
LINE
  8
0
 10
234.1
 11
234.1
 20
353.1
 21
342.9
  0
LINE
  8
0
 10
234.1
 11
230.9
 20
342.9
 21
342.9
  0
LINE
  8
0
 10
329.9
 11
329.9
 20
342.9
 21
353.1
  0
LINE
  8
0
 10
329.9
 11
333.1
 20
353.1
 21
353.1
  0
LINE
  8
0
 10
333.1
 11
333.1
 20
353.1
 21
342.9
  0
LINE
  8
0
 10
333.1
 11
329.9
 20
342.9
 21
342.9
  0
LINE
  8
0
 10
263.9
 11
263.9
 20
342.9
 21
353.1
  0
LINE
  8
0
 10
263.9
 11
267.1
 20
353.1
 21
353.1
  0
LINE
  8
0
 10
267.1
 11
267.1
 20
353.1
 21
342.9
  0
LINE
  8
0
 10
267.1
 11
263.9
 20
342.9
 21
342.9
  0
LINE
  8
0
 10
131.9
 11
131.9
 20
342.9
 21
353.1
  0
LINE
  8
0
 10
131.9
 11
135.1
 20
353.1
 21
353.1
  0
LINE
  8
0
 10
135.1
 11
135.1
 20
353.1
 21
342.9
  0
LINE
  8
0
 10
135.1
 11
131.9
 20
342.9
 21
342.9
  0
LINE
  8
0
 10
164.9
 11
164.9
 20
342.9
 21
353.1
  0
LINE
  8
0
 10
164.9
 11
168.1
 20
353.1
 21
353.1
  0
LINE
  8
0
 10
168.1
 11
168.1
 20
353.1
 21
342.9
  0
LINE
  8
0
 10
168.1
 11
164.9
 20
342.9
 21
342.9
  0
LINE
  8
0
 10
362.9
 11
362.9
 20
342.9
 21
353.1
  0
LINE
  8
0
 10
362.9
 11
366.1
 20
353.1
 21
353.1
  0
LINE
  8
0
 10
366.1
 11
366.1
 20
353.1
 21
342.9
  0
LINE
  8
0
 10
366.1
 11
362.9
 20
342.9
 21
342.9
  0
LINE
  8
0
 10
296.9
 11
296.9
 20
342.9
 21
353.1
  0
LINE
  8
0
 10
296.9
 11
300.1
 20
353.1
 21
353.1
  0
LINE
  8
0
 10
300.1
 11
300.1
 20
353.1
 21
342.9
  0
LINE
  8
0
 10
300.1
 11
296.9
 20
342.9
 21
342.9
  0
LINE
  8
0
 10
32.9
 11
32.9
 20
342.9
 21
353.1
  0
LINE
  8
0
 10
32.9
 11
36.1
 20
353.1
 21
353.1
  0
LINE
  8
0
 10
36.1
 11
36.1
 20
353.1
 21
342.9
  0
LINE
  8
0
 10
36.1
 11
32.9
 20
342.9
 21
342.9
  0
LINE
  8
0
 10
65.9
 11
65.9
 20
342.9
 21
353.1
  0
LINE
  8
0
 10
65.9
 11
69.1
 20
353.1
 21
353.1
  0
LINE
  8
0
 10
69.1
 11
69.1
 20
353.1
 21
342.9
  0
LINE
  8
0
 10
69.1
 11
65.9
 20
342.9
 21
342.9
  0
LINE
  8
0
 10
48.5
 11
48.5
 20
345.5
 21
350.5
  0
LINE
  8
0
 10
48.5
 11
53.5
 20
350.5
 21
350.5
  0
LINE
  8
0
 10
53.5
 11
53.5
 20
350.5
 21
345.5
  0
LINE
  8
0
 10
53.5
 11
48.5
 20
345.5
 21
345.5
  0
LINE
  8
0
 10
213.5
 11
213.5
 20
345.5
 21
350.5
  0
LINE
  8
0
 10
213.5
 11
218.5
 20
350.5
 21
350.5
  0
LINE
  8
0
 10
218.5
 11
218.5
 20
350.5
 21
345.5
  0
LINE
  8
0
 10
218.5
 11
213.5
 20
345.5
 21
345.5
  0
LINE
  8
0
 10
15.5
 11
15.5
 20
345.5
 21
350.5
  0
LINE
  8
0
 10
15.5
 11
20.5
 20
350.5
 21
350.5
  0
LINE
  8
0
 10
20.5
 11
20.5
 20
350.5
 21
345.5
  0
LINE
  8
0
 10
20.5
 11
15.5
 20
345.5
 21
345.5
  0
LINE
  8
0
 10
114.5
 11
114.5
 20
345.5
 21
350.5
  0
LINE
  8
0
 10
114.5
 11
119.5
 20
350.5
 21
350.5
  0
LINE
  8
0
 10
119.5
 11
119.5
 20
350.5
 21
345.5
  0
LINE
  8
0
 10
119.5
 11
114.5
 20
345.5
 21
345.5
  0
LINE
  8
0
 10
180.5
 11
180.5
 20
345.5
 21
350.5
  0
LINE
  8
0
 10
180.5
 11
185.5
 20
350.5
 21
350.5
  0
LINE
  8
0
 10
185.5
 11
185.5
 20
350.5
 21
345.5
  0
LINE
  8
0
 10
185.5
 11
180.5
 20
345.5
 21
345.5
  0
LINE
  8
0
 10
312.5
 11
312.5
 20
345.5
 21
350.5
  0
LINE
  8
0
 10
312.5
 11
317.5
 20
350.5
 21
350.5
  0
LINE
  8
0
 10
317.5
 11
317.5
 20
350.5
 21
345.5
  0
LINE
  8
0
 10
317.5
 11
312.5
 20
345.5
 21
345.5
  0
LINE
  8
0
 10
378.5
 11
378.5
 20
345.5
 21
350.5
  0
LINE
  8
0
 10
378.5
 11
383.5
 20
350.5
 21
350.5
  0
LINE
  8
0
 10
383.5
 11
383.5
 20
350.5
 21
345.5
  0
LINE
  8
0
 10
383.5
 11
378.5
 20
345.5
 21
345.5
  0
LINE
  8
0
 10
345.5
 11
345.5
 20
345.5
 21
350.5
  0
LINE
  8
0
 10
345.5
 11
350.5
 20
350.5
 21
350.5
  0
LINE
  8
0
 10
350.5
 11
350.5
 20
350.5
 21
345.5
  0
LINE
  8
0
 10
350.5
 11
345.5
 20
345.5
 21
345.5
  0
LINE
  8
0
 10
279.5
 11
279.5
 20
345.5
 21
350.5
  0
LINE
  8
0
 10
279.5
 11
284.5
 20
350.5
 21
350.5
  0
LINE
  8
0
 10
284.5
 11
284.5
 20
350.5
 21
345.5
  0
LINE
  8
0
 10
284.5
 11
279.5
 20
345.5
 21
345.5
  0
LINE
  8
0
 10
147.5
 11
147.5
 20
345.5
 21
350.5
  0
LINE
  8
0
 10
147.5
 11
152.5
 20
350.5
 21
350.5
  0
LINE
  8
0
 10
152.5
 11
152.5
 20
350.5
 21
345.5
  0
LINE
  8
0
 10
152.5
 11
147.5
 20
345.5
 21
345.5
  0
LINE
  8
0
 10
81.5
 11
81.5
 20
345.5
 21
350.5
  0
LINE
  8
0
 10
81.5
 11
86.5
 20
350.5
 21
350.5
  0
LINE
  8
0
 10
86.5
 11
86.5
 20
350.5
 21
345.5
  0
LINE
  8
0
 10
86.5
 11
81.5
 20
345.5
 21
345.5
  0
LINE
  8
0
 10
246.5
 11
246.5
 20
345.5
 21
350.5
  0
LINE
  8
0
 10
246.5
 11
251.5
 20
350.5
 21
350.5
  0
LINE
  8
0
 10
251.5
 11
251.5
 20
350.5
 21
345.5
  0
LINE
  8
0
 10
251.5
 11
246.5
 20
345.5
 21
345.5
  0
LINE
  8
0
 10
375.9
 11
375.9
 20
329.9
 21
333.1
  0
LINE
  8
0
 10
375.9
 11
386.1
 20
333.1
 21
333.1
  0
LINE
  8
0
 10
386.1
 11
386.1
 20
333.1
 21
329.9
  0
LINE
  8
0
 10
386.1
 11
375.9
 20
329.9
 21
329.9
  0
LINE
  8
0
 10
276.9
 11
276.9
 20
329.9
 21
333.1
  0
LINE
  8
0
 10
276.9
 11
287.1
 20
333.1
 21
333.1
  0
LINE
  8
0
 10
287.1
 11
287.1
 20
333.1
 21
329.9
  0
LINE
  8
0
 10
287.1
 11
276.9
 20
329.9
 21
329.9
  0
LINE
  8
0
 10
12.9
 11
12.9
 20
329.9
 21
333.1
  0
LINE
  8
0
 10
12.9
 11
23.1
 20
333.1
 21
333.1
  0
LINE
  8
0
 10
23.1
 11
23.1
 20
333.1
 21
329.9
  0
LINE
  8
0
 10
23.1
 11
12.9
 20
329.9
 21
329.9
  0
LINE
  8
0
 10
78.9
 11
78.9
 20
329.9
 21
333.1
  0
LINE
  8
0
 10
78.9
 11
89.1
 20
333.1
 21
333.1
  0
LINE
  8
0
 10
89.1
 11
89.1
 20
333.1
 21
329.9
  0
LINE
  8
0
 10
89.1
 11
78.9
 20
329.9
 21
329.9
  0
LINE
  8
0
 10
45.9
 11
45.9
 20
329.9
 21
333.1
  0
LINE
  8
0
 10
45.9
 11
56.1
 20
333.1
 21
333.1
  0
LINE
  8
0
 10
56.1
 11
56.1
 20
333.1
 21
329.9
  0
LINE
  8
0
 10
56.1
 11
45.9
 20
329.9
 21
329.9
  0
LINE
  8
0
 10
144.9
 11
144.9
 20
329.9
 21
333.1
  0
LINE
  8
0
 10
144.9
 11
155.1
 20
333.1
 21
333.1
  0
LINE
  8
0
 10
155.1
 11
155.1
 20
333.1
 21
329.9
  0
LINE
  8
0
 10
155.1
 11
144.9
 20
329.9
 21
329.9
  0
LINE
  8
0
 10
111.9
 11
111.9
 20
329.9
 21
333.1
  0
LINE
  8
0
 10
111.9
 11
122.1
 20
333.1
 21
333.1
  0
LINE
  8
0
 10
122.1
 11
122.1
 20
333.1
 21
329.9
  0
LINE
  8
0
 10
122.1
 11
111.9
 20
329.9
 21
329.9
  0
LINE
  8
0
 10
210.9
 11
210.9
 20
329.9
 21
333.1
  0
LINE
  8
0
 10
210.9
 11
221.1
 20
333.1
 21
333.1
  0
LINE
  8
0
 10
221.1
 11
221.1
 20
333.1
 21
329.9
  0
LINE
  8
0
 10
221.1
 11
210.9
 20
329.9
 21
329.9
  0
LINE
  8
0
 10
243.9
 11
243.9
 20
329.9
 21
333.1
  0
LINE
  8
0
 10
243.9
 11
254.1
 20
333.1
 21
333.1
  0
LINE
  8
0
 10
254.1
 11
254.1
 20
333.1
 21
329.9
  0
LINE
  8
0
 10
254.1
 11
243.9
 20
329.9
 21
329.9
  0
LINE
  8
0
 10
177.9
 11
177.9
 20
329.9
 21
333.1
  0
LINE
  8
0
 10
177.9
 11
188.1
 20
333.1
 21
333.1
  0
LINE
  8
0
 10
188.1
 11
188.1
 20
333.1
 21
329.9
  0
LINE
  8
0
 10
188.1
 11
177.9
 20
329.9
 21
329.9
  0
LINE
  8
0
 10
342.9
 11
342.9
 20
329.9
 21
333.1
  0
LINE
  8
0
 10
342.9
 11
353.1
 20
333.1
 21
333.1
  0
LINE
  8
0
 10
353.1
 11
353.1
 20
333.1
 21
329.9
  0
LINE
  8
0
 10
353.1
 11
342.9
 20
329.9
 21
329.9
  0
LINE
  8
0
 10
309.9
 11
309.9
 20
329.9
 21
333.1
  0
LINE
  8
0
 10
309.9
 11
320.1
 20
333.1
 21
333.1
  0
LINE
  8
0
 10
320.1
 11
320.1
 20
333.1
 21
329.9
  0
LINE
  8
0
 10
320.1
 11
309.9
 20
329.9
 21
329.9
  0
LINE
  8
0
 10
98.9
 11
98.9
 20
309.9
 21
320.1
  0
LINE
  8
0
 10
98.9
 11
102.1
 20
320.1
 21
320.1
  0
LINE
  8
0
 10
102.1
 11
102.1
 20
320.1
 21
309.9
  0
LINE
  8
0
 10
102.1
 11
98.9
 20
309.9
 21
309.9
  0
LINE
  8
0
 10
263.9
 11
263.9
 20
309.9
 21
320.1
  0
LINE
  8
0
 10
263.9
 11
267.1
 20
320.1
 21
320.1
  0
LINE
  8
0
 10
267.1
 11
267.1
 20
320.1
 21
309.9
  0
LINE
  8
0
 10
267.1
 11
263.9
 20
309.9
 21
309.9
  0
LINE
  8
0
 10
197.9
 11
197.9
 20
309.9
 21
320.1
  0
LINE
  8
0
 10
197.9
 11
201.1
 20
320.1
 21
320.1
  0
LINE
  8
0
 10
201.1
 11
201.1
 20
320.1
 21
309.9
  0
LINE
  8
0
 10
201.1
 11
197.9
 20
309.9
 21
309.9
  0
LINE
  8
0
 10
329.9
 11
329.9
 20
309.9
 21
320.1
  0
LINE
  8
0
 10
329.9
 11
333.1
 20
320.1
 21
320.1
  0
LINE
  8
0
 10
333.1
 11
333.1
 20
320.1
 21
309.9
  0
LINE
  8
0
 10
333.1
 11
329.9
 20
309.9
 21
309.9
  0
LINE
  8
0
 10
131.9
 11
131.9
 20
309.9
 21
320.1
  0
LINE
  8
0
 10
131.9
 11
135.1
 20
320.1
 21
320.1
  0
LINE
  8
0
 10
135.1
 11
135.1
 20
320.1
 21
309.9
  0
LINE
  8
0
 10
135.1
 11
131.9
 20
309.9
 21
309.9
  0
LINE
  8
0
 10
296.9
 11
296.9
 20
309.9
 21
320.1
  0
LINE
  8
0
 10
296.9
 11
300.1
 20
320.1
 21
320.1
  0
LINE
  8
0
 10
300.1
 11
300.1
 20
320.1
 21
309.9
  0
LINE
  8
0
 10
300.1
 11
296.9
 20
309.9
 21
309.9
  0
LINE
  8
0
 10
164.9
 11
164.9
 20
309.9
 21
320.1
  0
LINE
  8
0
 10
164.9
 11
168.1
 20
320.1
 21
320.1
  0
LINE
  8
0
 10
168.1
 11
168.1
 20
320.1
 21
309.9
  0
LINE
  8
0
 10
168.1
 11
164.9
 20
309.9
 21
309.9
  0
LINE
  8
0
 10
362.9
 11
362.9
 20
309.9
 21
320.1
  0
LINE
  8
0
 10
362.9
 11
366.1
 20
320.1
 21
320.1
  0
LINE
  8
0
 10
366.1
 11
366.1
 20
320.1
 21
309.9
  0
LINE
  8
0
 10
366.1
 11
362.9
 20
309.9
 21
309.9
  0
LINE
  8
0
 10
32.9
 11
32.9
 20
309.9
 21
320.1
  0
LINE
  8
0
 10
32.9
 11
36.1
 20
320.1
 21
320.1
  0
LINE
  8
0
 10
36.1
 11
36.1
 20
320.1
 21
309.9
  0
LINE
  8
0
 10
36.1
 11
32.9
 20
309.9
 21
309.9
  0
LINE
  8
0
 10
230.9
 11
230.9
 20
309.9
 21
320.1
  0
LINE
  8
0
 10
230.9
 11
234.1
 20
320.1
 21
320.1
  0
LINE
  8
0
 10
234.1
 11
234.1
 20
320.1
 21
309.9
  0
LINE
  8
0
 10
234.1
 11
230.9
 20
309.9
 21
309.9
  0
LINE
  8
0
 10
65.9
 11
65.9
 20
309.9
 21
320.1
  0
LINE
  8
0
 10
65.9
 11
69.1
 20
320.1
 21
320.1
  0
LINE
  8
0
 10
69.1
 11
69.1
 20
320.1
 21
309.9
  0
LINE
  8
0
 10
69.1
 11
65.9
 20
309.9
 21
309.9
  0
LINE
  8
0
 10
345.5
 11
345.5
 20
312.5
 21
317.5
  0
LINE
  8
0
 10
345.5
 11
350.5
 20
317.5
 21
317.5
  0
LINE
  8
0
 10
350.5
 11
350.5
 20
317.5
 21
312.5
  0
LINE
  8
0
 10
350.5
 11
345.5
 20
312.5
 21
312.5
  0
LINE
  8
0
 10
81.5
 11
81.5
 20
312.5
 21
317.5
  0
LINE
  8
0
 10
81.5
 11
86.5
 20
317.5
 21
317.5
  0
LINE
  8
0
 10
86.5
 11
86.5
 20
317.5
 21
312.5
  0
LINE
  8
0
 10
86.5
 11
81.5
 20
312.5
 21
312.5
  0
LINE
  8
0
 10
147.5
 11
147.5
 20
312.5
 21
317.5
  0
LINE
  8
0
 10
147.5
 11
152.5
 20
317.5
 21
317.5
  0
LINE
  8
0
 10
152.5
 11
152.5
 20
317.5
 21
312.5
  0
LINE
  8
0
 10
152.5
 11
147.5
 20
312.5
 21
312.5
  0
LINE
  8
0
 10
312.5
 11
312.5
 20
312.5
 21
317.5
  0
LINE
  8
0
 10
312.5
 11
317.5
 20
317.5
 21
317.5
  0
LINE
  8
0
 10
317.5
 11
317.5
 20
317.5
 21
312.5
  0
LINE
  8
0
 10
317.5
 11
312.5
 20
312.5
 21
312.5
  0
LINE
  8
0
 10
48.5
 11
48.5
 20
312.5
 21
317.5
  0
LINE
  8
0
 10
48.5
 11
53.5
 20
317.5
 21
317.5
  0
LINE
  8
0
 10
53.5
 11
53.5
 20
317.5
 21
312.5
  0
LINE
  8
0
 10
53.5
 11
48.5
 20
312.5
 21
312.5
  0
LINE
  8
0
 10
15.5
 11
15.5
 20
312.5
 21
317.5
  0
LINE
  8
0
 10
15.5
 11
20.5
 20
317.5
 21
317.5
  0
LINE
  8
0
 10
20.5
 11
20.5
 20
317.5
 21
312.5
  0
LINE
  8
0
 10
20.5
 11
15.5
 20
312.5
 21
312.5
  0
LINE
  8
0
 10
114.5
 11
114.5
 20
312.5
 21
317.5
  0
LINE
  8
0
 10
114.5
 11
119.5
 20
317.5
 21
317.5
  0
LINE
  8
0
 10
119.5
 11
119.5
 20
317.5
 21
312.5
  0
LINE
  8
0
 10
119.5
 11
114.5
 20
312.5
 21
312.5
  0
LINE
  8
0
 10
246.5
 11
246.5
 20
312.5
 21
317.5
  0
LINE
  8
0
 10
246.5
 11
251.5
 20
317.5
 21
317.5
  0
LINE
  8
0
 10
251.5
 11
251.5
 20
317.5
 21
312.5
  0
LINE
  8
0
 10
251.5
 11
246.5
 20
312.5
 21
312.5
  0
LINE
  8
0
 10
378.5
 11
378.5
 20
312.5
 21
317.5
  0
LINE
  8
0
 10
378.5
 11
383.5
 20
317.5
 21
317.5
  0
LINE
  8
0
 10
383.5
 11
383.5
 20
317.5
 21
312.5
  0
LINE
  8
0
 10
383.5
 11
378.5
 20
312.5
 21
312.5
  0
LINE
  8
0
 10
180.5
 11
180.5
 20
312.5
 21
317.5
  0
LINE
  8
0
 10
180.5
 11
185.5
 20
317.5
 21
317.5
  0
LINE
  8
0
 10
185.5
 11
185.5
 20
317.5
 21
312.5
  0
LINE
  8
0
 10
185.5
 11
180.5
 20
312.5
 21
312.5
  0
LINE
  8
0
 10
213.5
 11
213.5
 20
312.5
 21
317.5
  0
LINE
  8
0
 10
213.5
 11
218.5
 20
317.5
 21
317.5
  0
LINE
  8
0
 10
218.5
 11
218.5
 20
317.5
 21
312.5
  0
LINE
  8
0
 10
218.5
 11
213.5
 20
312.5
 21
312.5
  0
LINE
  8
0
 10
279.5
 11
279.5
 20
312.5
 21
317.5
  0
LINE
  8
0
 10
279.5
 11
284.5
 20
317.5
 21
317.5
  0
LINE
  8
0
 10
284.5
 11
284.5
 20
317.5
 21
312.5
  0
LINE
  8
0
 10
284.5
 11
279.5
 20
312.5
 21
312.5
  0
LINE
  8
0
 10
309.9
 11
309.9
 20
296.9
 21
300.1
  0
LINE
  8
0
 10
309.9
 11
320.1
 20
300.1
 21
300.1
  0
LINE
  8
0
 10
320.1
 11
320.1
 20
300.1
 21
296.9
  0
LINE
  8
0
 10
320.1
 11
309.9
 20
296.9
 21
296.9
  0
LINE
  8
0
 10
375.9
 11
375.9
 20
296.9
 21
300.1
  0
LINE
  8
0
 10
375.9
 11
386.1
 20
300.1
 21
300.1
  0
LINE
  8
0
 10
386.1
 11
386.1
 20
300.1
 21
296.9
  0
LINE
  8
0
 10
386.1
 11
375.9
 20
296.9
 21
296.9
  0
LINE
  8
0
 10
177.9
 11
177.9
 20
296.9
 21
300.1
  0
LINE
  8
0
 10
177.9
 11
188.1
 20
300.1
 21
300.1
  0
LINE
  8
0
 10
188.1
 11
188.1
 20
300.1
 21
296.9
  0
LINE
  8
0
 10
188.1
 11
177.9
 20
296.9
 21
296.9
  0
LINE
  8
0
 10
276.9
 11
276.9
 20
296.9
 21
300.1
  0
LINE
  8
0
 10
276.9
 11
287.1
 20
300.1
 21
300.1
  0
LINE
  8
0
 10
287.1
 11
287.1
 20
300.1
 21
296.9
  0
LINE
  8
0
 10
287.1
 11
276.9
 20
296.9
 21
296.9
  0
LINE
  8
0
 10
78.9
 11
78.9
 20
296.9
 21
300.1
  0
LINE
  8
0
 10
78.9
 11
89.1
 20
300.1
 21
300.1
  0
LINE
  8
0
 10
89.1
 11
89.1
 20
300.1
 21
296.9
  0
LINE
  8
0
 10
89.1
 11
78.9
 20
296.9
 21
296.9
  0
LINE
  8
0
 10
12.9
 11
12.9
 20
296.9
 21
300.1
  0
LINE
  8
0
 10
12.9
 11
23.1
 20
300.1
 21
300.1
  0
LINE
  8
0
 10
23.1
 11
23.1
 20
300.1
 21
296.9
  0
LINE
  8
0
 10
23.1
 11
12.9
 20
296.9
 21
296.9
  0
LINE
  8
0
 10
45.9
 11
45.9
 20
296.9
 21
300.1
  0
LINE
  8
0
 10
45.9
 11
56.1
 20
300.1
 21
300.1
  0
LINE
  8
0
 10
56.1
 11
56.1
 20
300.1
 21
296.9
  0
LINE
  8
0
 10
56.1
 11
45.9
 20
296.9
 21
296.9
  0
LINE
  8
0
 10
111.9
 11
111.9
 20
296.9
 21
300.1
  0
LINE
  8
0
 10
111.9
 11
122.1
 20
300.1
 21
300.1
  0
LINE
  8
0
 10
122.1
 11
122.1
 20
300.1
 21
296.9
  0
LINE
  8
0
 10
122.1
 11
111.9
 20
296.9
 21
296.9
  0
LINE
  8
0
 10
243.9
 11
243.9
 20
296.9
 21
300.1
  0
LINE
  8
0
 10
243.9
 11
254.1
 20
300.1
 21
300.1
  0
LINE
  8
0
 10
254.1
 11
254.1
 20
300.1
 21
296.9
  0
LINE
  8
0
 10
254.1
 11
243.9
 20
296.9
 21
296.9
  0
LINE
  8
0
 10
144.9
 11
144.9
 20
296.9
 21
300.1
  0
LINE
  8
0
 10
144.9
 11
155.1
 20
300.1
 21
300.1
  0
LINE
  8
0
 10
155.1
 11
155.1
 20
300.1
 21
296.9
  0
LINE
  8
0
 10
155.1
 11
144.9
 20
296.9
 21
296.9
  0
LINE
  8
0
 10
342.9
 11
342.9
 20
296.9
 21
300.1
  0
LINE
  8
0
 10
342.9
 11
353.1
 20
300.1
 21
300.1
  0
LINE
  8
0
 10
353.1
 11
353.1
 20
300.1
 21
296.9
  0
LINE
  8
0
 10
353.1
 11
342.9
 20
296.9
 21
296.9
  0
LINE
  8
0
 10
210.9
 11
210.9
 20
296.9
 21
300.1
  0
LINE
  8
0
 10
210.9
 11
221.1
 20
300.1
 21
300.1
  0
LINE
  8
0
 10
221.1
 11
221.1
 20
300.1
 21
296.9
  0
LINE
  8
0
 10
221.1
 11
210.9
 20
296.9
 21
296.9
  0
LINE
  8
0
 10
296.9
 11
296.9
 20
276.9
 21
287.1
  0
LINE
  8
0
 10
296.9
 11
300.1
 20
287.1
 21
287.1
  0
LINE
  8
0
 10
300.1
 11
300.1
 20
287.1
 21
276.9
  0
LINE
  8
0
 10
300.1
 11
296.9
 20
276.9
 21
276.9
  0
LINE
  8
0
 10
230.9
 11
230.9
 20
276.9
 21
287.1
  0
LINE
  8
0
 10
230.9
 11
234.1
 20
287.1
 21
287.1
  0
LINE
  8
0
 10
234.1
 11
234.1
 20
287.1
 21
276.9
  0
LINE
  8
0
 10
234.1
 11
230.9
 20
276.9
 21
276.9
  0
LINE
  8
0
 10
164.9
 11
164.9
 20
276.9
 21
287.1
  0
LINE
  8
0
 10
164.9
 11
168.1
 20
287.1
 21
287.1
  0
LINE
  8
0
 10
168.1
 11
168.1
 20
287.1
 21
276.9
  0
LINE
  8
0
 10
168.1
 11
164.9
 20
276.9
 21
276.9
  0
LINE
  8
0
 10
263.9
 11
263.9
 20
276.9
 21
287.1
  0
LINE
  8
0
 10
263.9
 11
267.1
 20
287.1
 21
287.1
  0
LINE
  8
0
 10
267.1
 11
267.1
 20
287.1
 21
276.9
  0
LINE
  8
0
 10
267.1
 11
263.9
 20
276.9
 21
276.9
  0
LINE
  8
0
 10
329.9
 11
329.9
 20
276.9
 21
287.1
  0
LINE
  8
0
 10
329.9
 11
333.1
 20
287.1
 21
287.1
  0
LINE
  8
0
 10
333.1
 11
333.1
 20
287.1
 21
276.9
  0
LINE
  8
0
 10
333.1
 11
329.9
 20
276.9
 21
276.9
  0
LINE
  8
0
 10
197.9
 11
197.9
 20
276.9
 21
287.1
  0
LINE
  8
0
 10
197.9
 11
201.1
 20
287.1
 21
287.1
  0
LINE
  8
0
 10
201.1
 11
201.1
 20
287.1
 21
276.9
  0
LINE
  8
0
 10
201.1
 11
197.9
 20
276.9
 21
276.9
  0
LINE
  8
0
 10
131.9
 11
131.9
 20
276.9
 21
287.1
  0
LINE
  8
0
 10
131.9
 11
135.1
 20
287.1
 21
287.1
  0
LINE
  8
0
 10
135.1
 11
135.1
 20
287.1
 21
276.9
  0
LINE
  8
0
 10
135.1
 11
131.9
 20
276.9
 21
276.9
  0
LINE
  8
0
 10
98.9
 11
98.9
 20
276.9
 21
287.1
  0
LINE
  8
0
 10
98.9
 11
102.1
 20
287.1
 21
287.1
  0
LINE
  8
0
 10
102.1
 11
102.1
 20
287.1
 21
276.9
  0
LINE
  8
0
 10
102.1
 11
98.9
 20
276.9
 21
276.9
  0
LINE
  8
0
 10
32.9
 11
32.9
 20
276.9
 21
287.1
  0
LINE
  8
0
 10
32.9
 11
36.1
 20
287.1
 21
287.1
  0
LINE
  8
0
 10
36.1
 11
36.1
 20
287.1
 21
276.9
  0
LINE
  8
0
 10
36.1
 11
32.9
 20
276.9
 21
276.9
  0
LINE
  8
0
 10
362.9
 11
362.9
 20
276.9
 21
287.1
  0
LINE
  8
0
 10
362.9
 11
366.1
 20
287.1
 21
287.1
  0
LINE
  8
0
 10
366.1
 11
366.1
 20
287.1
 21
276.9
  0
LINE
  8
0
 10
366.1
 11
362.9
 20
276.9
 21
276.9
  0
LINE
  8
0
 10
65.9
 11
65.9
 20
276.9
 21
287.1
  0
LINE
  8
0
 10
65.9
 11
69.1
 20
287.1
 21
287.1
  0
LINE
  8
0
 10
69.1
 11
69.1
 20
287.1
 21
276.9
  0
LINE
  8
0
 10
69.1
 11
65.9
 20
276.9
 21
276.9
  0
LINE
  8
0
 10
312.5
 11
312.5
 20
279.5
 21
284.5
  0
LINE
  8
0
 10
312.5
 11
317.5
 20
284.5
 21
284.5
  0
LINE
  8
0
 10
317.5
 11
317.5
 20
284.5
 21
279.5
  0
LINE
  8
0
 10
317.5
 11
312.5
 20
279.5
 21
279.5
  0
LINE
  8
0
 10
378.5
 11
378.5
 20
279.5
 21
284.5
  0
LINE
  8
0
 10
378.5
 11
383.5
 20
284.5
 21
284.5
  0
LINE
  8
0
 10
383.5
 11
383.5
 20
284.5
 21
279.5
  0
LINE
  8
0
 10
383.5
 11
378.5
 20
279.5
 21
279.5
  0
LINE
  8
0
 10
81.5
 11
81.5
 20
279.5
 21
284.5
  0
LINE
  8
0
 10
81.5
 11
86.5
 20
284.5
 21
284.5
  0
LINE
  8
0
 10
86.5
 11
86.5
 20
284.5
 21
279.5
  0
LINE
  8
0
 10
86.5
 11
81.5
 20
279.5
 21
279.5
  0
LINE
  8
0
 10
15.5
 11
15.5
 20
279.5
 21
284.5
  0
LINE
  8
0
 10
15.5
 11
20.5
 20
284.5
 21
284.5
  0
LINE
  8
0
 10
20.5
 11
20.5
 20
284.5
 21
279.5
  0
LINE
  8
0
 10
20.5
 11
15.5
 20
279.5
 21
279.5
  0
LINE
  8
0
 10
114.5
 11
114.5
 20
279.5
 21
284.5
  0
LINE
  8
0
 10
114.5
 11
119.5
 20
284.5
 21
284.5
  0
LINE
  8
0
 10
119.5
 11
119.5
 20
284.5
 21
279.5
  0
LINE
  8
0
 10
119.5
 11
114.5
 20
279.5
 21
279.5
  0
LINE
  8
0
 10
147.5
 11
147.5
 20
279.5
 21
284.5
  0
LINE
  8
0
 10
147.5
 11
152.5
 20
284.5
 21
284.5
  0
LINE
  8
0
 10
152.5
 11
152.5
 20
284.5
 21
279.5
  0
LINE
  8
0
 10
152.5
 11
147.5
 20
279.5
 21
279.5
  0
LINE
  8
0
 10
345.5
 11
345.5
 20
279.5
 21
284.5
  0
LINE
  8
0
 10
345.5
 11
350.5
 20
284.5
 21
284.5
  0
LINE
  8
0
 10
350.5
 11
350.5
 20
284.5
 21
279.5
  0
LINE
  8
0
 10
350.5
 11
345.5
 20
279.5
 21
279.5
  0
LINE
  8
0
 10
279.5
 11
279.5
 20
279.5
 21
284.5
  0
LINE
  8
0
 10
279.5
 11
284.5
 20
284.5
 21
284.5
  0
LINE
  8
0
 10
284.5
 11
284.5
 20
284.5
 21
279.5
  0
LINE
  8
0
 10
284.5
 11
279.5
 20
279.5
 21
279.5
  0
LINE
  8
0
 10
48.5
 11
48.5
 20
279.5
 21
284.5
  0
LINE
  8
0
 10
48.5
 11
53.5
 20
284.5
 21
284.5
  0
LINE
  8
0
 10
53.5
 11
53.5
 20
284.5
 21
279.5
  0
LINE
  8
0
 10
53.5
 11
48.5
 20
279.5
 21
279.5
  0
LINE
  8
0
 10
180.5
 11
180.5
 20
279.5
 21
284.5
  0
LINE
  8
0
 10
180.5
 11
185.5
 20
284.5
 21
284.5
  0
LINE
  8
0
 10
185.5
 11
185.5
 20
284.5
 21
279.5
  0
LINE
  8
0
 10
185.5
 11
180.5
 20
279.5
 21
279.5
  0
LINE
  8
0
 10
246.5
 11
246.5
 20
279.5
 21
284.5
  0
LINE
  8
0
 10
246.5
 11
251.5
 20
284.5
 21
284.5
  0
LINE
  8
0
 10
251.5
 11
251.5
 20
284.5
 21
279.5
  0
LINE
  8
0
 10
251.5
 11
246.5
 20
279.5
 21
279.5
  0
LINE
  8
0
 10
213.5
 11
213.5
 20
279.5
 21
284.5
  0
LINE
  8
0
 10
213.5
 11
218.5
 20
284.5
 21
284.5
  0
LINE
  8
0
 10
218.5
 11
218.5
 20
284.5
 21
279.5
  0
LINE
  8
0
 10
218.5
 11
213.5
 20
279.5
 21
279.5
  0
LINE
  8
0
 10
309.9
 11
309.9
 20
263.9
 21
267.1
  0
LINE
  8
0
 10
309.9
 11
320.1
 20
267.1
 21
267.1
  0
LINE
  8
0
 10
320.1
 11
320.1
 20
267.1
 21
263.9
  0
LINE
  8
0
 10
320.1
 11
309.9
 20
263.9
 21
263.9
  0
LINE
  8
0
 10
276.9
 11
276.9
 20
263.9
 21
267.1
  0
LINE
  8
0
 10
276.9
 11
287.1
 20
267.1
 21
267.1
  0
LINE
  8
0
 10
287.1
 11
287.1
 20
267.1
 21
263.9
  0
LINE
  8
0
 10
287.1
 11
276.9
 20
263.9
 21
263.9
  0
LINE
  8
0
 10
210.9
 11
210.9
 20
263.9
 21
267.1
  0
LINE
  8
0
 10
210.9
 11
221.1
 20
267.1
 21
267.1
  0
LINE
  8
0
 10
221.1
 11
221.1
 20
267.1
 21
263.9
  0
LINE
  8
0
 10
221.1
 11
210.9
 20
263.9
 21
263.9
  0
LINE
  8
0
 10
375.9
 11
375.9
 20
263.9
 21
267.1
  0
LINE
  8
0
 10
375.9
 11
386.1
 20
267.1
 21
267.1
  0
LINE
  8
0
 10
386.1
 11
386.1
 20
267.1
 21
263.9
  0
LINE
  8
0
 10
386.1
 11
375.9
 20
263.9
 21
263.9
  0
LINE
  8
0
 10
12.9
 11
12.9
 20
263.9
 21
267.1
  0
LINE
  8
0
 10
12.9
 11
23.1
 20
267.1
 21
267.1
  0
LINE
  8
0
 10
23.1
 11
23.1
 20
267.1
 21
263.9
  0
LINE
  8
0
 10
23.1
 11
12.9
 20
263.9
 21
263.9
  0
LINE
  8
0
 10
45.9
 11
45.9
 20
263.9
 21
267.1
  0
LINE
  8
0
 10
45.9
 11
56.1
 20
267.1
 21
267.1
  0
LINE
  8
0
 10
56.1
 11
56.1
 20
267.1
 21
263.9
  0
LINE
  8
0
 10
56.1
 11
45.9
 20
263.9
 21
263.9
  0
LINE
  8
0
 10
78.9
 11
78.9
 20
263.9
 21
267.1
  0
LINE
  8
0
 10
78.9
 11
89.1
 20
267.1
 21
267.1
  0
LINE
  8
0
 10
89.1
 11
89.1
 20
267.1
 21
263.9
  0
LINE
  8
0
 10
89.1
 11
78.9
 20
263.9
 21
263.9
  0
LINE
  8
0
 10
177.9
 11
177.9
 20
263.9
 21
267.1
  0
LINE
  8
0
 10
177.9
 11
188.1
 20
267.1
 21
267.1
  0
LINE
  8
0
 10
188.1
 11
188.1
 20
267.1
 21
263.9
  0
LINE
  8
0
 10
188.1
 11
177.9
 20
263.9
 21
263.9
  0
LINE
  8
0
 10
144.9
 11
144.9
 20
263.9
 21
267.1
  0
LINE
  8
0
 10
144.9
 11
155.1
 20
267.1
 21
267.1
  0
LINE
  8
0
 10
155.1
 11
155.1
 20
267.1
 21
263.9
  0
LINE
  8
0
 10
155.1
 11
144.9
 20
263.9
 21
263.9
  0
LINE
  8
0
 10
243.9
 11
243.9
 20
263.9
 21
267.1
  0
LINE
  8
0
 10
243.9
 11
254.1
 20
267.1
 21
267.1
  0
LINE
  8
0
 10
254.1
 11
254.1
 20
267.1
 21
263.9
  0
LINE
  8
0
 10
254.1
 11
243.9
 20
263.9
 21
263.9
  0
LINE
  8
0
 10
342.9
 11
342.9
 20
263.9
 21
267.1
  0
LINE
  8
0
 10
342.9
 11
353.1
 20
267.1
 21
267.1
  0
LINE
  8
0
 10
353.1
 11
353.1
 20
267.1
 21
263.9
  0
LINE
  8
0
 10
353.1
 11
342.9
 20
263.9
 21
263.9
  0
LINE
  8
0
 10
111.9
 11
111.9
 20
263.9
 21
267.1
  0
LINE
  8
0
 10
111.9
 11
122.1
 20
267.1
 21
267.1
  0
LINE
  8
0
 10
122.1
 11
122.1
 20
267.1
 21
263.9
  0
LINE
  8
0
 10
122.1
 11
111.9
 20
263.9
 21
263.9
  0
LINE
  8
0
 10
362.9
 11
362.9
 20
243.9
 21
254.1
  0
LINE
  8
0
 10
362.9
 11
366.1
 20
254.1
 21
254.1
  0
LINE
  8
0
 10
366.1
 11
366.1
 20
254.1
 21
243.9
  0
LINE
  8
0
 10
366.1
 11
362.9
 20
243.9
 21
243.9
  0
LINE
  8
0
 10
329.9
 11
329.9
 20
243.9
 21
254.1
  0
LINE
  8
0
 10
329.9
 11
333.1
 20
254.1
 21
254.1
  0
LINE
  8
0
 10
333.1
 11
333.1
 20
254.1
 21
243.9
  0
LINE
  8
0
 10
333.1
 11
329.9
 20
243.9
 21
243.9
  0
LINE
  8
0
 10
197.9
 11
197.9
 20
243.9
 21
254.1
  0
LINE
  8
0
 10
197.9
 11
201.1
 20
254.1
 21
254.1
  0
LINE
  8
0
 10
201.1
 11
201.1
 20
254.1
 21
243.9
  0
LINE
  8
0
 10
201.1
 11
197.9
 20
243.9
 21
243.9
  0
LINE
  8
0
 10
230.9
 11
230.9
 20
243.9
 21
254.1
  0
LINE
  8
0
 10
230.9
 11
234.1
 20
254.1
 21
254.1
  0
LINE
  8
0
 10
234.1
 11
234.1
 20
254.1
 21
243.9
  0
LINE
  8
0
 10
234.1
 11
230.9
 20
243.9
 21
243.9
  0
LINE
  8
0
 10
263.9
 11
263.9
 20
243.9
 21
254.1
  0
LINE
  8
0
 10
263.9
 11
267.1
 20
254.1
 21
254.1
  0
LINE
  8
0
 10
267.1
 11
267.1
 20
254.1
 21
243.9
  0
LINE
  8
0
 10
267.1
 11
263.9
 20
243.9
 21
243.9
  0
LINE
  8
0
 10
131.9
 11
131.9
 20
243.9
 21
254.1
  0
LINE
  8
0
 10
131.9
 11
135.1
 20
254.1
 21
254.1
  0
LINE
  8
0
 10
135.1
 11
135.1
 20
254.1
 21
243.9
  0
LINE
  8
0
 10
135.1
 11
131.9
 20
243.9
 21
243.9
  0
LINE
  8
0
 10
164.9
 11
164.9
 20
243.9
 21
254.1
  0
LINE
  8
0
 10
164.9
 11
168.1
 20
254.1
 21
254.1
  0
LINE
  8
0
 10
168.1
 11
168.1
 20
254.1
 21
243.9
  0
LINE
  8
0
 10
168.1
 11
164.9
 20
243.9
 21
243.9
  0
LINE
  8
0
 10
98.9
 11
98.9
 20
243.9
 21
254.1
  0
LINE
  8
0
 10
98.9
 11
102.1
 20
254.1
 21
254.1
  0
LINE
  8
0
 10
102.1
 11
102.1
 20
254.1
 21
243.9
  0
LINE
  8
0
 10
102.1
 11
98.9
 20
243.9
 21
243.9
  0
LINE
  8
0
 10
65.9
 11
65.9
 20
243.9
 21
254.1
  0
LINE
  8
0
 10
65.9
 11
69.1
 20
254.1
 21
254.1
  0
LINE
  8
0
 10
69.1
 11
69.1
 20
254.1
 21
243.9
  0
LINE
  8
0
 10
69.1
 11
65.9
 20
243.9
 21
243.9
  0
LINE
  8
0
 10
296.9
 11
296.9
 20
243.9
 21
254.1
  0
LINE
  8
0
 10
296.9
 11
300.1
 20
254.1
 21
254.1
  0
LINE
  8
0
 10
300.1
 11
300.1
 20
254.1
 21
243.9
  0
LINE
  8
0
 10
300.1
 11
296.9
 20
243.9
 21
243.9
  0
LINE
  8
0
 10
32.9
 11
32.9
 20
243.9
 21
254.1
  0
LINE
  8
0
 10
32.9
 11
36.1
 20
254.1
 21
254.1
  0
LINE
  8
0
 10
36.1
 11
36.1
 20
254.1
 21
243.9
  0
LINE
  8
0
 10
36.1
 11
32.9
 20
243.9
 21
243.9
  0
LINE
  8
0
 10
312.5
 11
312.5
 20
246.5
 21
251.5
  0
LINE
  8
0
 10
312.5
 11
317.5
 20
251.5
 21
251.5
  0
LINE
  8
0
 10
317.5
 11
317.5
 20
251.5
 21
246.5
  0
LINE
  8
0
 10
317.5
 11
312.5
 20
246.5
 21
246.5
  0
LINE
  8
0
 10
279.5
 11
279.5
 20
246.5
 21
251.5
  0
LINE
  8
0
 10
279.5
 11
284.5
 20
251.5
 21
251.5
  0
LINE
  8
0
 10
284.5
 11
284.5
 20
251.5
 21
246.5
  0
LINE
  8
0
 10
284.5
 11
279.5
 20
246.5
 21
246.5
  0
LINE
  8
0
 10
378.5
 11
378.5
 20
246.5
 21
251.5
  0
LINE
  8
0
 10
378.5
 11
383.5
 20
251.5
 21
251.5
  0
LINE
  8
0
 10
383.5
 11
383.5
 20
251.5
 21
246.5
  0
LINE
  8
0
 10
383.5
 11
378.5
 20
246.5
 21
246.5
  0
LINE
  8
0
 10
81.5
 11
81.5
 20
246.5
 21
251.5
  0
LINE
  8
0
 10
81.5
 11
86.5
 20
251.5
 21
251.5
  0
LINE
  8
0
 10
86.5
 11
86.5
 20
251.5
 21
246.5
  0
LINE
  8
0
 10
86.5
 11
81.5
 20
246.5
 21
246.5
  0
LINE
  8
0
 10
114.5
 11
114.5
 20
246.5
 21
251.5
  0
LINE
  8
0
 10
114.5
 11
119.5
 20
251.5
 21
251.5
  0
LINE
  8
0
 10
119.5
 11
119.5
 20
251.5
 21
246.5
  0
LINE
  8
0
 10
119.5
 11
114.5
 20
246.5
 21
246.5
  0
LINE
  8
0
 10
15.5
 11
15.5
 20
246.5
 21
251.5
  0
LINE
  8
0
 10
15.5
 11
20.5
 20
251.5
 21
251.5
  0
LINE
  8
0
 10
20.5
 11
20.5
 20
251.5
 21
246.5
  0
LINE
  8
0
 10
20.5
 11
15.5
 20
246.5
 21
246.5
  0
LINE
  8
0
 10
345.5
 11
345.5
 20
246.5
 21
251.5
  0
LINE
  8
0
 10
345.5
 11
350.5
 20
251.5
 21
251.5
  0
LINE
  8
0
 10
350.5
 11
350.5
 20
251.5
 21
246.5
  0
LINE
  8
0
 10
350.5
 11
345.5
 20
246.5
 21
246.5
  0
LINE
  8
0
 10
246.5
 11
246.5
 20
246.5
 21
251.5
  0
LINE
  8
0
 10
246.5
 11
251.5
 20
251.5
 21
251.5
  0
LINE
  8
0
 10
251.5
 11
251.5
 20
251.5
 21
246.5
  0
LINE
  8
0
 10
251.5
 11
246.5
 20
246.5
 21
246.5
  0
LINE
  8
0
 10
48.5
 11
48.5
 20
246.5
 21
251.5
  0
LINE
  8
0
 10
48.5
 11
53.5
 20
251.5
 21
251.5
  0
LINE
  8
0
 10
53.5
 11
53.5
 20
251.5
 21
246.5
  0
LINE
  8
0
 10
53.5
 11
48.5
 20
246.5
 21
246.5
  0
LINE
  8
0
 10
180.5
 11
180.5
 20
246.5
 21
251.5
  0
LINE
  8
0
 10
180.5
 11
185.5
 20
251.5
 21
251.5
  0
LINE
  8
0
 10
185.5
 11
185.5
 20
251.5
 21
246.5
  0
LINE
  8
0
 10
185.5
 11
180.5
 20
246.5
 21
246.5
  0
LINE
  8
0
 10
147.5
 11
147.5
 20
246.5
 21
251.5
  0
LINE
  8
0
 10
147.5
 11
152.5
 20
251.5
 21
251.5
  0
LINE
  8
0
 10
152.5
 11
152.5
 20
251.5
 21
246.5
  0
LINE
  8
0
 10
152.5
 11
147.5
 20
246.5
 21
246.5
  0
LINE
  8
0
 10
213.5
 11
213.5
 20
246.5
 21
251.5
  0
LINE
  8
0
 10
213.5
 11
218.5
 20
251.5
 21
251.5
  0
LINE
  8
0
 10
218.5
 11
218.5
 20
251.5
 21
246.5
  0
LINE
  8
0
 10
218.5
 11
213.5
 20
246.5
 21
246.5
  0
LINE
  8
0
 10
342.9
 11
342.9
 20
230.9
 21
234.1
  0
LINE
  8
0
 10
342.9
 11
353.1
 20
234.1
 21
234.1
  0
LINE
  8
0
 10
353.1
 11
353.1
 20
234.1
 21
230.9
  0
LINE
  8
0
 10
353.1
 11
342.9
 20
230.9
 21
230.9
  0
LINE
  8
0
 10
375.9
 11
375.9
 20
230.9
 21
234.1
  0
LINE
  8
0
 10
375.9
 11
386.1
 20
234.1
 21
234.1
  0
LINE
  8
0
 10
386.1
 11
386.1
 20
234.1
 21
230.9
  0
LINE
  8
0
 10
386.1
 11
375.9
 20
230.9
 21
230.9
  0
LINE
  8
0
 10
78.9
 11
78.9
 20
230.9
 21
234.1
  0
LINE
  8
0
 10
78.9
 11
89.1
 20
234.1
 21
234.1
  0
LINE
  8
0
 10
89.1
 11
89.1
 20
234.1
 21
230.9
  0
LINE
  8
0
 10
89.1
 11
78.9
 20
230.9
 21
230.9
  0
LINE
  8
0
 10
243.9
 11
243.9
 20
230.9
 21
234.1
  0
LINE
  8
0
 10
243.9
 11
254.1
 20
234.1
 21
234.1
  0
LINE
  8
0
 10
254.1
 11
254.1
 20
234.1
 21
230.9
  0
LINE
  8
0
 10
254.1
 11
243.9
 20
230.9
 21
230.9
  0
LINE
  8
0
 10
309.9
 11
309.9
 20
230.9
 21
234.1
  0
LINE
  8
0
 10
309.9
 11
320.1
 20
234.1
 21
234.1
  0
LINE
  8
0
 10
320.1
 11
320.1
 20
234.1
 21
230.9
  0
LINE
  8
0
 10
320.1
 11
309.9
 20
230.9
 21
230.9
  0
LINE
  8
0
 10
177.9
 11
177.9
 20
230.9
 21
234.1
  0
LINE
  8
0
 10
177.9
 11
188.1
 20
234.1
 21
234.1
  0
LINE
  8
0
 10
188.1
 11
188.1
 20
234.1
 21
230.9
  0
LINE
  8
0
 10
188.1
 11
177.9
 20
230.9
 21
230.9
  0
LINE
  8
0
 10
12.9
 11
12.9
 20
230.9
 21
234.1
  0
LINE
  8
0
 10
12.9
 11
23.1
 20
234.1
 21
234.1
  0
LINE
  8
0
 10
23.1
 11
23.1
 20
234.1
 21
230.9
  0
LINE
  8
0
 10
23.1
 11
12.9
 20
230.9
 21
230.9
  0
LINE
  8
0
 10
111.9
 11
111.9
 20
230.9
 21
234.1
  0
LINE
  8
0
 10
111.9
 11
122.1
 20
234.1
 21
234.1
  0
LINE
  8
0
 10
122.1
 11
122.1
 20
234.1
 21
230.9
  0
LINE
  8
0
 10
122.1
 11
111.9
 20
230.9
 21
230.9
  0
LINE
  8
0
 10
210.9
 11
210.9
 20
230.9
 21
234.1
  0
LINE
  8
0
 10
210.9
 11
221.1
 20
234.1
 21
234.1
  0
LINE
  8
0
 10
221.1
 11
221.1
 20
234.1
 21
230.9
  0
LINE
  8
0
 10
221.1
 11
210.9
 20
230.9
 21
230.9
  0
LINE
  8
0
 10
276.9
 11
276.9
 20
230.9
 21
234.1
  0
LINE
  8
0
 10
276.9
 11
287.1
 20
234.1
 21
234.1
  0
LINE
  8
0
 10
287.1
 11
287.1
 20
234.1
 21
230.9
  0
LINE
  8
0
 10
287.1
 11
276.9
 20
230.9
 21
230.9
  0
LINE
  8
0
 10
144.9
 11
144.9
 20
230.9
 21
234.1
  0
LINE
  8
0
 10
144.9
 11
155.1
 20
234.1
 21
234.1
  0
LINE
  8
0
 10
155.1
 11
155.1
 20
234.1
 21
230.9
  0
LINE
  8
0
 10
155.1
 11
144.9
 20
230.9
 21
230.9
  0
LINE
  8
0
 10
45.9
 11
45.9
 20
230.9
 21
234.1
  0
LINE
  8
0
 10
45.9
 11
56.1
 20
234.1
 21
234.1
  0
LINE
  8
0
 10
56.1
 11
56.1
 20
234.1
 21
230.9
  0
LINE
  8
0
 10
56.1
 11
45.9
 20
230.9
 21
230.9
  0
LINE
  8
0
 10
230.9
 11
230.9
 20
210.9
 21
221.1
  0
LINE
  8
0
 10
230.9
 11
234.1
 20
221.1
 21
221.1
  0
LINE
  8
0
 10
234.1
 11
234.1
 20
221.1
 21
210.9
  0
LINE
  8
0
 10
234.1
 11
230.9
 20
210.9
 21
210.9
  0
LINE
  8
0
 10
263.9
 11
263.9
 20
210.9
 21
221.1
  0
LINE
  8
0
 10
263.9
 11
267.1
 20
221.1
 21
221.1
  0
LINE
  8
0
 10
267.1
 11
267.1
 20
221.1
 21
210.9
  0
LINE
  8
0
 10
267.1
 11
263.9
 20
210.9
 21
210.9
  0
LINE
  8
0
 10
329.9
 11
329.9
 20
210.9
 21
221.1
  0
LINE
  8
0
 10
329.9
 11
333.1
 20
221.1
 21
221.1
  0
LINE
  8
0
 10
333.1
 11
333.1
 20
221.1
 21
210.9
  0
LINE
  8
0
 10
333.1
 11
329.9
 20
210.9
 21
210.9
  0
LINE
  8
0
 10
296.9
 11
296.9
 20
210.9
 21
221.1
  0
LINE
  8
0
 10
296.9
 11
300.1
 20
221.1
 21
221.1
  0
LINE
  8
0
 10
300.1
 11
300.1
 20
221.1
 21
210.9
  0
LINE
  8
0
 10
300.1
 11
296.9
 20
210.9
 21
210.9
  0
LINE
  8
0
 10
362.9
 11
362.9
 20
210.9
 21
221.1
  0
LINE
  8
0
 10
362.9
 11
366.1
 20
221.1
 21
221.1
  0
LINE
  8
0
 10
366.1
 11
366.1
 20
221.1
 21
210.9
  0
LINE
  8
0
 10
366.1
 11
362.9
 20
210.9
 21
210.9
  0
LINE
  8
0
 10
131.9
 11
131.9
 20
210.9
 21
221.1
  0
LINE
  8
0
 10
131.9
 11
135.1
 20
221.1
 21
221.1
  0
LINE
  8
0
 10
135.1
 11
135.1
 20
221.1
 21
210.9
  0
LINE
  8
0
 10
135.1
 11
131.9
 20
210.9
 21
210.9
  0
LINE
  8
0
 10
164.9
 11
164.9
 20
210.9
 21
221.1
  0
LINE
  8
0
 10
164.9
 11
168.1
 20
221.1
 21
221.1
  0
LINE
  8
0
 10
168.1
 11
168.1
 20
221.1
 21
210.9
  0
LINE
  8
0
 10
168.1
 11
164.9
 20
210.9
 21
210.9
  0
LINE
  8
0
 10
98.9
 11
98.9
 20
210.9
 21
221.1
  0
LINE
  8
0
 10
98.9
 11
102.1
 20
221.1
 21
221.1
  0
LINE
  8
0
 10
102.1
 11
102.1
 20
221.1
 21
210.9
  0
LINE
  8
0
 10
102.1
 11
98.9
 20
210.9
 21
210.9
  0
LINE
  8
0
 10
65.9
 11
65.9
 20
210.9
 21
221.1
  0
LINE
  8
0
 10
65.9
 11
69.1
 20
221.1
 21
221.1
  0
LINE
  8
0
 10
69.1
 11
69.1
 20
221.1
 21
210.9
  0
LINE
  8
0
 10
69.1
 11
65.9
 20
210.9
 21
210.9
  0
LINE
  8
0
 10
197.9
 11
197.9
 20
210.9
 21
221.1
  0
LINE
  8
0
 10
197.9
 11
201.1
 20
221.1
 21
221.1
  0
LINE
  8
0
 10
201.1
 11
201.1
 20
221.1
 21
210.9
  0
LINE
  8
0
 10
201.1
 11
197.9
 20
210.9
 21
210.9
  0
LINE
  8
0
 10
32.9
 11
32.9
 20
210.9
 21
221.1
  0
LINE
  8
0
 10
32.9
 11
36.1
 20
221.1
 21
221.1
  0
LINE
  8
0
 10
36.1
 11
36.1
 20
221.1
 21
210.9
  0
LINE
  8
0
 10
36.1
 11
32.9
 20
210.9
 21
210.9
  0
LINE
  8
0
 10
279.5
 11
279.5
 20
213.5
 21
218.5
  0
LINE
  8
0
 10
279.5
 11
284.5
 20
218.5
 21
218.5
  0
LINE
  8
0
 10
284.5
 11
284.5
 20
218.5
 21
213.5
  0
LINE
  8
0
 10
284.5
 11
279.5
 20
213.5
 21
213.5
  0
LINE
  8
0
 10
246.5
 11
246.5
 20
213.5
 21
218.5
  0
LINE
  8
0
 10
246.5
 11
251.5
 20
218.5
 21
218.5
  0
LINE
  8
0
 10
251.5
 11
251.5
 20
218.5
 21
213.5
  0
LINE
  8
0
 10
251.5
 11
246.5
 20
213.5
 21
213.5
  0
LINE
  8
0
 10
48.5
 11
48.5
 20
213.5
 21
218.5
  0
LINE
  8
0
 10
48.5
 11
53.5
 20
218.5
 21
218.5
  0
LINE
  8
0
 10
53.5
 11
53.5
 20
218.5
 21
213.5
  0
LINE
  8
0
 10
53.5
 11
48.5
 20
213.5
 21
213.5
  0
LINE
  8
0
 10
81.5
 11
81.5
 20
213.5
 21
218.5
  0
LINE
  8
0
 10
81.5
 11
86.5
 20
218.5
 21
218.5
  0
LINE
  8
0
 10
86.5
 11
86.5
 20
218.5
 21
213.5
  0
LINE
  8
0
 10
86.5
 11
81.5
 20
213.5
 21
213.5
  0
LINE
  8
0
 10
15.5
 11
15.5
 20
213.5
 21
218.5
  0
LINE
  8
0
 10
15.5
 11
20.5
 20
218.5
 21
218.5
  0
LINE
  8
0
 10
20.5
 11
20.5
 20
218.5
 21
213.5
  0
LINE
  8
0
 10
20.5
 11
15.5
 20
213.5
 21
213.5
  0
LINE
  8
0
 10
378.5
 11
378.5
 20
213.5
 21
218.5
  0
LINE
  8
0
 10
378.5
 11
383.5
 20
218.5
 21
218.5
  0
LINE
  8
0
 10
383.5
 11
383.5
 20
218.5
 21
213.5
  0
LINE
  8
0
 10
383.5
 11
378.5
 20
213.5
 21
213.5
  0
LINE
  8
0
 10
213.5
 11
213.5
 20
213.5
 21
218.5
  0
LINE
  8
0
 10
213.5
 11
218.5
 20
218.5
 21
218.5
  0
LINE
  8
0
 10
218.5
 11
218.5
 20
218.5
 21
213.5
  0
LINE
  8
0
 10
218.5
 11
213.5
 20
213.5
 21
213.5
  0
LINE
  8
0
 10
345.5
 11
345.5
 20
213.5
 21
218.5
  0
LINE
  8
0
 10
345.5
 11
350.5
 20
218.5
 21
218.5
  0
LINE
  8
0
 10
350.5
 11
350.5
 20
218.5
 21
213.5
  0
LINE
  8
0
 10
350.5
 11
345.5
 20
213.5
 21
213.5
  0
LINE
  8
0
 10
312.5
 11
312.5
 20
213.5
 21
218.5
  0
LINE
  8
0
 10
312.5
 11
317.5
 20
218.5
 21
218.5
  0
LINE
  8
0
 10
317.5
 11
317.5
 20
218.5
 21
213.5
  0
LINE
  8
0
 10
317.5
 11
312.5
 20
213.5
 21
213.5
  0
LINE
  8
0
 10
180.5
 11
180.5
 20
213.5
 21
218.5
  0
LINE
  8
0
 10
180.5
 11
185.5
 20
218.5
 21
218.5
  0
LINE
  8
0
 10
185.5
 11
185.5
 20
218.5
 21
213.5
  0
LINE
  8
0
 10
185.5
 11
180.5
 20
213.5
 21
213.5
  0
LINE
  8
0
 10
114.5
 11
114.5
 20
213.5
 21
218.5
  0
LINE
  8
0
 10
114.5
 11
119.5
 20
218.5
 21
218.5
  0
LINE
  8
0
 10
119.5
 11
119.5
 20
218.5
 21
213.5
  0
LINE
  8
0
 10
119.5
 11
114.5
 20
213.5
 21
213.5
  0
LINE
  8
0
 10
147.5
 11
147.5
 20
213.5
 21
218.5
  0
LINE
  8
0
 10
147.5
 11
152.5
 20
218.5
 21
218.5
  0
LINE
  8
0
 10
152.5
 11
152.5
 20
218.5
 21
213.5
  0
LINE
  8
0
 10
152.5
 11
147.5
 20
213.5
 21
213.5
  0
LINE
  8
0
 10
243.9
 11
243.9
 20
197.9
 21
201.1
  0
LINE
  8
0
 10
243.9
 11
254.1
 20
201.1
 21
201.1
  0
LINE
  8
0
 10
254.1
 11
254.1
 20
201.1
 21
197.9
  0
LINE
  8
0
 10
254.1
 11
243.9
 20
197.9
 21
197.9
  0
LINE
  8
0
 10
342.9
 11
342.9
 20
197.9
 21
201.1
  0
LINE
  8
0
 10
342.9
 11
353.1
 20
201.1
 21
201.1
  0
LINE
  8
0
 10
353.1
 11
353.1
 20
201.1
 21
197.9
  0
LINE
  8
0
 10
353.1
 11
342.9
 20
197.9
 21
197.9
  0
LINE
  8
0
 10
309.9
 11
309.9
 20
197.9
 21
201.1
  0
LINE
  8
0
 10
309.9
 11
320.1
 20
201.1
 21
201.1
  0
LINE
  8
0
 10
320.1
 11
320.1
 20
201.1
 21
197.9
  0
LINE
  8
0
 10
320.1
 11
309.9
 20
197.9
 21
197.9
  0
LINE
  8
0
 10
210.9
 11
210.9
 20
197.9
 21
201.1
  0
LINE
  8
0
 10
210.9
 11
221.1
 20
201.1
 21
201.1
  0
LINE
  8
0
 10
221.1
 11
221.1
 20
201.1
 21
197.9
  0
LINE
  8
0
 10
221.1
 11
210.9
 20
197.9
 21
197.9
  0
LINE
  8
0
 10
78.9
 11
78.9
 20
197.9
 21
201.1
  0
LINE
  8
0
 10
78.9
 11
89.1
 20
201.1
 21
201.1
  0
LINE
  8
0
 10
89.1
 11
89.1
 20
201.1
 21
197.9
  0
LINE
  8
0
 10
89.1
 11
78.9
 20
197.9
 21
197.9
  0
LINE
  8
0
 10
276.9
 11
276.9
 20
197.9
 21
201.1
  0
LINE
  8
0
 10
276.9
 11
287.1
 20
201.1
 21
201.1
  0
LINE
  8
0
 10
287.1
 11
287.1
 20
201.1
 21
197.9
  0
LINE
  8
0
 10
287.1
 11
276.9
 20
197.9
 21
197.9
  0
LINE
  8
0
 10
12.9
 11
12.9
 20
197.9
 21
201.1
  0
LINE
  8
0
 10
12.9
 11
23.1
 20
201.1
 21
201.1
  0
LINE
  8
0
 10
23.1
 11
23.1
 20
201.1
 21
197.9
  0
LINE
  8
0
 10
23.1
 11
12.9
 20
197.9
 21
197.9
  0
LINE
  8
0
 10
111.9
 11
111.9
 20
197.9
 21
201.1
  0
LINE
  8
0
 10
111.9
 11
122.1
 20
201.1
 21
201.1
  0
LINE
  8
0
 10
122.1
 11
122.1
 20
201.1
 21
197.9
  0
LINE
  8
0
 10
122.1
 11
111.9
 20
197.9
 21
197.9
  0
LINE
  8
0
 10
177.9
 11
177.9
 20
197.9
 21
201.1
  0
LINE
  8
0
 10
177.9
 11
188.1
 20
201.1
 21
201.1
  0
LINE
  8
0
 10
188.1
 11
188.1
 20
201.1
 21
197.9
  0
LINE
  8
0
 10
188.1
 11
177.9
 20
197.9
 21
197.9
  0
LINE
  8
0
 10
144.9
 11
144.9
 20
197.9
 21
201.1
  0
LINE
  8
0
 10
144.9
 11
155.1
 20
201.1
 21
201.1
  0
LINE
  8
0
 10
155.1
 11
155.1
 20
201.1
 21
197.9
  0
LINE
  8
0
 10
155.1
 11
144.9
 20
197.9
 21
197.9
  0
LINE
  8
0
 10
375.9
 11
375.9
 20
197.9
 21
201.1
  0
LINE
  8
0
 10
375.9
 11
386.1
 20
201.1
 21
201.1
  0
LINE
  8
0
 10
386.1
 11
386.1
 20
201.1
 21
197.9
  0
LINE
  8
0
 10
386.1
 11
375.9
 20
197.9
 21
197.9
  0
LINE
  8
0
 10
45.9
 11
45.9
 20
197.9
 21
201.1
  0
LINE
  8
0
 10
45.9
 11
56.1
 20
201.1
 21
201.1
  0
LINE
  8
0
 10
56.1
 11
56.1
 20
201.1
 21
197.9
  0
LINE
  8
0
 10
56.1
 11
45.9
 20
197.9
 21
197.9
  0
LINE
  8
0
 10
263.9
 11
263.9
 20
177.9
 21
188.1
  0
LINE
  8
0
 10
263.9
 11
267.1
 20
188.1
 21
188.1
  0
LINE
  8
0
 10
267.1
 11
267.1
 20
188.1
 21
177.9
  0
LINE
  8
0
 10
267.1
 11
263.9
 20
177.9
 21
177.9
  0
LINE
  8
0
 10
329.9
 11
329.9
 20
177.9
 21
188.1
  0
LINE
  8
0
 10
329.9
 11
333.1
 20
188.1
 21
188.1
  0
LINE
  8
0
 10
333.1
 11
333.1
 20
188.1
 21
177.9
  0
LINE
  8
0
 10
333.1
 11
329.9
 20
177.9
 21
177.9
  0
LINE
  8
0
 10
362.9
 11
362.9
 20
177.9
 21
188.1
  0
LINE
  8
0
 10
362.9
 11
366.1
 20
188.1
 21
188.1
  0
LINE
  8
0
 10
366.1
 11
366.1
 20
188.1
 21
177.9
  0
LINE
  8
0
 10
366.1
 11
362.9
 20
177.9
 21
177.9
  0
LINE
  8
0
 10
98.9
 11
98.9
 20
177.9
 21
188.1
  0
LINE
  8
0
 10
98.9
 11
102.1
 20
188.1
 21
188.1
  0
LINE
  8
0
 10
102.1
 11
102.1
 20
188.1
 21
177.9
  0
LINE
  8
0
 10
102.1
 11
98.9
 20
177.9
 21
177.9
  0
LINE
  8
0
 10
197.9
 11
197.9
 20
177.9
 21
188.1
  0
LINE
  8
0
 10
197.9
 11
201.1
 20
188.1
 21
188.1
  0
LINE
  8
0
 10
201.1
 11
201.1
 20
188.1
 21
177.9
  0
LINE
  8
0
 10
201.1
 11
197.9
 20
177.9
 21
177.9
  0
LINE
  8
0
 10
296.9
 11
296.9
 20
177.9
 21
188.1
  0
LINE
  8
0
 10
296.9
 11
300.1
 20
188.1
 21
188.1
  0
LINE
  8
0
 10
300.1
 11
300.1
 20
188.1
 21
177.9
  0
LINE
  8
0
 10
300.1
 11
296.9
 20
177.9
 21
177.9
  0
LINE
  8
0
 10
131.9
 11
131.9
 20
177.9
 21
188.1
  0
LINE
  8
0
 10
131.9
 11
135.1
 20
188.1
 21
188.1
  0
LINE
  8
0
 10
135.1
 11
135.1
 20
188.1
 21
177.9
  0
LINE
  8
0
 10
135.1
 11
131.9
 20
177.9
 21
177.9
  0
LINE
  8
0
 10
65.9
 11
65.9
 20
177.9
 21
188.1
  0
LINE
  8
0
 10
65.9
 11
69.1
 20
188.1
 21
188.1
  0
LINE
  8
0
 10
69.1
 11
69.1
 20
188.1
 21
177.9
  0
LINE
  8
0
 10
69.1
 11
65.9
 20
177.9
 21
177.9
  0
LINE
  8
0
 10
32.9
 11
32.9
 20
177.9
 21
188.1
  0
LINE
  8
0
 10
32.9
 11
36.1
 20
188.1
 21
188.1
  0
LINE
  8
0
 10
36.1
 11
36.1
 20
188.1
 21
177.9
  0
LINE
  8
0
 10
36.1
 11
32.9
 20
177.9
 21
177.9
  0
LINE
  8
0
 10
230.9
 11
230.9
 20
177.9
 21
188.1
  0
LINE
  8
0
 10
230.9
 11
234.1
 20
188.1
 21
188.1
  0
LINE
  8
0
 10
234.1
 11
234.1
 20
188.1
 21
177.9
  0
LINE
  8
0
 10
234.1
 11
230.9
 20
177.9
 21
177.9
  0
LINE
  8
0
 10
164.9
 11
164.9
 20
177.9
 21
188.1
  0
LINE
  8
0
 10
164.9
 11
168.1
 20
188.1
 21
188.1
  0
LINE
  8
0
 10
168.1
 11
168.1
 20
188.1
 21
177.9
  0
LINE
  8
0
 10
168.1
 11
164.9
 20
177.9
 21
177.9
  0
LINE
  8
0
 10
279.5
 11
279.5
 20
180.5
 21
185.5
  0
LINE
  8
0
 10
279.5
 11
284.5
 20
185.5
 21
185.5
  0
LINE
  8
0
 10
284.5
 11
284.5
 20
185.5
 21
180.5
  0
LINE
  8
0
 10
284.5
 11
279.5
 20
180.5
 21
180.5
  0
LINE
  8
0
 10
312.5
 11
312.5
 20
180.5
 21
185.5
  0
LINE
  8
0
 10
312.5
 11
317.5
 20
185.5
 21
185.5
  0
LINE
  8
0
 10
317.5
 11
317.5
 20
185.5
 21
180.5
  0
LINE
  8
0
 10
317.5
 11
312.5
 20
180.5
 21
180.5
  0
LINE
  8
0
 10
81.5
 11
81.5
 20
180.5
 21
185.5
  0
LINE
  8
0
 10
81.5
 11
86.5
 20
185.5
 21
185.5
  0
LINE
  8
0
 10
86.5
 11
86.5
 20
185.5
 21
180.5
  0
LINE
  8
0
 10
86.5
 11
81.5
 20
180.5
 21
180.5
  0
LINE
  8
0
 10
246.5
 11
246.5
 20
180.5
 21
185.5
  0
LINE
  8
0
 10
246.5
 11
251.5
 20
185.5
 21
185.5
  0
LINE
  8
0
 10
251.5
 11
251.5
 20
185.5
 21
180.5
  0
LINE
  8
0
 10
251.5
 11
246.5
 20
180.5
 21
180.5
  0
LINE
  8
0
 10
48.5
 11
48.5
 20
180.5
 21
185.5
  0
LINE
  8
0
 10
48.5
 11
53.5
 20
185.5
 21
185.5
  0
LINE
  8
0
 10
53.5
 11
53.5
 20
185.5
 21
180.5
  0
LINE
  8
0
 10
53.5
 11
48.5
 20
180.5
 21
180.5
  0
LINE
  8
0
 10
180.5
 11
180.5
 20
180.5
 21
185.5
  0
LINE
  8
0
 10
180.5
 11
185.5
 20
185.5
 21
185.5
  0
LINE
  8
0
 10
185.5
 11
185.5
 20
185.5
 21
180.5
  0
LINE
  8
0
 10
185.5
 11
180.5
 20
180.5
 21
180.5
  0
LINE
  8
0
 10
15.5
 11
15.5
 20
180.5
 21
185.5
  0
LINE
  8
0
 10
15.5
 11
20.5
 20
185.5
 21
185.5
  0
LINE
  8
0
 10
20.5
 11
20.5
 20
185.5
 21
180.5
  0
LINE
  8
0
 10
20.5
 11
15.5
 20
180.5
 21
180.5
  0
LINE
  8
0
 10
114.5
 11
114.5
 20
180.5
 21
185.5
  0
LINE
  8
0
 10
114.5
 11
119.5
 20
185.5
 21
185.5
  0
LINE
  8
0
 10
119.5
 11
119.5
 20
185.5
 21
180.5
  0
LINE
  8
0
 10
119.5
 11
114.5
 20
180.5
 21
180.5
  0
LINE
  8
0
 10
378.5
 11
378.5
 20
180.5
 21
185.5
  0
LINE
  8
0
 10
378.5
 11
383.5
 20
185.5
 21
185.5
  0
LINE
  8
0
 10
383.5
 11
383.5
 20
185.5
 21
180.5
  0
LINE
  8
0
 10
383.5
 11
378.5
 20
180.5
 21
180.5
  0
LINE
  8
0
 10
345.5
 11
345.5
 20
180.5
 21
185.5
  0
LINE
  8
0
 10
345.5
 11
350.5
 20
185.5
 21
185.5
  0
LINE
  8
0
 10
350.5
 11
350.5
 20
185.5
 21
180.5
  0
LINE
  8
0
 10
350.5
 11
345.5
 20
180.5
 21
180.5
  0
LINE
  8
0
 10
147.5
 11
147.5
 20
180.5
 21
185.5
  0
LINE
  8
0
 10
147.5
 11
152.5
 20
185.5
 21
185.5
  0
LINE
  8
0
 10
152.5
 11
152.5
 20
185.5
 21
180.5
  0
LINE
  8
0
 10
152.5
 11
147.5
 20
180.5
 21
180.5
  0
LINE
  8
0
 10
213.5
 11
213.5
 20
180.5
 21
185.5
  0
LINE
  8
0
 10
213.5
 11
218.5
 20
185.5
 21
185.5
  0
LINE
  8
0
 10
218.5
 11
218.5
 20
185.5
 21
180.5
  0
LINE
  8
0
 10
218.5
 11
213.5
 20
180.5
 21
180.5
  0
LINE
  8
0
 10
309.9
 11
309.9
 20
164.9
 21
168.1
  0
LINE
  8
0
 10
309.9
 11
320.1
 20
168.1
 21
168.1
  0
LINE
  8
0
 10
320.1
 11
320.1
 20
168.1
 21
164.9
  0
LINE
  8
0
 10
320.1
 11
309.9
 20
164.9
 21
164.9
  0
LINE
  8
0
 10
210.9
 11
210.9
 20
164.9
 21
168.1
  0
LINE
  8
0
 10
210.9
 11
221.1
 20
168.1
 21
168.1
  0
LINE
  8
0
 10
221.1
 11
221.1
 20
168.1
 21
164.9
  0
LINE
  8
0
 10
221.1
 11
210.9
 20
164.9
 21
164.9
  0
LINE
  8
0
 10
342.9
 11
342.9
 20
164.9
 21
168.1
  0
LINE
  8
0
 10
342.9
 11
353.1
 20
168.1
 21
168.1
  0
LINE
  8
0
 10
353.1
 11
353.1
 20
168.1
 21
164.9
  0
LINE
  8
0
 10
353.1
 11
342.9
 20
164.9
 21
164.9
  0
LINE
  8
0
 10
375.9
 11
375.9
 20
164.9
 21
168.1
  0
LINE
  8
0
 10
375.9
 11
386.1
 20
168.1
 21
168.1
  0
LINE
  8
0
 10
386.1
 11
386.1
 20
168.1
 21
164.9
  0
LINE
  8
0
 10
386.1
 11
375.9
 20
164.9
 21
164.9
  0
LINE
  8
0
 10
177.9
 11
177.9
 20
164.9
 21
168.1
  0
LINE
  8
0
 10
177.9
 11
188.1
 20
168.1
 21
168.1
  0
LINE
  8
0
 10
188.1
 11
188.1
 20
168.1
 21
164.9
  0
LINE
  8
0
 10
188.1
 11
177.9
 20
164.9
 21
164.9
  0
LINE
  8
0
 10
12.9
 11
12.9
 20
164.9
 21
168.1
  0
LINE
  8
0
 10
12.9
 11
23.1
 20
168.1
 21
168.1
  0
LINE
  8
0
 10
23.1
 11
23.1
 20
168.1
 21
164.9
  0
LINE
  8
0
 10
23.1
 11
12.9
 20
164.9
 21
164.9
  0
LINE
  8
0
 10
276.9
 11
276.9
 20
164.9
 21
168.1
  0
LINE
  8
0
 10
276.9
 11
287.1
 20
168.1
 21
168.1
  0
LINE
  8
0
 10
287.1
 11
287.1
 20
168.1
 21
164.9
  0
LINE
  8
0
 10
287.1
 11
276.9
 20
164.9
 21
164.9
  0
LINE
  8
0
 10
111.9
 11
111.9
 20
164.9
 21
168.1
  0
LINE
  8
0
 10
111.9
 11
122.1
 20
168.1
 21
168.1
  0
LINE
  8
0
 10
122.1
 11
122.1
 20
168.1
 21
164.9
  0
LINE
  8
0
 10
122.1
 11
111.9
 20
164.9
 21
164.9
  0
LINE
  8
0
 10
144.9
 11
144.9
 20
164.9
 21
168.1
  0
LINE
  8
0
 10
144.9
 11
155.1
 20
168.1
 21
168.1
  0
LINE
  8
0
 10
155.1
 11
155.1
 20
168.1
 21
164.9
  0
LINE
  8
0
 10
155.1
 11
144.9
 20
164.9
 21
164.9
  0
LINE
  8
0
 10
78.9
 11
78.9
 20
164.9
 21
168.1
  0
LINE
  8
0
 10
78.9
 11
89.1
 20
168.1
 21
168.1
  0
LINE
  8
0
 10
89.1
 11
89.1
 20
168.1
 21
164.9
  0
LINE
  8
0
 10
89.1
 11
78.9
 20
164.9
 21
164.9
  0
LINE
  8
0
 10
243.9
 11
243.9
 20
164.9
 21
168.1
  0
LINE
  8
0
 10
243.9
 11
254.1
 20
168.1
 21
168.1
  0
LINE
  8
0
 10
254.1
 11
254.1
 20
168.1
 21
164.9
  0
LINE
  8
0
 10
254.1
 11
243.9
 20
164.9
 21
164.9
  0
LINE
  8
0
 10
45.9
 11
45.9
 20
164.9
 21
168.1
  0
LINE
  8
0
 10
45.9
 11
56.1
 20
168.1
 21
168.1
  0
LINE
  8
0
 10
56.1
 11
56.1
 20
168.1
 21
164.9
  0
LINE
  8
0
 10
56.1
 11
45.9
 20
164.9
 21
164.9
  0
LINE
  8
0
 10
329.9
 11
329.9
 20
144.9
 21
155.1
  0
LINE
  8
0
 10
329.9
 11
333.1
 20
155.1
 21
155.1
  0
LINE
  8
0
 10
333.1
 11
333.1
 20
155.1
 21
144.9
  0
LINE
  8
0
 10
333.1
 11
329.9
 20
144.9
 21
144.9
  0
LINE
  8
0
 10
296.9
 11
296.9
 20
144.9
 21
155.1
  0
LINE
  8
0
 10
296.9
 11
300.1
 20
155.1
 21
155.1
  0
LINE
  8
0
 10
300.1
 11
300.1
 20
155.1
 21
144.9
  0
LINE
  8
0
 10
300.1
 11
296.9
 20
144.9
 21
144.9
  0
LINE
  8
0
 10
197.9
 11
197.9
 20
144.9
 21
155.1
  0
LINE
  8
0
 10
197.9
 11
201.1
 20
155.1
 21
155.1
  0
LINE
  8
0
 10
201.1
 11
201.1
 20
155.1
 21
144.9
  0
LINE
  8
0
 10
201.1
 11
197.9
 20
144.9
 21
144.9
  0
LINE
  8
0
 10
263.9
 11
263.9
 20
144.9
 21
155.1
  0
LINE
  8
0
 10
263.9
 11
267.1
 20
155.1
 21
155.1
  0
LINE
  8
0
 10
267.1
 11
267.1
 20
155.1
 21
144.9
  0
LINE
  8
0
 10
267.1
 11
263.9
 20
144.9
 21
144.9
  0
LINE
  8
0
 10
164.9
 11
164.9
 20
144.9
 21
155.1
  0
LINE
  8
0
 10
164.9
 11
168.1
 20
155.1
 21
155.1
  0
LINE
  8
0
 10
168.1
 11
168.1
 20
155.1
 21
144.9
  0
LINE
  8
0
 10
168.1
 11
164.9
 20
144.9
 21
144.9
  0
LINE
  8
0
 10
230.9
 11
230.9
 20
144.9
 21
155.1
  0
LINE
  8
0
 10
230.9
 11
234.1
 20
155.1
 21
155.1
  0
LINE
  8
0
 10
234.1
 11
234.1
 20
155.1
 21
144.9
  0
LINE
  8
0
 10
234.1
 11
230.9
 20
144.9
 21
144.9
  0
LINE
  8
0
 10
65.9
 11
65.9
 20
144.9
 21
155.1
  0
LINE
  8
0
 10
65.9
 11
69.1
 20
155.1
 21
155.1
  0
LINE
  8
0
 10
69.1
 11
69.1
 20
155.1
 21
144.9
  0
LINE
  8
0
 10
69.1
 11
65.9
 20
144.9
 21
144.9
  0
LINE
  8
0
 10
362.9
 11
362.9
 20
144.9
 21
155.1
  0
LINE
  8
0
 10
362.9
 11
366.1
 20
155.1
 21
155.1
  0
LINE
  8
0
 10
366.1
 11
366.1
 20
155.1
 21
144.9
  0
LINE
  8
0
 10
366.1
 11
362.9
 20
144.9
 21
144.9
  0
LINE
  8
0
 10
98.9
 11
98.9
 20
144.9
 21
155.1
  0
LINE
  8
0
 10
98.9
 11
102.1
 20
155.1
 21
155.1
  0
LINE
  8
0
 10
102.1
 11
102.1
 20
155.1
 21
144.9
  0
LINE
  8
0
 10
102.1
 11
98.9
 20
144.9
 21
144.9
  0
LINE
  8
0
 10
131.9
 11
131.9
 20
144.9
 21
155.1
  0
LINE
  8
0
 10
131.9
 11
135.1
 20
155.1
 21
155.1
  0
LINE
  8
0
 10
135.1
 11
135.1
 20
155.1
 21
144.9
  0
LINE
  8
0
 10
135.1
 11
131.9
 20
144.9
 21
144.9
  0
LINE
  8
0
 10
32.9
 11
32.9
 20
144.9
 21
155.1
  0
LINE
  8
0
 10
32.9
 11
36.1
 20
155.1
 21
155.1
  0
LINE
  8
0
 10
36.1
 11
36.1
 20
155.1
 21
144.9
  0
LINE
  8
0
 10
36.1
 11
32.9
 20
144.9
 21
144.9
  0
LINE
  8
0
 10
312.5
 11
312.5
 20
147.5
 21
152.5
  0
LINE
  8
0
 10
312.5
 11
317.5
 20
152.5
 21
152.5
  0
LINE
  8
0
 10
317.5
 11
317.5
 20
152.5
 21
147.5
  0
LINE
  8
0
 10
317.5
 11
312.5
 20
147.5
 21
147.5
  0
LINE
  8
0
 10
213.5
 11
213.5
 20
147.5
 21
152.5
  0
LINE
  8
0
 10
213.5
 11
218.5
 20
152.5
 21
152.5
  0
LINE
  8
0
 10
218.5
 11
218.5
 20
152.5
 21
147.5
  0
LINE
  8
0
 10
218.5
 11
213.5
 20
147.5
 21
147.5
  0
LINE
  8
0
 10
378.5
 11
378.5
 20
147.5
 21
152.5
  0
LINE
  8
0
 10
378.5
 11
383.5
 20
152.5
 21
152.5
  0
LINE
  8
0
 10
383.5
 11
383.5
 20
152.5
 21
147.5
  0
LINE
  8
0
 10
383.5
 11
378.5
 20
147.5
 21
147.5
  0
LINE
  8
0
 10
345.5
 11
345.5
 20
147.5
 21
152.5
  0
LINE
  8
0
 10
345.5
 11
350.5
 20
152.5
 21
152.5
  0
LINE
  8
0
 10
350.5
 11
350.5
 20
152.5
 21
147.5
  0
LINE
  8
0
 10
350.5
 11
345.5
 20
147.5
 21
147.5
  0
LINE
  8
0
 10
246.5
 11
246.5
 20
147.5
 21
152.5
  0
LINE
  8
0
 10
246.5
 11
251.5
 20
152.5
 21
152.5
  0
LINE
  8
0
 10
251.5
 11
251.5
 20
152.5
 21
147.5
  0
LINE
  8
0
 10
251.5
 11
246.5
 20
147.5
 21
147.5
  0
LINE
  8
0
 10
180.5
 11
180.5
 20
147.5
 21
152.5
  0
LINE
  8
0
 10
180.5
 11
185.5
 20
152.5
 21
152.5
  0
LINE
  8
0
 10
185.5
 11
185.5
 20
152.5
 21
147.5
  0
LINE
  8
0
 10
185.5
 11
180.5
 20
147.5
 21
147.5
  0
LINE
  8
0
 10
15.5
 11
15.5
 20
147.5
 21
152.5
  0
LINE
  8
0
 10
15.5
 11
20.5
 20
152.5
 21
152.5
  0
LINE
  8
0
 10
20.5
 11
20.5
 20
152.5
 21
147.5
  0
LINE
  8
0
 10
20.5
 11
15.5
 20
147.5
 21
147.5
  0
LINE
  8
0
 10
279.5
 11
279.5
 20
147.5
 21
152.5
  0
LINE
  8
0
 10
279.5
 11
284.5
 20
152.5
 21
152.5
  0
LINE
  8
0
 10
284.5
 11
284.5
 20
152.5
 21
147.5
  0
LINE
  8
0
 10
284.5
 11
279.5
 20
147.5
 21
147.5
  0
LINE
  8
0
 10
147.5
 11
147.5
 20
147.5
 21
152.5
  0
LINE
  8
0
 10
147.5
 11
152.5
 20
152.5
 21
152.5
  0
LINE
  8
0
 10
152.5
 11
152.5
 20
152.5
 21
147.5
  0
LINE
  8
0
 10
152.5
 11
147.5
 20
147.5
 21
147.5
  0
LINE
  8
0
 10
114.5
 11
114.5
 20
147.5
 21
152.5
  0
LINE
  8
0
 10
114.5
 11
119.5
 20
152.5
 21
152.5
  0
LINE
  8
0
 10
119.5
 11
119.5
 20
152.5
 21
147.5
  0
LINE
  8
0
 10
119.5
 11
114.5
 20
147.5
 21
147.5
  0
LINE
  8
0
 10
81.5
 11
81.5
 20
147.5
 21
152.5
  0
LINE
  8
0
 10
81.5
 11
86.5
 20
152.5
 21
152.5
  0
LINE
  8
0
 10
86.5
 11
86.5
 20
152.5
 21
147.5
  0
LINE
  8
0
 10
86.5
 11
81.5
 20
147.5
 21
147.5
  0
LINE
  8
0
 10
48.5
 11
48.5
 20
147.5
 21
152.5
  0
LINE
  8
0
 10
48.5
 11
53.5
 20
152.5
 21
152.5
  0
LINE
  8
0
 10
53.5
 11
53.5
 20
152.5
 21
147.5
  0
LINE
  8
0
 10
53.5
 11
48.5
 20
147.5
 21
147.5
  0
LINE
  8
0
 10
309.9
 11
309.9
 20
131.9
 21
135.1
  0
LINE
  8
0
 10
309.9
 11
320.1
 20
135.1
 21
135.1
  0
LINE
  8
0
 10
320.1
 11
320.1
 20
135.1
 21
131.9
  0
LINE
  8
0
 10
320.1
 11
309.9
 20
131.9
 21
131.9
  0
LINE
  8
0
 10
243.9
 11
243.9
 20
131.9
 21
135.1
  0
LINE
  8
0
 10
243.9
 11
254.1
 20
135.1
 21
135.1
  0
LINE
  8
0
 10
254.1
 11
254.1
 20
135.1
 21
131.9
  0
LINE
  8
0
 10
254.1
 11
243.9
 20
131.9
 21
131.9
  0
LINE
  8
0
 10
375.9
 11
375.9
 20
131.9
 21
135.1
  0
LINE
  8
0
 10
375.9
 11
386.1
 20
135.1
 21
135.1
  0
LINE
  8
0
 10
386.1
 11
386.1
 20
135.1
 21
131.9
  0
LINE
  8
0
 10
386.1
 11
375.9
 20
131.9
 21
131.9
  0
LINE
  8
0
 10
276.9
 11
276.9
 20
131.9
 21
135.1
  0
LINE
  8
0
 10
276.9
 11
287.1
 20
135.1
 21
135.1
  0
LINE
  8
0
 10
287.1
 11
287.1
 20
135.1
 21
131.9
  0
LINE
  8
0
 10
287.1
 11
276.9
 20
131.9
 21
131.9
  0
LINE
  8
0
 10
210.9
 11
210.9
 20
131.9
 21
135.1
  0
LINE
  8
0
 10
210.9
 11
221.1
 20
135.1
 21
135.1
  0
LINE
  8
0
 10
221.1
 11
221.1
 20
135.1
 21
131.9
  0
LINE
  8
0
 10
221.1
 11
210.9
 20
131.9
 21
131.9
  0
LINE
  8
0
 10
342.9
 11
342.9
 20
131.9
 21
135.1
  0
LINE
  8
0
 10
342.9
 11
353.1
 20
135.1
 21
135.1
  0
LINE
  8
0
 10
353.1
 11
353.1
 20
135.1
 21
131.9
  0
LINE
  8
0
 10
353.1
 11
342.9
 20
131.9
 21
131.9
  0
LINE
  8
0
 10
144.9
 11
144.9
 20
131.9
 21
135.1
  0
LINE
  8
0
 10
144.9
 11
155.1
 20
135.1
 21
135.1
  0
LINE
  8
0
 10
155.1
 11
155.1
 20
135.1
 21
131.9
  0
LINE
  8
0
 10
155.1
 11
144.9
 20
131.9
 21
131.9
  0
LINE
  8
0
 10
12.9
 11
12.9
 20
131.9
 21
135.1
  0
LINE
  8
0
 10
12.9
 11
23.1
 20
135.1
 21
135.1
  0
LINE
  8
0
 10
23.1
 11
23.1
 20
135.1
 21
131.9
  0
LINE
  8
0
 10
23.1
 11
12.9
 20
131.9
 21
131.9
  0
LINE
  8
0
 10
78.9
 11
78.9
 20
131.9
 21
135.1
  0
LINE
  8
0
 10
78.9
 11
89.1
 20
135.1
 21
135.1
  0
LINE
  8
0
 10
89.1
 11
89.1
 20
135.1
 21
131.9
  0
LINE
  8
0
 10
89.1
 11
78.9
 20
131.9
 21
131.9
  0
LINE
  8
0
 10
111.9
 11
111.9
 20
131.9
 21
135.1
  0
LINE
  8
0
 10
111.9
 11
122.1
 20
135.1
 21
135.1
  0
LINE
  8
0
 10
122.1
 11
122.1
 20
135.1
 21
131.9
  0
LINE
  8
0
 10
122.1
 11
111.9
 20
131.9
 21
131.9
  0
LINE
  8
0
 10
177.9
 11
177.9
 20
131.9
 21
135.1
  0
LINE
  8
0
 10
177.9
 11
188.1
 20
135.1
 21
135.1
  0
LINE
  8
0
 10
188.1
 11
188.1
 20
135.1
 21
131.9
  0
LINE
  8
0
 10
188.1
 11
177.9
 20
131.9
 21
131.9
  0
LINE
  8
0
 10
45.9
 11
45.9
 20
131.9
 21
135.1
  0
LINE
  8
0
 10
45.9
 11
56.1
 20
135.1
 21
135.1
  0
LINE
  8
0
 10
56.1
 11
56.1
 20
135.1
 21
131.9
  0
LINE
  8
0
 10
56.1
 11
45.9
 20
131.9
 21
131.9
  0
LINE
  8
0
 10
164.9
 11
164.9
 20
111.9
 21
122.1
  0
LINE
  8
0
 10
164.9
 11
168.1
 20
122.1
 21
122.1
  0
LINE
  8
0
 10
168.1
 11
168.1
 20
122.1
 21
111.9
  0
LINE
  8
0
 10
168.1
 11
164.9
 20
111.9
 21
111.9
  0
LINE
  8
0
 10
263.9
 11
263.9
 20
111.9
 21
122.1
  0
LINE
  8
0
 10
263.9
 11
267.1
 20
122.1
 21
122.1
  0
LINE
  8
0
 10
267.1
 11
267.1
 20
122.1
 21
111.9
  0
LINE
  8
0
 10
267.1
 11
263.9
 20
111.9
 21
111.9
  0
LINE
  8
0
 10
197.9
 11
197.9
 20
111.9
 21
122.1
  0
LINE
  8
0
 10
197.9
 11
201.1
 20
122.1
 21
122.1
  0
LINE
  8
0
 10
201.1
 11
201.1
 20
122.1
 21
111.9
  0
LINE
  8
0
 10
201.1
 11
197.9
 20
111.9
 21
111.9
  0
LINE
  8
0
 10
230.9
 11
230.9
 20
111.9
 21
122.1
  0
LINE
  8
0
 10
230.9
 11
234.1
 20
122.1
 21
122.1
  0
LINE
  8
0
 10
234.1
 11
234.1
 20
122.1
 21
111.9
  0
LINE
  8
0
 10
234.1
 11
230.9
 20
111.9
 21
111.9
  0
LINE
  8
0
 10
296.9
 11
296.9
 20
111.9
 21
122.1
  0
LINE
  8
0
 10
296.9
 11
300.1
 20
122.1
 21
122.1
  0
LINE
  8
0
 10
300.1
 11
300.1
 20
122.1
 21
111.9
  0
LINE
  8
0
 10
300.1
 11
296.9
 20
111.9
 21
111.9
  0
LINE
  8
0
 10
362.9
 11
362.9
 20
111.9
 21
122.1
  0
LINE
  8
0
 10
362.9
 11
366.1
 20
122.1
 21
122.1
  0
LINE
  8
0
 10
366.1
 11
366.1
 20
122.1
 21
111.9
  0
LINE
  8
0
 10
366.1
 11
362.9
 20
111.9
 21
111.9
  0
LINE
  8
0
 10
131.9
 11
131.9
 20
111.9
 21
122.1
  0
LINE
  8
0
 10
131.9
 11
135.1
 20
122.1
 21
122.1
  0
LINE
  8
0
 10
135.1
 11
135.1
 20
122.1
 21
111.9
  0
LINE
  8
0
 10
135.1
 11
131.9
 20
111.9
 21
111.9
  0
LINE
  8
0
 10
329.9
 11
329.9
 20
111.9
 21
122.1
  0
LINE
  8
0
 10
329.9
 11
333.1
 20
122.1
 21
122.1
  0
LINE
  8
0
 10
333.1
 11
333.1
 20
122.1
 21
111.9
  0
LINE
  8
0
 10
333.1
 11
329.9
 20
111.9
 21
111.9
  0
LINE
  8
0
 10
98.9
 11
98.9
 20
111.9
 21
122.1
  0
LINE
  8
0
 10
98.9
 11
102.1
 20
122.1
 21
122.1
  0
LINE
  8
0
 10
102.1
 11
102.1
 20
122.1
 21
111.9
  0
LINE
  8
0
 10
102.1
 11
98.9
 20
111.9
 21
111.9
  0
LINE
  8
0
 10
65.9
 11
65.9
 20
111.9
 21
122.1
  0
LINE
  8
0
 10
65.9
 11
69.1
 20
122.1
 21
122.1
  0
LINE
  8
0
 10
69.1
 11
69.1
 20
122.1
 21
111.9
  0
LINE
  8
0
 10
69.1
 11
65.9
 20
111.9
 21
111.9
  0
LINE
  8
0
 10
32.9
 11
32.9
 20
111.9
 21
122.1
  0
LINE
  8
0
 10
32.9
 11
36.1
 20
122.1
 21
122.1
  0
LINE
  8
0
 10
36.1
 11
36.1
 20
122.1
 21
111.9
  0
LINE
  8
0
 10
36.1
 11
32.9
 20
111.9
 21
111.9
  0
LINE
  8
0
 10
213.5
 11
213.5
 20
114.5
 21
119.5
  0
LINE
  8
0
 10
213.5
 11
218.5
 20
119.5
 21
119.5
  0
LINE
  8
0
 10
218.5
 11
218.5
 20
119.5
 21
114.5
  0
LINE
  8
0
 10
218.5
 11
213.5
 20
114.5
 21
114.5
  0
LINE
  8
0
 10
246.5
 11
246.5
 20
114.5
 21
119.5
  0
LINE
  8
0
 10
246.5
 11
251.5
 20
119.5
 21
119.5
  0
LINE
  8
0
 10
251.5
 11
251.5
 20
119.5
 21
114.5
  0
LINE
  8
0
 10
251.5
 11
246.5
 20
114.5
 21
114.5
  0
LINE
  8
0
 10
279.5
 11
279.5
 20
114.5
 21
119.5
  0
LINE
  8
0
 10
279.5
 11
284.5
 20
119.5
 21
119.5
  0
LINE
  8
0
 10
284.5
 11
284.5
 20
119.5
 21
114.5
  0
LINE
  8
0
 10
284.5
 11
279.5
 20
114.5
 21
114.5
  0
LINE
  8
0
 10
312.5
 11
312.5
 20
114.5
 21
119.5
  0
LINE
  8
0
 10
312.5
 11
317.5
 20
119.5
 21
119.5
  0
LINE
  8
0
 10
317.5
 11
317.5
 20
119.5
 21
114.5
  0
LINE
  8
0
 10
317.5
 11
312.5
 20
114.5
 21
114.5
  0
LINE
  8
0
 10
147.5
 11
147.5
 20
114.5
 21
119.5
  0
LINE
  8
0
 10
147.5
 11
152.5
 20
119.5
 21
119.5
  0
LINE
  8
0
 10
152.5
 11
152.5
 20
119.5
 21
114.5
  0
LINE
  8
0
 10
152.5
 11
147.5
 20
114.5
 21
114.5
  0
LINE
  8
0
 10
48.5
 11
48.5
 20
114.5
 21
119.5
  0
LINE
  8
0
 10
48.5
 11
53.5
 20
119.5
 21
119.5
  0
LINE
  8
0
 10
53.5
 11
53.5
 20
119.5
 21
114.5
  0
LINE
  8
0
 10
53.5
 11
48.5
 20
114.5
 21
114.5
  0
LINE
  8
0
 10
180.5
 11
180.5
 20
114.5
 21
119.5
  0
LINE
  8
0
 10
180.5
 11
185.5
 20
119.5
 21
119.5
  0
LINE
  8
0
 10
185.5
 11
185.5
 20
119.5
 21
114.5
  0
LINE
  8
0
 10
185.5
 11
180.5
 20
114.5
 21
114.5
  0
LINE
  8
0
 10
81.5
 11
81.5
 20
114.5
 21
119.5
  0
LINE
  8
0
 10
81.5
 11
86.5
 20
119.5
 21
119.5
  0
LINE
  8
0
 10
86.5
 11
86.5
 20
119.5
 21
114.5
  0
LINE
  8
0
 10
86.5
 11
81.5
 20
114.5
 21
114.5
  0
LINE
  8
0
 10
345.5
 11
345.5
 20
114.5
 21
119.5
  0
LINE
  8
0
 10
345.5
 11
350.5
 20
119.5
 21
119.5
  0
LINE
  8
0
 10
350.5
 11
350.5
 20
119.5
 21
114.5
  0
LINE
  8
0
 10
350.5
 11
345.5
 20
114.5
 21
114.5
  0
LINE
  8
0
 10
378.5
 11
378.5
 20
114.5
 21
119.5
  0
LINE
  8
0
 10
378.5
 11
383.5
 20
119.5
 21
119.5
  0
LINE
  8
0
 10
383.5
 11
383.5
 20
119.5
 21
114.5
  0
LINE
  8
0
 10
383.5
 11
378.5
 20
114.5
 21
114.5
  0
LINE
  8
0
 10
114.5
 11
114.5
 20
114.5
 21
119.5
  0
LINE
  8
0
 10
114.5
 11
119.5
 20
119.5
 21
119.5
  0
LINE
  8
0
 10
119.5
 11
119.5
 20
119.5
 21
114.5
  0
LINE
  8
0
 10
119.5
 11
114.5
 20
114.5
 21
114.5
  0
LINE
  8
0
 10
15.5
 11
15.5
 20
114.5
 21
119.5
  0
LINE
  8
0
 10
15.5
 11
20.5
 20
119.5
 21
119.5
  0
LINE
  8
0
 10
20.5
 11
20.5
 20
119.5
 21
114.5
  0
LINE
  8
0
 10
20.5
 11
15.5
 20
114.5
 21
114.5
  0
LINE
  8
0
 10
342.9
 11
342.9
 20
98.9
 21
102.1
  0
LINE
  8
0
 10
342.9
 11
353.1
 20
102.1
 21
102.1
  0
LINE
  8
0
 10
353.1
 11
353.1
 20
102.1
 21
98.9
  0
LINE
  8
0
 10
353.1
 11
342.9
 20
98.9
 21
98.9
  0
LINE
  8
0
 10
276.9
 11
276.9
 20
98.9
 21
102.1
  0
LINE
  8
0
 10
276.9
 11
287.1
 20
102.1
 21
102.1
  0
LINE
  8
0
 10
287.1
 11
287.1
 20
102.1
 21
98.9
  0
LINE
  8
0
 10
287.1
 11
276.9
 20
98.9
 21
98.9
  0
LINE
  8
0
 10
177.9
 11
177.9
 20
98.9
 21
102.1
  0
LINE
  8
0
 10
177.9
 11
188.1
 20
102.1
 21
102.1
  0
LINE
  8
0
 10
188.1
 11
188.1
 20
102.1
 21
98.9
  0
LINE
  8
0
 10
188.1
 11
177.9
 20
98.9
 21
98.9
  0
LINE
  8
0
 10
210.9
 11
210.9
 20
98.9
 21
102.1
  0
LINE
  8
0
 10
210.9
 11
221.1
 20
102.1
 21
102.1
  0
LINE
  8
0
 10
221.1
 11
221.1
 20
102.1
 21
98.9
  0
LINE
  8
0
 10
221.1
 11
210.9
 20
98.9
 21
98.9
  0
LINE
  8
0
 10
375.9
 11
375.9
 20
98.9
 21
102.1
  0
LINE
  8
0
 10
375.9
 11
386.1
 20
102.1
 21
102.1
  0
LINE
  8
0
 10
386.1
 11
386.1
 20
102.1
 21
98.9
  0
LINE
  8
0
 10
386.1
 11
375.9
 20
98.9
 21
98.9
  0
LINE
  8
0
 10
144.9
 11
144.9
 20
98.9
 21
102.1
  0
LINE
  8
0
 10
144.9
 11
155.1
 20
102.1
 21
102.1
  0
LINE
  8
0
 10
155.1
 11
155.1
 20
102.1
 21
98.9
  0
LINE
  8
0
 10
155.1
 11
144.9
 20
98.9
 21
98.9
  0
LINE
  8
0
 10
45.9
 11
45.9
 20
98.9
 21
102.1
  0
LINE
  8
0
 10
45.9
 11
56.1
 20
102.1
 21
102.1
  0
LINE
  8
0
 10
56.1
 11
56.1
 20
102.1
 21
98.9
  0
LINE
  8
0
 10
56.1
 11
45.9
 20
98.9
 21
98.9
  0
LINE
  8
0
 10
111.9
 11
111.9
 20
98.9
 21
102.1
  0
LINE
  8
0
 10
111.9
 11
122.1
 20
102.1
 21
102.1
  0
LINE
  8
0
 10
122.1
 11
122.1
 20
102.1
 21
98.9
  0
LINE
  8
0
 10
122.1
 11
111.9
 20
98.9
 21
98.9
  0
LINE
  8
0
 10
78.9
 11
78.9
 20
98.9
 21
102.1
  0
LINE
  8
0
 10
78.9
 11
89.1
 20
102.1
 21
102.1
  0
LINE
  8
0
 10
89.1
 11
89.1
 20
102.1
 21
98.9
  0
LINE
  8
0
 10
89.1
 11
78.9
 20
98.9
 21
98.9
  0
LINE
  8
0
 10
12.9
 11
12.9
 20
98.9
 21
102.1
  0
LINE
  8
0
 10
12.9
 11
23.1
 20
102.1
 21
102.1
  0
LINE
  8
0
 10
23.1
 11
23.1
 20
102.1
 21
98.9
  0
LINE
  8
0
 10
23.1
 11
12.9
 20
98.9
 21
98.9
  0
LINE
  8
0
 10
243.9
 11
243.9
 20
98.9
 21
102.1
  0
LINE
  8
0
 10
243.9
 11
254.1
 20
102.1
 21
102.1
  0
LINE
  8
0
 10
254.1
 11
254.1
 20
102.1
 21
98.9
  0
LINE
  8
0
 10
254.1
 11
243.9
 20
98.9
 21
98.9
  0
LINE
  8
0
 10
309.9
 11
309.9
 20
98.9
 21
102.1
  0
LINE
  8
0
 10
309.9
 11
320.1
 20
102.1
 21
102.1
  0
LINE
  8
0
 10
320.1
 11
320.1
 20
102.1
 21
98.9
  0
LINE
  8
0
 10
320.1
 11
309.9
 20
98.9
 21
98.9
  0
LINE
  8
0
 10
362.9
 11
362.9
 20
78.9
 21
89.1
  0
LINE
  8
0
 10
362.9
 11
366.1
 20
89.1
 21
89.1
  0
LINE
  8
0
 10
366.1
 11
366.1
 20
89.1
 21
78.9
  0
LINE
  8
0
 10
366.1
 11
362.9
 20
78.9
 21
78.9
  0
LINE
  8
0
 10
197.9
 11
197.9
 20
78.9
 21
89.1
  0
LINE
  8
0
 10
197.9
 11
201.1
 20
89.1
 21
89.1
  0
LINE
  8
0
 10
201.1
 11
201.1
 20
89.1
 21
78.9
  0
LINE
  8
0
 10
201.1
 11
197.9
 20
78.9
 21
78.9
  0
LINE
  8
0
 10
263.9
 11
263.9
 20
78.9
 21
89.1
  0
LINE
  8
0
 10
263.9
 11
267.1
 20
89.1
 21
89.1
  0
LINE
  8
0
 10
267.1
 11
267.1
 20
89.1
 21
78.9
  0
LINE
  8
0
 10
267.1
 11
263.9
 20
78.9
 21
78.9
  0
LINE
  8
0
 10
230.9
 11
230.9
 20
78.9
 21
89.1
  0
LINE
  8
0
 10
230.9
 11
234.1
 20
89.1
 21
89.1
  0
LINE
  8
0
 10
234.1
 11
234.1
 20
89.1
 21
78.9
  0
LINE
  8
0
 10
234.1
 11
230.9
 20
78.9
 21
78.9
  0
LINE
  8
0
 10
164.9
 11
164.9
 20
78.9
 21
89.1
  0
LINE
  8
0
 10
164.9
 11
168.1
 20
89.1
 21
89.1
  0
LINE
  8
0
 10
168.1
 11
168.1
 20
89.1
 21
78.9
  0
LINE
  8
0
 10
168.1
 11
164.9
 20
78.9
 21
78.9
  0
LINE
  8
0
 10
329.9
 11
329.9
 20
78.9
 21
89.1
  0
LINE
  8
0
 10
329.9
 11
333.1
 20
89.1
 21
89.1
  0
LINE
  8
0
 10
333.1
 11
333.1
 20
89.1
 21
78.9
  0
LINE
  8
0
 10
333.1
 11
329.9
 20
78.9
 21
78.9
  0
LINE
  8
0
 10
296.9
 11
296.9
 20
78.9
 21
89.1
  0
LINE
  8
0
 10
296.9
 11
300.1
 20
89.1
 21
89.1
  0
LINE
  8
0
 10
300.1
 11
300.1
 20
89.1
 21
78.9
  0
LINE
  8
0
 10
300.1
 11
296.9
 20
78.9
 21
78.9
  0
LINE
  8
0
 10
131.9
 11
131.9
 20
78.9
 21
89.1
  0
LINE
  8
0
 10
131.9
 11
135.1
 20
89.1
 21
89.1
  0
LINE
  8
0
 10
135.1
 11
135.1
 20
89.1
 21
78.9
  0
LINE
  8
0
 10
135.1
 11
131.9
 20
78.9
 21
78.9
  0
LINE
  8
0
 10
65.9
 11
65.9
 20
78.9
 21
89.1
  0
LINE
  8
0
 10
65.9
 11
69.1
 20
89.1
 21
89.1
  0
LINE
  8
0
 10
69.1
 11
69.1
 20
89.1
 21
78.9
  0
LINE
  8
0
 10
69.1
 11
65.9
 20
78.9
 21
78.9
  0
LINE
  8
0
 10
32.9
 11
32.9
 20
78.9
 21
89.1
  0
LINE
  8
0
 10
32.9
 11
36.1
 20
89.1
 21
89.1
  0
LINE
  8
0
 10
36.1
 11
36.1
 20
89.1
 21
78.9
  0
LINE
  8
0
 10
36.1
 11
32.9
 20
78.9
 21
78.9
  0
LINE
  8
0
 10
98.9
 11
98.9
 20
78.9
 21
89.1
  0
LINE
  8
0
 10
98.9
 11
102.1
 20
89.1
 21
89.1
  0
LINE
  8
0
 10
102.1
 11
102.1
 20
89.1
 21
78.9
  0
LINE
  8
0
 10
102.1
 11
98.9
 20
78.9
 21
78.9
  0
LINE
  8
0
 10
147.5
 11
147.5
 20
81.5
 21
86.5
  0
LINE
  8
0
 10
147.5
 11
152.5
 20
86.5
 21
86.5
  0
LINE
  8
0
 10
152.5
 11
152.5
 20
86.5
 21
81.5
  0
LINE
  8
0
 10
152.5
 11
147.5
 20
81.5
 21
81.5
  0
LINE
  8
0
 10
345.5
 11
345.5
 20
81.5
 21
86.5
  0
LINE
  8
0
 10
345.5
 11
350.5
 20
86.5
 21
86.5
  0
LINE
  8
0
 10
350.5
 11
350.5
 20
86.5
 21
81.5
  0
LINE
  8
0
 10
350.5
 11
345.5
 20
81.5
 21
81.5
  0
LINE
  8
0
 10
312.5
 11
312.5
 20
81.5
 21
86.5
  0
LINE
  8
0
 10
312.5
 11
317.5
 20
86.5
 21
86.5
  0
LINE
  8
0
 10
317.5
 11
317.5
 20
86.5
 21
81.5
  0
LINE
  8
0
 10
317.5
 11
312.5
 20
81.5
 21
81.5
  0
LINE
  8
0
 10
378.5
 11
378.5
 20
81.5
 21
86.5
  0
LINE
  8
0
 10
378.5
 11
383.5
 20
86.5
 21
86.5
  0
LINE
  8
0
 10
383.5
 11
383.5
 20
86.5
 21
81.5
  0
LINE
  8
0
 10
383.5
 11
378.5
 20
81.5
 21
81.5
  0
LINE
  8
0
 10
114.5
 11
114.5
 20
81.5
 21
86.5
  0
LINE
  8
0
 10
114.5
 11
119.5
 20
86.5
 21
86.5
  0
LINE
  8
0
 10
119.5
 11
119.5
 20
86.5
 21
81.5
  0
LINE
  8
0
 10
119.5
 11
114.5
 20
81.5
 21
81.5
  0
LINE
  8
0
 10
180.5
 11
180.5
 20
81.5
 21
86.5
  0
LINE
  8
0
 10
180.5
 11
185.5
 20
86.5
 21
86.5
  0
LINE
  8
0
 10
185.5
 11
185.5
 20
86.5
 21
81.5
  0
LINE
  8
0
 10
185.5
 11
180.5
 20
81.5
 21
81.5
  0
LINE
  8
0
 10
279.5
 11
279.5
 20
81.5
 21
86.5
  0
LINE
  8
0
 10
279.5
 11
284.5
 20
86.5
 21
86.5
  0
LINE
  8
0
 10
284.5
 11
284.5
 20
86.5
 21
81.5
  0
LINE
  8
0
 10
284.5
 11
279.5
 20
81.5
 21
81.5
  0
LINE
  8
0
 10
246.5
 11
246.5
 20
81.5
 21
86.5
  0
LINE
  8
0
 10
246.5
 11
251.5
 20
86.5
 21
86.5
  0
LINE
  8
0
 10
251.5
 11
251.5
 20
86.5
 21
81.5
  0
LINE
  8
0
 10
251.5
 11
246.5
 20
81.5
 21
81.5
  0
LINE
  8
0
 10
213.5
 11
213.5
 20
81.5
 21
86.5
  0
LINE
  8
0
 10
213.5
 11
218.5
 20
86.5
 21
86.5
  0
LINE
  8
0
 10
218.5
 11
218.5
 20
86.5
 21
81.5
  0
LINE
  8
0
 10
218.5
 11
213.5
 20
81.5
 21
81.5
  0
LINE
  8
0
 10
81.5
 11
81.5
 20
81.5
 21
86.5
  0
LINE
  8
0
 10
81.5
 11
86.5
 20
86.5
 21
86.5
  0
LINE
  8
0
 10
86.5
 11
86.5
 20
86.5
 21
81.5
  0
LINE
  8
0
 10
86.5
 11
81.5
 20
81.5
 21
81.5
  0
LINE
  8
0
 10
48.5
 11
48.5
 20
81.5
 21
86.5
  0
LINE
  8
0
 10
48.5
 11
53.5
 20
86.5
 21
86.5
  0
LINE
  8
0
 10
53.5
 11
53.5
 20
86.5
 21
81.5
  0
LINE
  8
0
 10
53.5
 11
48.5
 20
81.5
 21
81.5
  0
LINE
  8
0
 10
15.5
 11
15.5
 20
81.5
 21
86.5
  0
LINE
  8
0
 10
15.5
 11
20.5
 20
86.5
 21
86.5
  0
LINE
  8
0
 10
20.5
 11
20.5
 20
86.5
 21
81.5
  0
LINE
  8
0
 10
20.5
 11
15.5
 20
81.5
 21
81.5
  0
LINE
  8
0
 10
342.9
 11
342.9
 20
65.9
 21
69.1
  0
LINE
  8
0
 10
342.9
 11
353.1
 20
69.1
 21
69.1
  0
LINE
  8
0
 10
353.1
 11
353.1
 20
69.1
 21
65.9
  0
LINE
  8
0
 10
353.1
 11
342.9
 20
65.9
 21
65.9
  0
LINE
  8
0
 10
276.9
 11
276.9
 20
65.9
 21
69.1
  0
LINE
  8
0
 10
276.9
 11
287.1
 20
69.1
 21
69.1
  0
LINE
  8
0
 10
287.1
 11
287.1
 20
69.1
 21
65.9
  0
LINE
  8
0
 10
287.1
 11
276.9
 20
65.9
 21
65.9
  0
LINE
  8
0
 10
78.9
 11
78.9
 20
65.9
 21
69.1
  0
LINE
  8
0
 10
78.9
 11
89.1
 20
69.1
 21
69.1
  0
LINE
  8
0
 10
89.1
 11
89.1
 20
69.1
 21
65.9
  0
LINE
  8
0
 10
89.1
 11
78.9
 20
65.9
 21
65.9
  0
LINE
  8
0
 10
111.9
 11
111.9
 20
65.9
 21
69.1
  0
LINE
  8
0
 10
111.9
 11
122.1
 20
69.1
 21
69.1
  0
LINE
  8
0
 10
122.1
 11
122.1
 20
69.1
 21
65.9
  0
LINE
  8
0
 10
122.1
 11
111.9
 20
65.9
 21
65.9
  0
LINE
  8
0
 10
210.9
 11
210.9
 20
65.9
 21
69.1
  0
LINE
  8
0
 10
210.9
 11
221.1
 20
69.1
 21
69.1
  0
LINE
  8
0
 10
221.1
 11
221.1
 20
69.1
 21
65.9
  0
LINE
  8
0
 10
221.1
 11
210.9
 20
65.9
 21
65.9
  0
LINE
  8
0
 10
243.9
 11
243.9
 20
65.9
 21
69.1
  0
LINE
  8
0
 10
243.9
 11
254.1
 20
69.1
 21
69.1
  0
LINE
  8
0
 10
254.1
 11
254.1
 20
69.1
 21
65.9
  0
LINE
  8
0
 10
254.1
 11
243.9
 20
65.9
 21
65.9
  0
LINE
  8
0
 10
309.9
 11
309.9
 20
65.9
 21
69.1
  0
LINE
  8
0
 10
309.9
 11
320.1
 20
69.1
 21
69.1
  0
LINE
  8
0
 10
320.1
 11
320.1
 20
69.1
 21
65.9
  0
LINE
  8
0
 10
320.1
 11
309.9
 20
65.9
 21
65.9
  0
LINE
  8
0
 10
12.9
 11
12.9
 20
65.9
 21
69.1
  0
LINE
  8
0
 10
12.9
 11
23.1
 20
69.1
 21
69.1
  0
LINE
  8
0
 10
23.1
 11
23.1
 20
69.1
 21
65.9
  0
LINE
  8
0
 10
23.1
 11
12.9
 20
65.9
 21
65.9
  0
LINE
  8
0
 10
45.9
 11
45.9
 20
65.9
 21
69.1
  0
LINE
  8
0
 10
45.9
 11
56.1
 20
69.1
 21
69.1
  0
LINE
  8
0
 10
56.1
 11
56.1
 20
69.1
 21
65.9
  0
LINE
  8
0
 10
56.1
 11
45.9
 20
65.9
 21
65.9
  0
LINE
  8
0
 10
375.9
 11
375.9
 20
65.9
 21
69.1
  0
LINE
  8
0
 10
375.9
 11
386.1
 20
69.1
 21
69.1
  0
LINE
  8
0
 10
386.1
 11
386.1
 20
69.1
 21
65.9
  0
LINE
  8
0
 10
386.1
 11
375.9
 20
65.9
 21
65.9
  0
LINE
  8
0
 10
177.9
 11
177.9
 20
65.9
 21
69.1
  0
LINE
  8
0
 10
177.9
 11
188.1
 20
69.1
 21
69.1
  0
LINE
  8
0
 10
188.1
 11
188.1
 20
69.1
 21
65.9
  0
LINE
  8
0
 10
188.1
 11
177.9
 20
65.9
 21
65.9
  0
LINE
  8
0
 10
144.9
 11
144.9
 20
65.9
 21
69.1
  0
LINE
  8
0
 10
144.9
 11
155.1
 20
69.1
 21
69.1
  0
LINE
  8
0
 10
155.1
 11
155.1
 20
69.1
 21
65.9
  0
LINE
  8
0
 10
155.1
 11
144.9
 20
65.9
 21
65.9
  0
LINE
  8
0
 10
263.9
 11
263.9
 20
45.9
 21
56.1
  0
LINE
  8
0
 10
263.9
 11
267.1
 20
56.1
 21
56.1
  0
LINE
  8
0
 10
267.1
 11
267.1
 20
56.1
 21
45.9
  0
LINE
  8
0
 10
267.1
 11
263.9
 20
45.9
 21
45.9
  0
LINE
  8
0
 10
296.9
 11
296.9
 20
45.9
 21
56.1
  0
LINE
  8
0
 10
296.9
 11
300.1
 20
56.1
 21
56.1
  0
LINE
  8
0
 10
300.1
 11
300.1
 20
56.1
 21
45.9
  0
LINE
  8
0
 10
300.1
 11
296.9
 20
45.9
 21
45.9
  0
LINE
  8
0
 10
362.9
 11
362.9
 20
45.9
 21
56.1
  0
LINE
  8
0
 10
362.9
 11
366.1
 20
56.1
 21
56.1
  0
LINE
  8
0
 10
366.1
 11
366.1
 20
56.1
 21
45.9
  0
LINE
  8
0
 10
366.1
 11
362.9
 20
45.9
 21
45.9
  0
LINE
  8
0
 10
98.9
 11
98.9
 20
45.9
 21
56.1
  0
LINE
  8
0
 10
98.9
 11
102.1
 20
56.1
 21
56.1
  0
LINE
  8
0
 10
102.1
 11
102.1
 20
56.1
 21
45.9
  0
LINE
  8
0
 10
102.1
 11
98.9
 20
45.9
 21
45.9
  0
LINE
  8
0
 10
230.9
 11
230.9
 20
45.9
 21
56.1
  0
LINE
  8
0
 10
230.9
 11
234.1
 20
56.1
 21
56.1
  0
LINE
  8
0
 10
234.1
 11
234.1
 20
56.1
 21
45.9
  0
LINE
  8
0
 10
234.1
 11
230.9
 20
45.9
 21
45.9
  0
LINE
  8
0
 10
164.9
 11
164.9
 20
45.9
 21
56.1
  0
LINE
  8
0
 10
164.9
 11
168.1
 20
56.1
 21
56.1
  0
LINE
  8
0
 10
168.1
 11
168.1
 20
56.1
 21
45.9
  0
LINE
  8
0
 10
168.1
 11
164.9
 20
45.9
 21
45.9
  0
LINE
  8
0
 10
131.9
 11
131.9
 20
45.9
 21
56.1
  0
LINE
  8
0
 10
131.9
 11
135.1
 20
56.1
 21
56.1
  0
LINE
  8
0
 10
135.1
 11
135.1
 20
56.1
 21
45.9
  0
LINE
  8
0
 10
135.1
 11
131.9
 20
45.9
 21
45.9
  0
LINE
  8
0
 10
329.9
 11
329.9
 20
45.9
 21
56.1
  0
LINE
  8
0
 10
329.9
 11
333.1
 20
56.1
 21
56.1
  0
LINE
  8
0
 10
333.1
 11
333.1
 20
56.1
 21
45.9
  0
LINE
  8
0
 10
333.1
 11
329.9
 20
45.9
 21
45.9
  0
LINE
  8
0
 10
197.9
 11
197.9
 20
45.9
 21
56.1
  0
LINE
  8
0
 10
197.9
 11
201.1
 20
56.1
 21
56.1
  0
LINE
  8
0
 10
201.1
 11
201.1
 20
56.1
 21
45.9
  0
LINE
  8
0
 10
201.1
 11
197.9
 20
45.9
 21
45.9
  0
LINE
  8
0
 10
65.9
 11
65.9
 20
45.9
 21
56.1
  0
LINE
  8
0
 10
65.9
 11
69.1
 20
56.1
 21
56.1
  0
LINE
  8
0
 10
69.1
 11
69.1
 20
56.1
 21
45.9
  0
LINE
  8
0
 10
69.1
 11
65.9
 20
45.9
 21
45.9
  0
LINE
  8
0
 10
32.9
 11
32.9
 20
45.9
 21
56.1
  0
LINE
  8
0
 10
32.9
 11
36.1
 20
56.1
 21
56.1
  0
LINE
  8
0
 10
36.1
 11
36.1
 20
56.1
 21
45.9
  0
LINE
  8
0
 10
36.1
 11
32.9
 20
45.9
 21
45.9
  0
LINE
  8
0
 10
279.5
 11
279.5
 20
48.5
 21
53.5
  0
LINE
  8
0
 10
279.5
 11
284.5
 20
53.5
 21
53.5
  0
LINE
  8
0
 10
284.5
 11
284.5
 20
53.5
 21
48.5
  0
LINE
  8
0
 10
284.5
 11
279.5
 20
48.5
 21
48.5
  0
LINE
  8
0
 10
312.5
 11
312.5
 20
48.5
 21
53.5
  0
LINE
  8
0
 10
312.5
 11
317.5
 20
53.5
 21
53.5
  0
LINE
  8
0
 10
317.5
 11
317.5
 20
53.5
 21
48.5
  0
LINE
  8
0
 10
317.5
 11
312.5
 20
48.5
 21
48.5
  0
LINE
  8
0
 10
345.5
 11
345.5
 20
48.5
 21
53.5
  0
LINE
  8
0
 10
345.5
 11
350.5
 20
53.5
 21
53.5
  0
LINE
  8
0
 10
350.5
 11
350.5
 20
53.5
 21
48.5
  0
LINE
  8
0
 10
350.5
 11
345.5
 20
48.5
 21
48.5
  0
LINE
  8
0
 10
180.5
 11
180.5
 20
48.5
 21
53.5
  0
LINE
  8
0
 10
180.5
 11
185.5
 20
53.5
 21
53.5
  0
LINE
  8
0
 10
185.5
 11
185.5
 20
53.5
 21
48.5
  0
LINE
  8
0
 10
185.5
 11
180.5
 20
48.5
 21
48.5
  0
LINE
  8
0
 10
81.5
 11
81.5
 20
48.5
 21
53.5
  0
LINE
  8
0
 10
81.5
 11
86.5
 20
53.5
 21
53.5
  0
LINE
  8
0
 10
86.5
 11
86.5
 20
53.5
 21
48.5
  0
LINE
  8
0
 10
86.5
 11
81.5
 20
48.5
 21
48.5
  0
LINE
  8
0
 10
213.5
 11
213.5
 20
48.5
 21
53.5
  0
LINE
  8
0
 10
213.5
 11
218.5
 20
53.5
 21
53.5
  0
LINE
  8
0
 10
218.5
 11
218.5
 20
53.5
 21
48.5
  0
LINE
  8
0
 10
218.5
 11
213.5
 20
48.5
 21
48.5
  0
LINE
  8
0
 10
378.5
 11
378.5
 20
48.5
 21
53.5
  0
LINE
  8
0
 10
378.5
 11
383.5
 20
53.5
 21
53.5
  0
LINE
  8
0
 10
383.5
 11
383.5
 20
53.5
 21
48.5
  0
LINE
  8
0
 10
383.5
 11
378.5
 20
48.5
 21
48.5
  0
LINE
  8
0
 10
147.5
 11
147.5
 20
48.5
 21
53.5
  0
LINE
  8
0
 10
147.5
 11
152.5
 20
53.5
 21
53.5
  0
LINE
  8
0
 10
152.5
 11
152.5
 20
53.5
 21
48.5
  0
LINE
  8
0
 10
152.5
 11
147.5
 20
48.5
 21
48.5
  0
LINE
  8
0
 10
114.5
 11
114.5
 20
48.5
 21
53.5
  0
LINE
  8
0
 10
114.5
 11
119.5
 20
53.5
 21
53.5
  0
LINE
  8
0
 10
119.5
 11
119.5
 20
53.5
 21
48.5
  0
LINE
  8
0
 10
119.5
 11
114.5
 20
48.5
 21
48.5
  0
LINE
  8
0
 10
48.5
 11
48.5
 20
48.5
 21
53.5
  0
LINE
  8
0
 10
48.5
 11
53.5
 20
53.5
 21
53.5
  0
LINE
  8
0
 10
53.5
 11
53.5
 20
53.5
 21
48.5
  0
LINE
  8
0
 10
53.5
 11
48.5
 20
48.5
 21
48.5
  0
LINE
  8
0
 10
15.5
 11
15.5
 20
48.5
 21
53.5
  0
LINE
  8
0
 10
15.5
 11
20.5
 20
53.5
 21
53.5
  0
LINE
  8
0
 10
20.5
 11
20.5
 20
53.5
 21
48.5
  0
LINE
  8
0
 10
20.5
 11
15.5
 20
48.5
 21
48.5
  0
LINE
  8
0
 10
246.5
 11
246.5
 20
48.5
 21
53.5
  0
LINE
  8
0
 10
246.5
 11
251.5
 20
53.5
 21
53.5
  0
LINE
  8
0
 10
251.5
 11
251.5
 20
53.5
 21
48.5
  0
LINE
  8
0
 10
251.5
 11
246.5
 20
48.5
 21
48.5
  0
LINE
  8
0
 10
210.9
 11
210.9
 20
32.9
 21
36.1
  0
LINE
  8
0
 10
210.9
 11
221.1
 20
36.1
 21
36.1
  0
LINE
  8
0
 10
221.1
 11
221.1
 20
36.1
 21
32.9
  0
LINE
  8
0
 10
221.1
 11
210.9
 20
32.9
 21
32.9
  0
LINE
  8
0
 10
243.9
 11
243.9
 20
32.9
 21
36.1
  0
LINE
  8
0
 10
243.9
 11
254.1
 20
36.1
 21
36.1
  0
LINE
  8
0
 10
254.1
 11
254.1
 20
36.1
 21
32.9
  0
LINE
  8
0
 10
254.1
 11
243.9
 20
32.9
 21
32.9
  0
LINE
  8
0
 10
276.9
 11
276.9
 20
32.9
 21
36.1
  0
LINE
  8
0
 10
276.9
 11
287.1
 20
36.1
 21
36.1
  0
LINE
  8
0
 10
287.1
 11
287.1
 20
36.1
 21
32.9
  0
LINE
  8
0
 10
287.1
 11
276.9
 20
32.9
 21
32.9
  0
LINE
  8
0
 10
375.9
 11
375.9
 20
32.9
 21
36.1
  0
LINE
  8
0
 10
375.9
 11
386.1
 20
36.1
 21
36.1
  0
LINE
  8
0
 10
386.1
 11
386.1
 20
36.1
 21
32.9
  0
LINE
  8
0
 10
386.1
 11
375.9
 20
32.9
 21
32.9
  0
LINE
  8
0
 10
342.9
 11
342.9
 20
32.9
 21
36.1
  0
LINE
  8
0
 10
342.9
 11
353.1
 20
36.1
 21
36.1
  0
LINE
  8
0
 10
353.1
 11
353.1
 20
36.1
 21
32.9
  0
LINE
  8
0
 10
353.1
 11
342.9
 20
32.9
 21
32.9
  0
LINE
  8
0
 10
144.9
 11
144.9
 20
32.9
 21
36.1
  0
LINE
  8
0
 10
144.9
 11
155.1
 20
36.1
 21
36.1
  0
LINE
  8
0
 10
155.1
 11
155.1
 20
36.1
 21
32.9
  0
LINE
  8
0
 10
155.1
 11
144.9
 20
32.9
 21
32.9
  0
LINE
  8
0
 10
309.9
 11
309.9
 20
32.9
 21
36.1
  0
LINE
  8
0
 10
309.9
 11
320.1
 20
36.1
 21
36.1
  0
LINE
  8
0
 10
320.1
 11
320.1
 20
36.1
 21
32.9
  0
LINE
  8
0
 10
320.1
 11
309.9
 20
32.9
 21
32.9
  0
LINE
  8
0
 10
177.9
 11
177.9
 20
32.9
 21
36.1
  0
LINE
  8
0
 10
177.9
 11
188.1
 20
36.1
 21
36.1
  0
LINE
  8
0
 10
188.1
 11
188.1
 20
36.1
 21
32.9
  0
LINE
  8
0
 10
188.1
 11
177.9
 20
32.9
 21
32.9
  0
LINE
  8
0
 10
111.9
 11
111.9
 20
32.9
 21
36.1
  0
LINE
  8
0
 10
111.9
 11
122.1
 20
36.1
 21
36.1
  0
LINE
  8
0
 10
122.1
 11
122.1
 20
36.1
 21
32.9
  0
LINE
  8
0
 10
122.1
 11
111.9
 20
32.9
 21
32.9
  0
LINE
  8
0
 10
78.9
 11
78.9
 20
32.9
 21
36.1
  0
LINE
  8
0
 10
78.9
 11
89.1
 20
36.1
 21
36.1
  0
LINE
  8
0
 10
89.1
 11
89.1
 20
36.1
 21
32.9
  0
LINE
  8
0
 10
89.1
 11
78.9
 20
32.9
 21
32.9
  0
LINE
  8
0
 10
45.9
 11
45.9
 20
32.9
 21
36.1
  0
LINE
  8
0
 10
45.9
 11
56.1
 20
36.1
 21
36.1
  0
LINE
  8
0
 10
56.1
 11
56.1
 20
36.1
 21
32.9
  0
LINE
  8
0
 10
56.1
 11
45.9
 20
32.9
 21
32.9
  0
LINE
  8
0
 10
12.9
 11
12.9
 20
32.9
 21
36.1
  0
LINE
  8
0
 10
12.9
 11
23.1
 20
36.1
 21
36.1
  0
LINE
  8
0
 10
23.1
 11
23.1
 20
36.1
 21
32.9
  0
LINE
  8
0
 10
23.1
 11
12.9
 20
32.9
 21
32.9
  0
LINE
  8
0
 10
98.9
 11
98.9
 20
12.9
 21
23.1
  0
LINE
  8
0
 10
98.9
 11
102.1
 20
23.1
 21
23.1
  0
LINE
  8
0
 10
102.1
 11
102.1
 20
23.1
 21
12.9
  0
LINE
  8
0
 10
102.1
 11
98.9
 20
12.9
 21
12.9
  0
LINE
  8
0
 10
131.9
 11
131.9
 20
12.9
 21
23.1
  0
LINE
  8
0
 10
131.9
 11
135.1
 20
23.1
 21
23.1
  0
LINE
  8
0
 10
135.1
 11
135.1
 20
23.1
 21
12.9
  0
LINE
  8
0
 10
135.1
 11
131.9
 20
12.9
 21
12.9
  0
LINE
  8
0
 10
164.9
 11
164.9
 20
12.9
 21
23.1
  0
LINE
  8
0
 10
164.9
 11
168.1
 20
23.1
 21
23.1
  0
LINE
  8
0
 10
168.1
 11
168.1
 20
23.1
 21
12.9
  0
LINE
  8
0
 10
168.1
 11
164.9
 20
12.9
 21
12.9
  0
LINE
  8
0
 10
197.9
 11
197.9
 20
12.9
 21
23.1
  0
LINE
  8
0
 10
197.9
 11
201.1
 20
23.1
 21
23.1
  0
LINE
  8
0
 10
201.1
 11
201.1
 20
23.1
 21
12.9
  0
LINE
  8
0
 10
201.1
 11
197.9
 20
12.9
 21
12.9
  0
LINE
  8
0
 10
230.9
 11
230.9
 20
12.9
 21
23.1
  0
LINE
  8
0
 10
230.9
 11
234.1
 20
23.1
 21
23.1
  0
LINE
  8
0
 10
234.1
 11
234.1
 20
23.1
 21
12.9
  0
LINE
  8
0
 10
234.1
 11
230.9
 20
12.9
 21
12.9
  0
LINE
  8
0
 10
263.9
 11
263.9
 20
12.9
 21
23.1
  0
LINE
  8
0
 10
263.9
 11
267.1
 20
23.1
 21
23.1
  0
LINE
  8
0
 10
267.1
 11
267.1
 20
23.1
 21
12.9
  0
LINE
  8
0
 10
267.1
 11
263.9
 20
12.9
 21
12.9
  0
LINE
  8
0
 10
296.9
 11
296.9
 20
12.9
 21
23.1
  0
LINE
  8
0
 10
296.9
 11
300.1
 20
23.1
 21
23.1
  0
LINE
  8
0
 10
300.1
 11
300.1
 20
23.1
 21
12.9
  0
LINE
  8
0
 10
300.1
 11
296.9
 20
12.9
 21
12.9
  0
LINE
  8
0
 10
329.9
 11
329.9
 20
12.9
 21
23.1
  0
LINE
  8
0
 10
329.9
 11
333.1
 20
23.1
 21
23.1
  0
LINE
  8
0
 10
333.1
 11
333.1
 20
23.1
 21
12.9
  0
LINE
  8
0
 10
333.1
 11
329.9
 20
12.9
 21
12.9
  0
LINE
  8
0
 10
362.9
 11
362.9
 20
12.9
 21
23.1
  0
LINE
  8
0
 10
362.9
 11
366.1
 20
23.1
 21
23.1
  0
LINE
  8
0
 10
366.1
 11
366.1
 20
23.1
 21
12.9
  0
LINE
  8
0
 10
366.1
 11
362.9
 20
12.9
 21
12.9
  0
LINE
  8
0
 10
32.9
 11
32.9
 20
12.9
 21
23.1
  0
LINE
  8
0
 10
32.9
 11
36.1
 20
23.1
 21
23.1
  0
LINE
  8
0
 10
36.1
 11
36.1
 20
23.1
 21
12.9
  0
LINE
  8
0
 10
36.1
 11
32.9
 20
12.9
 21
12.9
  0
LINE
  8
0
 10
65.9
 11
65.9
 20
12.9
 21
23.1
  0
LINE
  8
0
 10
65.9
 11
69.1
 20
23.1
 21
23.1
  0
LINE
  8
0
 10
69.1
 11
69.1
 20
23.1
 21
12.9
  0
LINE
  8
0
 10
69.1
 11
65.9
 20
12.9
 21
12.9
  0
LINE
  8
0
 10
213.5
 11
213.5
 20
15.5
 21
20.5
  0
LINE
  8
0
 10
213.5
 11
218.5
 20
20.5
 21
20.5
  0
LINE
  8
0
 10
218.5
 11
218.5
 20
20.5
 21
15.5
  0
LINE
  8
0
 10
218.5
 11
213.5
 20
15.5
 21
15.5
  0
LINE
  8
0
 10
246.5
 11
246.5
 20
15.5
 21
20.5
  0
LINE
  8
0
 10
246.5
 11
251.5
 20
20.5
 21
20.5
  0
LINE
  8
0
 10
251.5
 11
251.5
 20
20.5
 21
15.5
  0
LINE
  8
0
 10
251.5
 11
246.5
 20
15.5
 21
15.5
  0
LINE
  8
0
 10
147.5
 11
147.5
 20
15.5
 21
20.5
  0
LINE
  8
0
 10
147.5
 11
152.5
 20
20.5
 21
20.5
  0
LINE
  8
0
 10
152.5
 11
152.5
 20
20.5
 21
15.5
  0
LINE
  8
0
 10
152.5
 11
147.5
 20
15.5
 21
15.5
  0
LINE
  8
0
 10
279.5
 11
279.5
 20
15.5
 21
20.5
  0
LINE
  8
0
 10
279.5
 11
284.5
 20
20.5
 21
20.5
  0
LINE
  8
0
 10
284.5
 11
284.5
 20
20.5
 21
15.5
  0
LINE
  8
0
 10
284.5
 11
279.5
 20
15.5
 21
15.5
  0
LINE
  8
0
 10
312.5
 11
312.5
 20
15.5
 21
20.5
  0
LINE
  8
0
 10
312.5
 11
317.5
 20
20.5
 21
20.5
  0
LINE
  8
0
 10
317.5
 11
317.5
 20
20.5
 21
15.5
  0
LINE
  8
0
 10
317.5
 11
312.5
 20
15.5
 21
15.5
  0
LINE
  8
0
 10
114.5
 11
114.5
 20
15.5
 21
20.5
  0
LINE
  8
0
 10
114.5
 11
119.5
 20
20.5
 21
20.5
  0
LINE
  8
0
 10
119.5
 11
119.5
 20
20.5
 21
15.5
  0
LINE
  8
0
 10
119.5
 11
114.5
 20
15.5
 21
15.5
  0
LINE
  8
0
 10
345.5
 11
345.5
 20
15.5
 21
20.5
  0
LINE
  8
0
 10
345.5
 11
350.5
 20
20.5
 21
20.5
  0
LINE
  8
0
 10
350.5
 11
350.5
 20
20.5
 21
15.5
  0
LINE
  8
0
 10
350.5
 11
345.5
 20
15.5
 21
15.5
  0
LINE
  8
0
 10
378.5
 11
378.5
 20
15.5
 21
20.5
  0
LINE
  8
0
 10
378.5
 11
383.5
 20
20.5
 21
20.5
  0
LINE
  8
0
 10
383.5
 11
383.5
 20
20.5
 21
15.5
  0
LINE
  8
0
 10
383.5
 11
378.5
 20
15.5
 21
15.5
  0
LINE
  8
0
 10
81.5
 11
81.5
 20
15.5
 21
20.5
  0
LINE
  8
0
 10
81.5
 11
86.5
 20
20.5
 21
20.5
  0
LINE
  8
0
 10
86.5
 11
86.5
 20
20.5
 21
15.5
  0
LINE
  8
0
 10
86.5
 11
81.5
 20
15.5
 21
15.5
  0
LINE
  8
0
 10
180.5
 11
180.5
 20
15.5
 21
20.5
  0
LINE
  8
0
 10
180.5
 11
185.5
 20
20.5
 21
20.5
  0
LINE
  8
0
 10
185.5
 11
185.5
 20
20.5
 21
15.5
  0
LINE
  8
0
 10
185.5
 11
180.5
 20
15.5
 21
15.5
  0
LINE
  8
0
 10
15.5
 11
15.5
 20
15.5
 21
20.5
  0
LINE
  8
0
 10
15.5
 11
20.5
 20
20.5
 21
20.5
  0
LINE
  8
0
 10
20.5
 11
20.5
 20
20.5
 21
15.5
  0
LINE
  8
0
 10
20.5
 11
15.5
 20
15.5
 21
15.5
  0
LINE
  8
0
 10
48.5
 11
48.5
 20
15.5
 21
20.5
  0
LINE
  8
0
 10
48.5
 11
53.5
 20
20.5
 21
20.5
  0
LINE
  8
0
 10
53.5
 11
53.5
 20
20.5
 21
15.5
  0
LINE
  8
0
 10
53.5
 11
48.5
 20
15.5
 21
15.5
  0
ENDSEC
  0
SECTION
  2
OBJECTS
  0
DICTIONARY
  0
ENDSEC
  0
EOF
