  0
SECTION
  2
BLOCKS
  0
ENDSEC
  0
SECTION
  2
ENTITIES
  0
LINE
  8
0
 10
23
 11
32.9
 20
459
 21
459
  0
LINE
  8
0
 10
32.9
 11
32.9
 20
459
 21
475.5
  0
LINE
  8
0
 10
32.9
 11
36.1
 20
475.5
 21
475.5
  0
LINE
  8
0
 10
36.1
 11
36.1
 20
475.5
 21
459
  0
LINE
  8
0
 10
36.1
 11
46
 20
459
 21
459
  0
LINE
  8
0
 10
46
 11
46
 20
459
 21
456
  0
LINE
  8
0
 10
46
 11
56
 20
456
 21
456
  0
LINE
  8
0
 10
56
 11
56
 20
456
 21
459
  0
LINE
  8
0
 10
56
 11
65.9
 20
459
 21
459
  0
LINE
  8
0
 10
65.9
 11
65.9
 20
459
 21
475.5
  0
LINE
  8
0
 10
65.9
 11
69.1
 20
475.5
 21
475.5
  0
LINE
  8
0
 10
69.1
 11
69.1
 20
475.5
 21
459
  0
LINE
  8
0
 10
69.1
 11
79
 20
459
 21
459
  0
LINE
  8
0
 10
79
 11
79
 20
459
 21
456
  0
LINE
  8
0
 10
79
 11
89
 20
456
 21
456
  0
LINE
  8
0
 10
89
 11
89
 20
456
 21
459
  0
LINE
  8
0
 10
89
 11
98.9
 20
459
 21
459
  0
LINE
  8
0
 10
98.9
 11
98.9
 20
459
 21
475.5
  0
LINE
  8
0
 10
98.9
 11
102.1
 20
475.5
 21
475.5
  0
LINE
  8
0
 10
102.1
 11
102.1
 20
475.5
 21
459
  0
LINE
  8
0
 10
102.1
 11
112
 20
459
 21
459
  0
LINE
  8
0
 10
112
 11
112
 20
459
 21
456
  0
LINE
  8
0
 10
112
 11
122
 20
456
 21
456
  0
LINE
  8
0
 10
122
 11
122
 20
456
 21
459
  0
LINE
  8
0
 10
122
 11
131.9
 20
459
 21
459
  0
LINE
  8
0
 10
131.9
 11
131.9
 20
459
 21
475.5
  0
LINE
  8
0
 10
131.9
 11
135.1
 20
475.5
 21
475.5
  0
LINE
  8
0
 10
135.1
 11
135.1
 20
475.5
 21
459
  0
LINE
  8
0
 10
135.1
 11
145
 20
459
 21
459
  0
LINE
  8
0
 10
145
 11
145
 20
459
 21
456
  0
LINE
  8
0
 10
145
 11
155
 20
456
 21
456
  0
LINE
  8
0
 10
155
 11
155
 20
456
 21
459
  0
LINE
  8
0
 10
155
 11
164.9
 20
459
 21
459
  0
LINE
  8
0
 10
164.9
 11
164.9
 20
459
 21
475.5
  0
LINE
  8
0
 10
164.9
 11
168.1
 20
475.5
 21
475.5
  0
LINE
  8
0
 10
168.1
 11
168.1
 20
475.5
 21
459
  0
LINE
  8
0
 10
168.1
 11
178
 20
459
 21
459
  0
LINE
  8
0
 10
178
 11
178
 20
459
 21
456
  0
LINE
  8
0
 10
178
 11
188
 20
456
 21
456
  0
LINE
  8
0
 10
188
 11
188
 20
456
 21
459
  0
LINE
  8
0
 10
188
 11
197.9
 20
459
 21
459
  0
LINE
  8
0
 10
197.9
 11
197.9
 20
459
 21
475.5
  0
LINE
  8
0
 10
197.9
 11
201.1
 20
475.5
 21
475.5
  0
LINE
  8
0
 10
201.1
 11
201.1
 20
475.5
 21
459
  0
LINE
  8
0
 10
201.1
 11
211
 20
459
 21
459
  0
LINE
  8
0
 10
211
 11
211
 20
459
 21
456
  0
LINE
  8
0
 10
211
 11
221
 20
456
 21
456
  0
LINE
  8
0
 10
221
 11
221
 20
456
 21
459
  0
LINE
  8
0
 10
221
 11
230.9
 20
459
 21
459
  0
LINE
  8
0
 10
230.9
 11
230.9
 20
459
 21
475.5
  0
LINE
  8
0
 10
230.9
 11
234.1
 20
475.5
 21
475.5
  0
LINE
  8
0
 10
234.1
 11
234.1
 20
475.5
 21
459
  0
LINE
  8
0
 10
234.1
 11
244
 20
459
 21
459
  0
LINE
  8
0
 10
244
 11
244
 20
459
 21
456
  0
LINE
  8
0
 10
244
 11
254
 20
456
 21
456
  0
LINE
  8
0
 10
254
 11
254
 20
456
 21
459
  0
LINE
  8
0
 10
254
 11
263.9
 20
459
 21
459
  0
LINE
  8
0
 10
263.9
 11
263.9
 20
459
 21
475.5
  0
LINE
  8
0
 10
263.9
 11
267.1
 20
475.5
 21
475.5
  0
LINE
  8
0
 10
267.1
 11
267.1
 20
475.5
 21
459
  0
LINE
  8
0
 10
267.1
 11
277
 20
459
 21
459
  0
LINE
  8
0
 10
277
 11
277
 20
459
 21
456
  0
LINE
  8
0
 10
277
 11
287
 20
456
 21
456
  0
LINE
  8
0
 10
287
 11
287
 20
456
 21
459
  0
LINE
  8
0
 10
287
 11
296.9
 20
459
 21
459
  0
LINE
  8
0
 10
296.9
 11
296.9
 20
459
 21
475.5
  0
LINE
  8
0
 10
296.9
 11
300.1
 20
475.5
 21
475.5
  0
LINE
  8
0
 10
300.1
 11
300.1
 20
475.5
 21
459
  0
LINE
  8
0
 10
300.1
 11
310
 20
459
 21
459
  0
LINE
  8
0
 10
310
 11
310
 20
459
 21
456
  0
LINE
  8
0
 10
310
 11
320
 20
456
 21
456
  0
LINE
  8
0
 10
320
 11
320
 20
456
 21
459
  0
LINE
  8
0
 10
320
 11
329.9
 20
459
 21
459
  0
LINE
  8
0
 10
329.9
 11
329.9
 20
459
 21
475.5
  0
LINE
  8
0
 10
329.9
 11
333.1
 20
475.5
 21
475.5
  0
LINE
  8
0
 10
333.1
 11
333.1
 20
475.5
 21
459
  0
LINE
  8
0
 10
333.1
 11
343
 20
459
 21
459
  0
LINE
  8
0
 10
343
 11
343
 20
459
 21
456
  0
LINE
  8
0
 10
343
 11
353
 20
456
 21
456
  0
LINE
  8
0
 10
353
 11
353
 20
456
 21
459
  0
LINE
  8
0
 10
353
 11
362.9
 20
459
 21
459
  0
LINE
  8
0
 10
362.9
 11
362.9
 20
459
 21
475.5
  0
LINE
  8
0
 10
362.9
 11
366.1
 20
475.5
 21
475.5
  0
LINE
  8
0
 10
366.1
 11
366.1
 20
475.5
 21
459
  0
LINE
  8
0
 10
366.1
 11
376
 20
459
 21
459
  0
LINE
  8
0
 10
376
 11
376
 20
459
 21
456
  0
LINE
  8
0
 10
376
 11
386
 20
456
 21
456
  0
LINE
  8
0
 10
386
 11
386
 20
456
 21
459
  0
LINE
  8
0
 10
386
 11
399
 20
459
 21
459
  0
LINE
  8
0
 10
399
 11
399
 20
459
 21
475.5
  0
LINE
  8
0
 10
399
 11
395.9
 20
475.5
 21
475.5
  0
LINE
  8
0
 10
395.9
 11
395.9
 20
475.5
 21
492
  0
LINE
  8
0
 10
395.9
 11
3.1
 20
492
 21
492
  0
LINE
  8
0
 10
3.1
 11
3.1
 20
492
 21
475.5
  0
LINE
  8
0
 10
3.1
 11
0
 20
475.5
 21
475.5
  0
LINE
  8
0
 10
0
 11
0
 20
475.5
 21
459
  0
LINE
  8
0
 10
0
 11
13
 20
459
 21
459
  0
LINE
  8
0
 10
13
 11
13
 20
459
 21
456
  0
LINE
  8
0
 10
13
 11
23
 20
456
 21
456
  0
LINE
  8
0
 10
23
 11
23
 20
456
 21
459
  0
LINE
  8
0
 10
23
 11
32.9
 20
421
 21
421
  0
LINE
  8
0
 10
32.9
 11
32.9
 20
421
 21
437.5
  0
LINE
  8
0
 10
32.9
 11
36.1
 20
437.5
 21
437.5
  0
LINE
  8
0
 10
36.1
 11
36.1
 20
437.5
 21
421
  0
LINE
  8
0
 10
36.1
 11
46
 20
421
 21
421
  0
LINE
  8
0
 10
46
 11
46
 20
421
 21
418
  0
LINE
  8
0
 10
46
 11
56
 20
418
 21
418
  0
LINE
  8
0
 10
56
 11
56
 20
418
 21
421
  0
LINE
  8
0
 10
56
 11
65.9
 20
421
 21
421
  0
LINE
  8
0
 10
65.9
 11
65.9
 20
421
 21
437.5
  0
LINE
  8
0
 10
65.9
 11
69.1
 20
437.5
 21
437.5
  0
LINE
  8
0
 10
69.1
 11
69.1
 20
437.5
 21
421
  0
LINE
  8
0
 10
69.1
 11
79
 20
421
 21
421
  0
LINE
  8
0
 10
79
 11
79
 20
421
 21
418
  0
LINE
  8
0
 10
79
 11
89
 20
418
 21
418
  0
LINE
  8
0
 10
89
 11
89
 20
418
 21
421
  0
LINE
  8
0
 10
89
 11
98.9
 20
421
 21
421
  0
LINE
  8
0
 10
98.9
 11
98.9
 20
421
 21
437.5
  0
LINE
  8
0
 10
98.9
 11
102.1
 20
437.5
 21
437.5
  0
LINE
  8
0
 10
102.1
 11
102.1
 20
437.5
 21
421
  0
LINE
  8
0
 10
102.1
 11
112
 20
421
 21
421
  0
LINE
  8
0
 10
112
 11
112
 20
421
 21
418
  0
LINE
  8
0
 10
112
 11
122
 20
418
 21
418
  0
LINE
  8
0
 10
122
 11
122
 20
418
 21
421
  0
LINE
  8
0
 10
122
 11
131.9
 20
421
 21
421
  0
LINE
  8
0
 10
131.9
 11
131.9
 20
421
 21
437.5
  0
LINE
  8
0
 10
131.9
 11
135.1
 20
437.5
 21
437.5
  0
LINE
  8
0
 10
135.1
 11
135.1
 20
437.5
 21
421
  0
LINE
  8
0
 10
135.1
 11
145
 20
421
 21
421
  0
LINE
  8
0
 10
145
 11
145
 20
421
 21
418
  0
LINE
  8
0
 10
145
 11
155
 20
418
 21
418
  0
LINE
  8
0
 10
155
 11
155
 20
418
 21
421
  0
LINE
  8
0
 10
155
 11
164.9
 20
421
 21
421
  0
LINE
  8
0
 10
164.9
 11
164.9
 20
421
 21
437.5
  0
LINE
  8
0
 10
164.9
 11
168.1
 20
437.5
 21
437.5
  0
LINE
  8
0
 10
168.1
 11
168.1
 20
437.5
 21
421
  0
LINE
  8
0
 10
168.1
 11
178
 20
421
 21
421
  0
LINE
  8
0
 10
178
 11
178
 20
421
 21
418
  0
LINE
  8
0
 10
178
 11
188
 20
418
 21
418
  0
LINE
  8
0
 10
188
 11
188
 20
418
 21
421
  0
LINE
  8
0
 10
188
 11
197.9
 20
421
 21
421
  0
LINE
  8
0
 10
197.9
 11
197.9
 20
421
 21
437.5
  0
LINE
  8
0
 10
197.9
 11
201.1
 20
437.5
 21
437.5
  0
LINE
  8
0
 10
201.1
 11
201.1
 20
437.5
 21
421
  0
LINE
  8
0
 10
201.1
 11
211
 20
421
 21
421
  0
LINE
  8
0
 10
211
 11
211
 20
421
 21
418
  0
LINE
  8
0
 10
211
 11
221
 20
418
 21
418
  0
LINE
  8
0
 10
221
 11
221
 20
418
 21
421
  0
LINE
  8
0
 10
221
 11
230.9
 20
421
 21
421
  0
LINE
  8
0
 10
230.9
 11
230.9
 20
421
 21
437.5
  0
LINE
  8
0
 10
230.9
 11
234.1
 20
437.5
 21
437.5
  0
LINE
  8
0
 10
234.1
 11
234.1
 20
437.5
 21
421
  0
LINE
  8
0
 10
234.1
 11
244
 20
421
 21
421
  0
LINE
  8
0
 10
244
 11
244
 20
421
 21
418
  0
LINE
  8
0
 10
244
 11
254
 20
418
 21
418
  0
LINE
  8
0
 10
254
 11
254
 20
418
 21
421
  0
LINE
  8
0
 10
254
 11
263.9
 20
421
 21
421
  0
LINE
  8
0
 10
263.9
 11
263.9
 20
421
 21
437.5
  0
LINE
  8
0
 10
263.9
 11
267.1
 20
437.5
 21
437.5
  0
LINE
  8
0
 10
267.1
 11
267.1
 20
437.5
 21
421
  0
LINE
  8
0
 10
267.1
 11
277
 20
421
 21
421
  0
LINE
  8
0
 10
277
 11
277
 20
421
 21
418
  0
LINE
  8
0
 10
277
 11
287
 20
418
 21
418
  0
LINE
  8
0
 10
287
 11
287
 20
418
 21
421
  0
LINE
  8
0
 10
287
 11
296.9
 20
421
 21
421
  0
LINE
  8
0
 10
296.9
 11
296.9
 20
421
 21
437.5
  0
LINE
  8
0
 10
296.9
 11
300.1
 20
437.5
 21
437.5
  0
LINE
  8
0
 10
300.1
 11
300.1
 20
437.5
 21
421
  0
LINE
  8
0
 10
300.1
 11
310
 20
421
 21
421
  0
LINE
  8
0
 10
310
 11
310
 20
421
 21
418
  0
LINE
  8
0
 10
310
 11
320
 20
418
 21
418
  0
LINE
  8
0
 10
320
 11
320
 20
418
 21
421
  0
LINE
  8
0
 10
320
 11
329.9
 20
421
 21
421
  0
LINE
  8
0
 10
329.9
 11
329.9
 20
421
 21
437.5
  0
LINE
  8
0
 10
329.9
 11
333.1
 20
437.5
 21
437.5
  0
LINE
  8
0
 10
333.1
 11
333.1
 20
437.5
 21
421
  0
LINE
  8
0
 10
333.1
 11
343
 20
421
 21
421
  0
LINE
  8
0
 10
343
 11
343
 20
421
 21
418
  0
LINE
  8
0
 10
343
 11
353
 20
418
 21
418
  0
LINE
  8
0
 10
353
 11
353
 20
418
 21
421
  0
LINE
  8
0
 10
353
 11
362.9
 20
421
 21
421
  0
LINE
  8
0
 10
362.9
 11
362.9
 20
421
 21
437.5
  0
LINE
  8
0
 10
362.9
 11
366.1
 20
437.5
 21
437.5
  0
LINE
  8
0
 10
366.1
 11
366.1
 20
437.5
 21
421
  0
LINE
  8
0
 10
366.1
 11
376
 20
421
 21
421
  0
LINE
  8
0
 10
376
 11
376
 20
421
 21
418
  0
LINE
  8
0
 10
376
 11
386
 20
418
 21
418
  0
LINE
  8
0
 10
386
 11
386
 20
418
 21
421
  0
LINE
  8
0
 10
386
 11
399
 20
421
 21
421
  0
LINE
  8
0
 10
399
 11
399
 20
421
 21
437.5
  0
LINE
  8
0
 10
399
 11
395.9
 20
437.5
 21
437.5
  0
LINE
  8
0
 10
395.9
 11
395.9
 20
437.5
 21
454
  0
LINE
  8
0
 10
395.9
 11
3.1
 20
454
 21
454
  0
LINE
  8
0
 10
3.1
 11
3.1
 20
454
 21
437.5
  0
LINE
  8
0
 10
3.1
 11
0
 20
437.5
 21
437.5
  0
LINE
  8
0
 10
0
 11
0
 20
437.5
 21
421
  0
LINE
  8
0
 10
0
 11
13
 20
421
 21
421
  0
LINE
  8
0
 10
13
 11
13
 20
421
 21
418
  0
LINE
  8
0
 10
13
 11
23
 20
418
 21
418
  0
LINE
  8
0
 10
23
 11
23
 20
418
 21
421
  0
LINE
  8
0
 10
23
 11
32.9
 20
383
 21
383
  0
LINE
  8
0
 10
32.9
 11
32.9
 20
383
 21
399.5
  0
LINE
  8
0
 10
32.9
 11
36.1
 20
399.5
 21
399.5
  0
LINE
  8
0
 10
36.1
 11
36.1
 20
399.5
 21
383
  0
LINE
  8
0
 10
36.1
 11
46
 20
383
 21
383
  0
LINE
  8
0
 10
46
 11
46
 20
383
 21
380
  0
LINE
  8
0
 10
46
 11
56
 20
380
 21
380
  0
LINE
  8
0
 10
56
 11
56
 20
380
 21
383
  0
LINE
  8
0
 10
56
 11
65.9
 20
383
 21
383
  0
LINE
  8
0
 10
65.9
 11
65.9
 20
383
 21
399.5
  0
LINE
  8
0
 10
65.9
 11
69.1
 20
399.5
 21
399.5
  0
LINE
  8
0
 10
69.1
 11
69.1
 20
399.5
 21
383
  0
LINE
  8
0
 10
69.1
 11
79
 20
383
 21
383
  0
LINE
  8
0
 10
79
 11
79
 20
383
 21
380
  0
LINE
  8
0
 10
79
 11
89
 20
380
 21
380
  0
LINE
  8
0
 10
89
 11
89
 20
380
 21
383
  0
LINE
  8
0
 10
89
 11
98.9
 20
383
 21
383
  0
LINE
  8
0
 10
98.9
 11
98.9
 20
383
 21
399.5
  0
LINE
  8
0
 10
98.9
 11
102.1
 20
399.5
 21
399.5
  0
LINE
  8
0
 10
102.1
 11
102.1
 20
399.5
 21
383
  0
LINE
  8
0
 10
102.1
 11
112
 20
383
 21
383
  0
LINE
  8
0
 10
112
 11
112
 20
383
 21
380
  0
LINE
  8
0
 10
112
 11
122
 20
380
 21
380
  0
LINE
  8
0
 10
122
 11
122
 20
380
 21
383
  0
LINE
  8
0
 10
122
 11
131.9
 20
383
 21
383
  0
LINE
  8
0
 10
131.9
 11
131.9
 20
383
 21
399.5
  0
LINE
  8
0
 10
131.9
 11
135.1
 20
399.5
 21
399.5
  0
LINE
  8
0
 10
135.1
 11
135.1
 20
399.5
 21
383
  0
LINE
  8
0
 10
135.1
 11
145
 20
383
 21
383
  0
LINE
  8
0
 10
145
 11
145
 20
383
 21
380
  0
LINE
  8
0
 10
145
 11
155
 20
380
 21
380
  0
LINE
  8
0
 10
155
 11
155
 20
380
 21
383
  0
LINE
  8
0
 10
155
 11
164.9
 20
383
 21
383
  0
LINE
  8
0
 10
164.9
 11
164.9
 20
383
 21
399.5
  0
LINE
  8
0
 10
164.9
 11
168.1
 20
399.5
 21
399.5
  0
LINE
  8
0
 10
168.1
 11
168.1
 20
399.5
 21
383
  0
LINE
  8
0
 10
168.1
 11
178
 20
383
 21
383
  0
LINE
  8
0
 10
178
 11
178
 20
383
 21
380
  0
LINE
  8
0
 10
178
 11
188
 20
380
 21
380
  0
LINE
  8
0
 10
188
 11
188
 20
380
 21
383
  0
LINE
  8
0
 10
188
 11
197.9
 20
383
 21
383
  0
LINE
  8
0
 10
197.9
 11
197.9
 20
383
 21
399.5
  0
LINE
  8
0
 10
197.9
 11
201.1
 20
399.5
 21
399.5
  0
LINE
  8
0
 10
201.1
 11
201.1
 20
399.5
 21
383
  0
LINE
  8
0
 10
201.1
 11
211
 20
383
 21
383
  0
LINE
  8
0
 10
211
 11
211
 20
383
 21
380
  0
LINE
  8
0
 10
211
 11
221
 20
380
 21
380
  0
LINE
  8
0
 10
221
 11
221
 20
380
 21
383
  0
LINE
  8
0
 10
221
 11
230.9
 20
383
 21
383
  0
LINE
  8
0
 10
230.9
 11
230.9
 20
383
 21
399.5
  0
LINE
  8
0
 10
230.9
 11
234.1
 20
399.5
 21
399.5
  0
LINE
  8
0
 10
234.1
 11
234.1
 20
399.5
 21
383
  0
LINE
  8
0
 10
234.1
 11
244
 20
383
 21
383
  0
LINE
  8
0
 10
244
 11
244
 20
383
 21
380
  0
LINE
  8
0
 10
244
 11
254
 20
380
 21
380
  0
LINE
  8
0
 10
254
 11
254
 20
380
 21
383
  0
LINE
  8
0
 10
254
 11
263.9
 20
383
 21
383
  0
LINE
  8
0
 10
263.9
 11
263.9
 20
383
 21
399.5
  0
LINE
  8
0
 10
263.9
 11
267.1
 20
399.5
 21
399.5
  0
LINE
  8
0
 10
267.1
 11
267.1
 20
399.5
 21
383
  0
LINE
  8
0
 10
267.1
 11
277
 20
383
 21
383
  0
LINE
  8
0
 10
277
 11
277
 20
383
 21
380
  0
LINE
  8
0
 10
277
 11
287
 20
380
 21
380
  0
LINE
  8
0
 10
287
 11
287
 20
380
 21
383
  0
LINE
  8
0
 10
287
 11
296.9
 20
383
 21
383
  0
LINE
  8
0
 10
296.9
 11
296.9
 20
383
 21
399.5
  0
LINE
  8
0
 10
296.9
 11
300.1
 20
399.5
 21
399.5
  0
LINE
  8
0
 10
300.1
 11
300.1
 20
399.5
 21
383
  0
LINE
  8
0
 10
300.1
 11
310
 20
383
 21
383
  0
LINE
  8
0
 10
310
 11
310
 20
383
 21
380
  0
LINE
  8
0
 10
310
 11
320
 20
380
 21
380
  0
LINE
  8
0
 10
320
 11
320
 20
380
 21
383
  0
LINE
  8
0
 10
320
 11
329.9
 20
383
 21
383
  0
LINE
  8
0
 10
329.9
 11
329.9
 20
383
 21
399.5
  0
LINE
  8
0
 10
329.9
 11
333.1
 20
399.5
 21
399.5
  0
LINE
  8
0
 10
333.1
 11
333.1
 20
399.5
 21
383
  0
LINE
  8
0
 10
333.1
 11
343
 20
383
 21
383
  0
LINE
  8
0
 10
343
 11
343
 20
383
 21
380
  0
LINE
  8
0
 10
343
 11
353
 20
380
 21
380
  0
LINE
  8
0
 10
353
 11
353
 20
380
 21
383
  0
LINE
  8
0
 10
353
 11
362.9
 20
383
 21
383
  0
LINE
  8
0
 10
362.9
 11
362.9
 20
383
 21
399.5
  0
LINE
  8
0
 10
362.9
 11
366.1
 20
399.5
 21
399.5
  0
LINE
  8
0
 10
366.1
 11
366.1
 20
399.5
 21
383
  0
LINE
  8
0
 10
366.1
 11
376
 20
383
 21
383
  0
LINE
  8
0
 10
376
 11
376
 20
383
 21
380
  0
LINE
  8
0
 10
376
 11
386
 20
380
 21
380
  0
LINE
  8
0
 10
386
 11
386
 20
380
 21
383
  0
LINE
  8
0
 10
386
 11
399
 20
383
 21
383
  0
LINE
  8
0
 10
399
 11
399
 20
383
 21
399.5
  0
LINE
  8
0
 10
399
 11
395.9
 20
399.5
 21
399.5
  0
LINE
  8
0
 10
395.9
 11
395.9
 20
399.5
 21
416
  0
LINE
  8
0
 10
395.9
 11
3.1
 20
416
 21
416
  0
LINE
  8
0
 10
3.1
 11
3.1
 20
416
 21
399.5
  0
LINE
  8
0
 10
3.1
 11
0
 20
399.5
 21
399.5
  0
LINE
  8
0
 10
0
 11
0
 20
399.5
 21
383
  0
LINE
  8
0
 10
0
 11
13
 20
383
 21
383
  0
LINE
  8
0
 10
13
 11
13
 20
383
 21
380
  0
LINE
  8
0
 10
13
 11
23
 20
380
 21
380
  0
LINE
  8
0
 10
23
 11
23
 20
380
 21
383
  0
LINE
  8
0
 10
23
 11
32.9
 20
345
 21
345
  0
LINE
  8
0
 10
32.9
 11
32.9
 20
345
 21
361.5
  0
LINE
  8
0
 10
32.9
 11
36.1
 20
361.5
 21
361.5
  0
LINE
  8
0
 10
36.1
 11
36.1
 20
361.5
 21
345
  0
LINE
  8
0
 10
36.1
 11
46
 20
345
 21
345
  0
LINE
  8
0
 10
46
 11
46
 20
345
 21
342
  0
LINE
  8
0
 10
46
 11
56
 20
342
 21
342
  0
LINE
  8
0
 10
56
 11
56
 20
342
 21
345
  0
LINE
  8
0
 10
56
 11
65.9
 20
345
 21
345
  0
LINE
  8
0
 10
65.9
 11
65.9
 20
345
 21
361.5
  0
LINE
  8
0
 10
65.9
 11
69.1
 20
361.5
 21
361.5
  0
LINE
  8
0
 10
69.1
 11
69.1
 20
361.5
 21
345
  0
LINE
  8
0
 10
69.1
 11
79
 20
345
 21
345
  0
LINE
  8
0
 10
79
 11
79
 20
345
 21
342
  0
LINE
  8
0
 10
79
 11
89
 20
342
 21
342
  0
LINE
  8
0
 10
89
 11
89
 20
342
 21
345
  0
LINE
  8
0
 10
89
 11
98.9
 20
345
 21
345
  0
LINE
  8
0
 10
98.9
 11
98.9
 20
345
 21
361.5
  0
LINE
  8
0
 10
98.9
 11
102.1
 20
361.5
 21
361.5
  0
LINE
  8
0
 10
102.1
 11
102.1
 20
361.5
 21
345
  0
LINE
  8
0
 10
102.1
 11
112
 20
345
 21
345
  0
LINE
  8
0
 10
112
 11
112
 20
345
 21
342
  0
LINE
  8
0
 10
112
 11
122
 20
342
 21
342
  0
LINE
  8
0
 10
122
 11
122
 20
342
 21
345
  0
LINE
  8
0
 10
122
 11
131.9
 20
345
 21
345
  0
LINE
  8
0
 10
131.9
 11
131.9
 20
345
 21
361.5
  0
LINE
  8
0
 10
131.9
 11
135.1
 20
361.5
 21
361.5
  0
LINE
  8
0
 10
135.1
 11
135.1
 20
361.5
 21
345
  0
LINE
  8
0
 10
135.1
 11
145
 20
345
 21
345
  0
LINE
  8
0
 10
145
 11
145
 20
345
 21
342
  0
LINE
  8
0
 10
145
 11
155
 20
342
 21
342
  0
LINE
  8
0
 10
155
 11
155
 20
342
 21
345
  0
LINE
  8
0
 10
155
 11
164.9
 20
345
 21
345
  0
LINE
  8
0
 10
164.9
 11
164.9
 20
345
 21
361.5
  0
LINE
  8
0
 10
164.9
 11
168.1
 20
361.5
 21
361.5
  0
LINE
  8
0
 10
168.1
 11
168.1
 20
361.5
 21
345
  0
LINE
  8
0
 10
168.1
 11
178
 20
345
 21
345
  0
LINE
  8
0
 10
178
 11
178
 20
345
 21
342
  0
LINE
  8
0
 10
178
 11
188
 20
342
 21
342
  0
LINE
  8
0
 10
188
 11
188
 20
342
 21
345
  0
LINE
  8
0
 10
188
 11
197.9
 20
345
 21
345
  0
LINE
  8
0
 10
197.9
 11
197.9
 20
345
 21
361.5
  0
LINE
  8
0
 10
197.9
 11
201.1
 20
361.5
 21
361.5
  0
LINE
  8
0
 10
201.1
 11
201.1
 20
361.5
 21
345
  0
LINE
  8
0
 10
201.1
 11
211
 20
345
 21
345
  0
LINE
  8
0
 10
211
 11
211
 20
345
 21
342
  0
LINE
  8
0
 10
211
 11
221
 20
342
 21
342
  0
LINE
  8
0
 10
221
 11
221
 20
342
 21
345
  0
LINE
  8
0
 10
221
 11
230.9
 20
345
 21
345
  0
LINE
  8
0
 10
230.9
 11
230.9
 20
345
 21
361.5
  0
LINE
  8
0
 10
230.9
 11
234.1
 20
361.5
 21
361.5
  0
LINE
  8
0
 10
234.1
 11
234.1
 20
361.5
 21
345
  0
LINE
  8
0
 10
234.1
 11
244
 20
345
 21
345
  0
LINE
  8
0
 10
244
 11
244
 20
345
 21
342
  0
LINE
  8
0
 10
244
 11
254
 20
342
 21
342
  0
LINE
  8
0
 10
254
 11
254
 20
342
 21
345
  0
LINE
  8
0
 10
254
 11
263.9
 20
345
 21
345
  0
LINE
  8
0
 10
263.9
 11
263.9
 20
345
 21
361.5
  0
LINE
  8
0
 10
263.9
 11
267.1
 20
361.5
 21
361.5
  0
LINE
  8
0
 10
267.1
 11
267.1
 20
361.5
 21
345
  0
LINE
  8
0
 10
267.1
 11
277
 20
345
 21
345
  0
LINE
  8
0
 10
277
 11
277
 20
345
 21
342
  0
LINE
  8
0
 10
277
 11
287
 20
342
 21
342
  0
LINE
  8
0
 10
287
 11
287
 20
342
 21
345
  0
LINE
  8
0
 10
287
 11
296.9
 20
345
 21
345
  0
LINE
  8
0
 10
296.9
 11
296.9
 20
345
 21
361.5
  0
LINE
  8
0
 10
296.9
 11
300.1
 20
361.5
 21
361.5
  0
LINE
  8
0
 10
300.1
 11
300.1
 20
361.5
 21
345
  0
LINE
  8
0
 10
300.1
 11
310
 20
345
 21
345
  0
LINE
  8
0
 10
310
 11
310
 20
345
 21
342
  0
LINE
  8
0
 10
310
 11
320
 20
342
 21
342
  0
LINE
  8
0
 10
320
 11
320
 20
342
 21
345
  0
LINE
  8
0
 10
320
 11
329.9
 20
345
 21
345
  0
LINE
  8
0
 10
329.9
 11
329.9
 20
345
 21
361.5
  0
LINE
  8
0
 10
329.9
 11
333.1
 20
361.5
 21
361.5
  0
LINE
  8
0
 10
333.1
 11
333.1
 20
361.5
 21
345
  0
LINE
  8
0
 10
333.1
 11
343
 20
345
 21
345
  0
LINE
  8
0
 10
343
 11
343
 20
345
 21
342
  0
LINE
  8
0
 10
343
 11
353
 20
342
 21
342
  0
LINE
  8
0
 10
353
 11
353
 20
342
 21
345
  0
LINE
  8
0
 10
353
 11
362.9
 20
345
 21
345
  0
LINE
  8
0
 10
362.9
 11
362.9
 20
345
 21
361.5
  0
LINE
  8
0
 10
362.9
 11
366.1
 20
361.5
 21
361.5
  0
LINE
  8
0
 10
366.1
 11
366.1
 20
361.5
 21
345
  0
LINE
  8
0
 10
366.1
 11
376
 20
345
 21
345
  0
LINE
  8
0
 10
376
 11
376
 20
345
 21
342
  0
LINE
  8
0
 10
376
 11
386
 20
342
 21
342
  0
LINE
  8
0
 10
386
 11
386
 20
342
 21
345
  0
LINE
  8
0
 10
386
 11
399
 20
345
 21
345
  0
LINE
  8
0
 10
399
 11
399
 20
345
 21
361.5
  0
LINE
  8
0
 10
399
 11
395.9
 20
361.5
 21
361.5
  0
LINE
  8
0
 10
395.9
 11
395.9
 20
361.5
 21
378
  0
LINE
  8
0
 10
395.9
 11
3.1
 20
378
 21
378
  0
LINE
  8
0
 10
3.1
 11
3.1
 20
378
 21
361.5
  0
LINE
  8
0
 10
3.1
 11
0
 20
361.5
 21
361.5
  0
LINE
  8
0
 10
0
 11
0
 20
361.5
 21
345
  0
LINE
  8
0
 10
0
 11
13
 20
345
 21
345
  0
LINE
  8
0
 10
13
 11
13
 20
345
 21
342
  0
LINE
  8
0
 10
13
 11
23
 20
342
 21
342
  0
LINE
  8
0
 10
23
 11
23
 20
342
 21
345
  0
LINE
  8
0
 10
23
 11
32.9
 20
307
 21
307
  0
LINE
  8
0
 10
32.9
 11
32.9
 20
307
 21
323.5
  0
LINE
  8
0
 10
32.9
 11
36.1
 20
323.5
 21
323.5
  0
LINE
  8
0
 10
36.1
 11
36.1
 20
323.5
 21
307
  0
LINE
  8
0
 10
36.1
 11
46
 20
307
 21
307
  0
LINE
  8
0
 10
46
 11
46
 20
307
 21
304
  0
LINE
  8
0
 10
46
 11
56
 20
304
 21
304
  0
LINE
  8
0
 10
56
 11
56
 20
304
 21
307
  0
LINE
  8
0
 10
56
 11
65.9
 20
307
 21
307
  0
LINE
  8
0
 10
65.9
 11
65.9
 20
307
 21
323.5
  0
LINE
  8
0
 10
65.9
 11
69.1
 20
323.5
 21
323.5
  0
LINE
  8
0
 10
69.1
 11
69.1
 20
323.5
 21
307
  0
LINE
  8
0
 10
69.1
 11
79
 20
307
 21
307
  0
LINE
  8
0
 10
79
 11
79
 20
307
 21
304
  0
LINE
  8
0
 10
79
 11
89
 20
304
 21
304
  0
LINE
  8
0
 10
89
 11
89
 20
304
 21
307
  0
LINE
  8
0
 10
89
 11
98.9
 20
307
 21
307
  0
LINE
  8
0
 10
98.9
 11
98.9
 20
307
 21
323.5
  0
LINE
  8
0
 10
98.9
 11
102.1
 20
323.5
 21
323.5
  0
LINE
  8
0
 10
102.1
 11
102.1
 20
323.5
 21
307
  0
LINE
  8
0
 10
102.1
 11
112
 20
307
 21
307
  0
LINE
  8
0
 10
112
 11
112
 20
307
 21
304
  0
LINE
  8
0
 10
112
 11
122
 20
304
 21
304
  0
LINE
  8
0
 10
122
 11
122
 20
304
 21
307
  0
LINE
  8
0
 10
122
 11
131.9
 20
307
 21
307
  0
LINE
  8
0
 10
131.9
 11
131.9
 20
307
 21
323.5
  0
LINE
  8
0
 10
131.9
 11
135.1
 20
323.5
 21
323.5
  0
LINE
  8
0
 10
135.1
 11
135.1
 20
323.5
 21
307
  0
LINE
  8
0
 10
135.1
 11
145
 20
307
 21
307
  0
LINE
  8
0
 10
145
 11
145
 20
307
 21
304
  0
LINE
  8
0
 10
145
 11
155
 20
304
 21
304
  0
LINE
  8
0
 10
155
 11
155
 20
304
 21
307
  0
LINE
  8
0
 10
155
 11
164.9
 20
307
 21
307
  0
LINE
  8
0
 10
164.9
 11
164.9
 20
307
 21
323.5
  0
LINE
  8
0
 10
164.9
 11
168.1
 20
323.5
 21
323.5
  0
LINE
  8
0
 10
168.1
 11
168.1
 20
323.5
 21
307
  0
LINE
  8
0
 10
168.1
 11
178
 20
307
 21
307
  0
LINE
  8
0
 10
178
 11
178
 20
307
 21
304
  0
LINE
  8
0
 10
178
 11
188
 20
304
 21
304
  0
LINE
  8
0
 10
188
 11
188
 20
304
 21
307
  0
LINE
  8
0
 10
188
 11
197.9
 20
307
 21
307
  0
LINE
  8
0
 10
197.9
 11
197.9
 20
307
 21
323.5
  0
LINE
  8
0
 10
197.9
 11
201.1
 20
323.5
 21
323.5
  0
LINE
  8
0
 10
201.1
 11
201.1
 20
323.5
 21
307
  0
LINE
  8
0
 10
201.1
 11
211
 20
307
 21
307
  0
LINE
  8
0
 10
211
 11
211
 20
307
 21
304
  0
LINE
  8
0
 10
211
 11
221
 20
304
 21
304
  0
LINE
  8
0
 10
221
 11
221
 20
304
 21
307
  0
LINE
  8
0
 10
221
 11
230.9
 20
307
 21
307
  0
LINE
  8
0
 10
230.9
 11
230.9
 20
307
 21
323.5
  0
LINE
  8
0
 10
230.9
 11
234.1
 20
323.5
 21
323.5
  0
LINE
  8
0
 10
234.1
 11
234.1
 20
323.5
 21
307
  0
LINE
  8
0
 10
234.1
 11
244
 20
307
 21
307
  0
LINE
  8
0
 10
244
 11
244
 20
307
 21
304
  0
LINE
  8
0
 10
244
 11
254
 20
304
 21
304
  0
LINE
  8
0
 10
254
 11
254
 20
304
 21
307
  0
LINE
  8
0
 10
254
 11
263.9
 20
307
 21
307
  0
LINE
  8
0
 10
263.9
 11
263.9
 20
307
 21
323.5
  0
LINE
  8
0
 10
263.9
 11
267.1
 20
323.5
 21
323.5
  0
LINE
  8
0
 10
267.1
 11
267.1
 20
323.5
 21
307
  0
LINE
  8
0
 10
267.1
 11
277
 20
307
 21
307
  0
LINE
  8
0
 10
277
 11
277
 20
307
 21
304
  0
LINE
  8
0
 10
277
 11
287
 20
304
 21
304
  0
LINE
  8
0
 10
287
 11
287
 20
304
 21
307
  0
LINE
  8
0
 10
287
 11
296.9
 20
307
 21
307
  0
LINE
  8
0
 10
296.9
 11
296.9
 20
307
 21
323.5
  0
LINE
  8
0
 10
296.9
 11
300.1
 20
323.5
 21
323.5
  0
LINE
  8
0
 10
300.1
 11
300.1
 20
323.5
 21
307
  0
LINE
  8
0
 10
300.1
 11
310
 20
307
 21
307
  0
LINE
  8
0
 10
310
 11
310
 20
307
 21
304
  0
LINE
  8
0
 10
310
 11
320
 20
304
 21
304
  0
LINE
  8
0
 10
320
 11
320
 20
304
 21
307
  0
LINE
  8
0
 10
320
 11
329.9
 20
307
 21
307
  0
LINE
  8
0
 10
329.9
 11
329.9
 20
307
 21
323.5
  0
LINE
  8
0
 10
329.9
 11
333.1
 20
323.5
 21
323.5
  0
LINE
  8
0
 10
333.1
 11
333.1
 20
323.5
 21
307
  0
LINE
  8
0
 10
333.1
 11
343
 20
307
 21
307
  0
LINE
  8
0
 10
343
 11
343
 20
307
 21
304
  0
LINE
  8
0
 10
343
 11
353
 20
304
 21
304
  0
LINE
  8
0
 10
353
 11
353
 20
304
 21
307
  0
LINE
  8
0
 10
353
 11
362.9
 20
307
 21
307
  0
LINE
  8
0
 10
362.9
 11
362.9
 20
307
 21
323.5
  0
LINE
  8
0
 10
362.9
 11
366.1
 20
323.5
 21
323.5
  0
LINE
  8
0
 10
366.1
 11
366.1
 20
323.5
 21
307
  0
LINE
  8
0
 10
366.1
 11
376
 20
307
 21
307
  0
LINE
  8
0
 10
376
 11
376
 20
307
 21
304
  0
LINE
  8
0
 10
376
 11
386
 20
304
 21
304
  0
LINE
  8
0
 10
386
 11
386
 20
304
 21
307
  0
LINE
  8
0
 10
386
 11
399
 20
307
 21
307
  0
LINE
  8
0
 10
399
 11
399
 20
307
 21
323.5
  0
LINE
  8
0
 10
399
 11
395.9
 20
323.5
 21
323.5
  0
LINE
  8
0
 10
395.9
 11
395.9
 20
323.5
 21
340
  0
LINE
  8
0
 10
395.9
 11
3.1
 20
340
 21
340
  0
LINE
  8
0
 10
3.1
 11
3.1
 20
340
 21
323.5
  0
LINE
  8
0
 10
3.1
 11
0
 20
323.5
 21
323.5
  0
LINE
  8
0
 10
0
 11
0
 20
323.5
 21
307
  0
LINE
  8
0
 10
0
 11
13
 20
307
 21
307
  0
LINE
  8
0
 10
13
 11
13
 20
307
 21
304
  0
LINE
  8
0
 10
13
 11
23
 20
304
 21
304
  0
LINE
  8
0
 10
23
 11
23
 20
304
 21
307
  0
LINE
  8
0
 10
23
 11
32.9
 20
269
 21
269
  0
LINE
  8
0
 10
32.9
 11
32.9
 20
269
 21
285.5
  0
LINE
  8
0
 10
32.9
 11
36.1
 20
285.5
 21
285.5
  0
LINE
  8
0
 10
36.1
 11
36.1
 20
285.5
 21
269
  0
LINE
  8
0
 10
36.1
 11
46
 20
269
 21
269
  0
LINE
  8
0
 10
46
 11
46
 20
269
 21
266
  0
LINE
  8
0
 10
46
 11
56
 20
266
 21
266
  0
LINE
  8
0
 10
56
 11
56
 20
266
 21
269
  0
LINE
  8
0
 10
56
 11
65.9
 20
269
 21
269
  0
LINE
  8
0
 10
65.9
 11
65.9
 20
269
 21
285.5
  0
LINE
  8
0
 10
65.9
 11
69.1
 20
285.5
 21
285.5
  0
LINE
  8
0
 10
69.1
 11
69.1
 20
285.5
 21
269
  0
LINE
  8
0
 10
69.1
 11
79
 20
269
 21
269
  0
LINE
  8
0
 10
79
 11
79
 20
269
 21
266
  0
LINE
  8
0
 10
79
 11
89
 20
266
 21
266
  0
LINE
  8
0
 10
89
 11
89
 20
266
 21
269
  0
LINE
  8
0
 10
89
 11
98.9
 20
269
 21
269
  0
LINE
  8
0
 10
98.9
 11
98.9
 20
269
 21
285.5
  0
LINE
  8
0
 10
98.9
 11
102.1
 20
285.5
 21
285.5
  0
LINE
  8
0
 10
102.1
 11
102.1
 20
285.5
 21
269
  0
LINE
  8
0
 10
102.1
 11
112
 20
269
 21
269
  0
LINE
  8
0
 10
112
 11
112
 20
269
 21
266
  0
LINE
  8
0
 10
112
 11
122
 20
266
 21
266
  0
LINE
  8
0
 10
122
 11
122
 20
266
 21
269
  0
LINE
  8
0
 10
122
 11
131.9
 20
269
 21
269
  0
LINE
  8
0
 10
131.9
 11
131.9
 20
269
 21
285.5
  0
LINE
  8
0
 10
131.9
 11
135.1
 20
285.5
 21
285.5
  0
LINE
  8
0
 10
135.1
 11
135.1
 20
285.5
 21
269
  0
LINE
  8
0
 10
135.1
 11
145
 20
269
 21
269
  0
LINE
  8
0
 10
145
 11
145
 20
269
 21
266
  0
LINE
  8
0
 10
145
 11
155
 20
266
 21
266
  0
LINE
  8
0
 10
155
 11
155
 20
266
 21
269
  0
LINE
  8
0
 10
155
 11
164.9
 20
269
 21
269
  0
LINE
  8
0
 10
164.9
 11
164.9
 20
269
 21
285.5
  0
LINE
  8
0
 10
164.9
 11
168.1
 20
285.5
 21
285.5
  0
LINE
  8
0
 10
168.1
 11
168.1
 20
285.5
 21
269
  0
LINE
  8
0
 10
168.1
 11
178
 20
269
 21
269
  0
LINE
  8
0
 10
178
 11
178
 20
269
 21
266
  0
LINE
  8
0
 10
178
 11
188
 20
266
 21
266
  0
LINE
  8
0
 10
188
 11
188
 20
266
 21
269
  0
LINE
  8
0
 10
188
 11
197.9
 20
269
 21
269
  0
LINE
  8
0
 10
197.9
 11
197.9
 20
269
 21
285.5
  0
LINE
  8
0
 10
197.9
 11
201.1
 20
285.5
 21
285.5
  0
LINE
  8
0
 10
201.1
 11
201.1
 20
285.5
 21
269
  0
LINE
  8
0
 10
201.1
 11
211
 20
269
 21
269
  0
LINE
  8
0
 10
211
 11
211
 20
269
 21
266
  0
LINE
  8
0
 10
211
 11
221
 20
266
 21
266
  0
LINE
  8
0
 10
221
 11
221
 20
266
 21
269
  0
LINE
  8
0
 10
221
 11
230.9
 20
269
 21
269
  0
LINE
  8
0
 10
230.9
 11
230.9
 20
269
 21
285.5
  0
LINE
  8
0
 10
230.9
 11
234.1
 20
285.5
 21
285.5
  0
LINE
  8
0
 10
234.1
 11
234.1
 20
285.5
 21
269
  0
LINE
  8
0
 10
234.1
 11
244
 20
269
 21
269
  0
LINE
  8
0
 10
244
 11
244
 20
269
 21
266
  0
LINE
  8
0
 10
244
 11
254
 20
266
 21
266
  0
LINE
  8
0
 10
254
 11
254
 20
266
 21
269
  0
LINE
  8
0
 10
254
 11
263.9
 20
269
 21
269
  0
LINE
  8
0
 10
263.9
 11
263.9
 20
269
 21
285.5
  0
LINE
  8
0
 10
263.9
 11
267.1
 20
285.5
 21
285.5
  0
LINE
  8
0
 10
267.1
 11
267.1
 20
285.5
 21
269
  0
LINE
  8
0
 10
267.1
 11
277
 20
269
 21
269
  0
LINE
  8
0
 10
277
 11
277
 20
269
 21
266
  0
LINE
  8
0
 10
277
 11
287
 20
266
 21
266
  0
LINE
  8
0
 10
287
 11
287
 20
266
 21
269
  0
LINE
  8
0
 10
287
 11
296.9
 20
269
 21
269
  0
LINE
  8
0
 10
296.9
 11
296.9
 20
269
 21
285.5
  0
LINE
  8
0
 10
296.9
 11
300.1
 20
285.5
 21
285.5
  0
LINE
  8
0
 10
300.1
 11
300.1
 20
285.5
 21
269
  0
LINE
  8
0
 10
300.1
 11
310
 20
269
 21
269
  0
LINE
  8
0
 10
310
 11
310
 20
269
 21
266
  0
LINE
  8
0
 10
310
 11
320
 20
266
 21
266
  0
LINE
  8
0
 10
320
 11
320
 20
266
 21
269
  0
LINE
  8
0
 10
320
 11
329.9
 20
269
 21
269
  0
LINE
  8
0
 10
329.9
 11
329.9
 20
269
 21
285.5
  0
LINE
  8
0
 10
329.9
 11
333.1
 20
285.5
 21
285.5
  0
LINE
  8
0
 10
333.1
 11
333.1
 20
285.5
 21
269
  0
LINE
  8
0
 10
333.1
 11
343
 20
269
 21
269
  0
LINE
  8
0
 10
343
 11
343
 20
269
 21
266
  0
LINE
  8
0
 10
343
 11
353
 20
266
 21
266
  0
LINE
  8
0
 10
353
 11
353
 20
266
 21
269
  0
LINE
  8
0
 10
353
 11
362.9
 20
269
 21
269
  0
LINE
  8
0
 10
362.9
 11
362.9
 20
269
 21
285.5
  0
LINE
  8
0
 10
362.9
 11
366.1
 20
285.5
 21
285.5
  0
LINE
  8
0
 10
366.1
 11
366.1
 20
285.5
 21
269
  0
LINE
  8
0
 10
366.1
 11
376
 20
269
 21
269
  0
LINE
  8
0
 10
376
 11
376
 20
269
 21
266
  0
LINE
  8
0
 10
376
 11
386
 20
266
 21
266
  0
LINE
  8
0
 10
386
 11
386
 20
266
 21
269
  0
LINE
  8
0
 10
386
 11
399
 20
269
 21
269
  0
LINE
  8
0
 10
399
 11
399
 20
269
 21
285.5
  0
LINE
  8
0
 10
399
 11
395.9
 20
285.5
 21
285.5
  0
LINE
  8
0
 10
395.9
 11
395.9
 20
285.5
 21
302
  0
LINE
  8
0
 10
395.9
 11
3.1
 20
302
 21
302
  0
LINE
  8
0
 10
3.1
 11
3.1
 20
302
 21
285.5
  0
LINE
  8
0
 10
3.1
 11
0
 20
285.5
 21
285.5
  0
LINE
  8
0
 10
0
 11
0
 20
285.5
 21
269
  0
LINE
  8
0
 10
0
 11
13
 20
269
 21
269
  0
LINE
  8
0
 10
13
 11
13
 20
269
 21
266
  0
LINE
  8
0
 10
13
 11
23
 20
266
 21
266
  0
LINE
  8
0
 10
23
 11
23
 20
266
 21
269
  0
LINE
  8
0
 10
23
 11
32.9
 20
231
 21
231
  0
LINE
  8
0
 10
32.9
 11
32.9
 20
231
 21
247.5
  0
LINE
  8
0
 10
32.9
 11
36.1
 20
247.5
 21
247.5
  0
LINE
  8
0
 10
36.1
 11
36.1
 20
247.5
 21
231
  0
LINE
  8
0
 10
36.1
 11
46
 20
231
 21
231
  0
LINE
  8
0
 10
46
 11
46
 20
231
 21
228
  0
LINE
  8
0
 10
46
 11
56
 20
228
 21
228
  0
LINE
  8
0
 10
56
 11
56
 20
228
 21
231
  0
LINE
  8
0
 10
56
 11
65.9
 20
231
 21
231
  0
LINE
  8
0
 10
65.9
 11
65.9
 20
231
 21
247.5
  0
LINE
  8
0
 10
65.9
 11
69.1
 20
247.5
 21
247.5
  0
LINE
  8
0
 10
69.1
 11
69.1
 20
247.5
 21
231
  0
LINE
  8
0
 10
69.1
 11
79
 20
231
 21
231
  0
LINE
  8
0
 10
79
 11
79
 20
231
 21
228
  0
LINE
  8
0
 10
79
 11
89
 20
228
 21
228
  0
LINE
  8
0
 10
89
 11
89
 20
228
 21
231
  0
LINE
  8
0
 10
89
 11
98.9
 20
231
 21
231
  0
LINE
  8
0
 10
98.9
 11
98.9
 20
231
 21
247.5
  0
LINE
  8
0
 10
98.9
 11
102.1
 20
247.5
 21
247.5
  0
LINE
  8
0
 10
102.1
 11
102.1
 20
247.5
 21
231
  0
LINE
  8
0
 10
102.1
 11
112
 20
231
 21
231
  0
LINE
  8
0
 10
112
 11
112
 20
231
 21
228
  0
LINE
  8
0
 10
112
 11
122
 20
228
 21
228
  0
LINE
  8
0
 10
122
 11
122
 20
228
 21
231
  0
LINE
  8
0
 10
122
 11
131.9
 20
231
 21
231
  0
LINE
  8
0
 10
131.9
 11
131.9
 20
231
 21
247.5
  0
LINE
  8
0
 10
131.9
 11
135.1
 20
247.5
 21
247.5
  0
LINE
  8
0
 10
135.1
 11
135.1
 20
247.5
 21
231
  0
LINE
  8
0
 10
135.1
 11
145
 20
231
 21
231
  0
LINE
  8
0
 10
145
 11
145
 20
231
 21
228
  0
LINE
  8
0
 10
145
 11
155
 20
228
 21
228
  0
LINE
  8
0
 10
155
 11
155
 20
228
 21
231
  0
LINE
  8
0
 10
155
 11
164.9
 20
231
 21
231
  0
LINE
  8
0
 10
164.9
 11
164.9
 20
231
 21
247.5
  0
LINE
  8
0
 10
164.9
 11
168.1
 20
247.5
 21
247.5
  0
LINE
  8
0
 10
168.1
 11
168.1
 20
247.5
 21
231
  0
LINE
  8
0
 10
168.1
 11
178
 20
231
 21
231
  0
LINE
  8
0
 10
178
 11
178
 20
231
 21
228
  0
LINE
  8
0
 10
178
 11
188
 20
228
 21
228
  0
LINE
  8
0
 10
188
 11
188
 20
228
 21
231
  0
LINE
  8
0
 10
188
 11
197.9
 20
231
 21
231
  0
LINE
  8
0
 10
197.9
 11
197.9
 20
231
 21
247.5
  0
LINE
  8
0
 10
197.9
 11
201.1
 20
247.5
 21
247.5
  0
LINE
  8
0
 10
201.1
 11
201.1
 20
247.5
 21
231
  0
LINE
  8
0
 10
201.1
 11
211
 20
231
 21
231
  0
LINE
  8
0
 10
211
 11
211
 20
231
 21
228
  0
LINE
  8
0
 10
211
 11
221
 20
228
 21
228
  0
LINE
  8
0
 10
221
 11
221
 20
228
 21
231
  0
LINE
  8
0
 10
221
 11
230.9
 20
231
 21
231
  0
LINE
  8
0
 10
230.9
 11
230.9
 20
231
 21
247.5
  0
LINE
  8
0
 10
230.9
 11
234.1
 20
247.5
 21
247.5
  0
LINE
  8
0
 10
234.1
 11
234.1
 20
247.5
 21
231
  0
LINE
  8
0
 10
234.1
 11
244
 20
231
 21
231
  0
LINE
  8
0
 10
244
 11
244
 20
231
 21
228
  0
LINE
  8
0
 10
244
 11
254
 20
228
 21
228
  0
LINE
  8
0
 10
254
 11
254
 20
228
 21
231
  0
LINE
  8
0
 10
254
 11
263.9
 20
231
 21
231
  0
LINE
  8
0
 10
263.9
 11
263.9
 20
231
 21
247.5
  0
LINE
  8
0
 10
263.9
 11
267.1
 20
247.5
 21
247.5
  0
LINE
  8
0
 10
267.1
 11
267.1
 20
247.5
 21
231
  0
LINE
  8
0
 10
267.1
 11
277
 20
231
 21
231
  0
LINE
  8
0
 10
277
 11
277
 20
231
 21
228
  0
LINE
  8
0
 10
277
 11
287
 20
228
 21
228
  0
LINE
  8
0
 10
287
 11
287
 20
228
 21
231
  0
LINE
  8
0
 10
287
 11
296.9
 20
231
 21
231
  0
LINE
  8
0
 10
296.9
 11
296.9
 20
231
 21
247.5
  0
LINE
  8
0
 10
296.9
 11
300.1
 20
247.5
 21
247.5
  0
LINE
  8
0
 10
300.1
 11
300.1
 20
247.5
 21
231
  0
LINE
  8
0
 10
300.1
 11
310
 20
231
 21
231
  0
LINE
  8
0
 10
310
 11
310
 20
231
 21
228
  0
LINE
  8
0
 10
310
 11
320
 20
228
 21
228
  0
LINE
  8
0
 10
320
 11
320
 20
228
 21
231
  0
LINE
  8
0
 10
320
 11
329.9
 20
231
 21
231
  0
LINE
  8
0
 10
329.9
 11
329.9
 20
231
 21
247.5
  0
LINE
  8
0
 10
329.9
 11
333.1
 20
247.5
 21
247.5
  0
LINE
  8
0
 10
333.1
 11
333.1
 20
247.5
 21
231
  0
LINE
  8
0
 10
333.1
 11
343
 20
231
 21
231
  0
LINE
  8
0
 10
343
 11
343
 20
231
 21
228
  0
LINE
  8
0
 10
343
 11
353
 20
228
 21
228
  0
LINE
  8
0
 10
353
 11
353
 20
228
 21
231
  0
LINE
  8
0
 10
353
 11
362.9
 20
231
 21
231
  0
LINE
  8
0
 10
362.9
 11
362.9
 20
231
 21
247.5
  0
LINE
  8
0
 10
362.9
 11
366.1
 20
247.5
 21
247.5
  0
LINE
  8
0
 10
366.1
 11
366.1
 20
247.5
 21
231
  0
LINE
  8
0
 10
366.1
 11
376
 20
231
 21
231
  0
LINE
  8
0
 10
376
 11
376
 20
231
 21
228
  0
LINE
  8
0
 10
376
 11
386
 20
228
 21
228
  0
LINE
  8
0
 10
386
 11
386
 20
228
 21
231
  0
LINE
  8
0
 10
386
 11
399
 20
231
 21
231
  0
LINE
  8
0
 10
399
 11
399
 20
231
 21
247.5
  0
LINE
  8
0
 10
399
 11
395.9
 20
247.5
 21
247.5
  0
LINE
  8
0
 10
395.9
 11
395.9
 20
247.5
 21
264
  0
LINE
  8
0
 10
395.9
 11
3.1
 20
264
 21
264
  0
LINE
  8
0
 10
3.1
 11
3.1
 20
264
 21
247.5
  0
LINE
  8
0
 10
3.1
 11
0
 20
247.5
 21
247.5
  0
LINE
  8
0
 10
0
 11
0
 20
247.5
 21
231
  0
LINE
  8
0
 10
0
 11
13
 20
231
 21
231
  0
LINE
  8
0
 10
13
 11
13
 20
231
 21
228
  0
LINE
  8
0
 10
13
 11
23
 20
228
 21
228
  0
LINE
  8
0
 10
23
 11
23
 20
228
 21
231
  0
LINE
  8
0
 10
23
 11
32.9
 20
193
 21
193
  0
LINE
  8
0
 10
32.9
 11
32.9
 20
193
 21
209.5
  0
LINE
  8
0
 10
32.9
 11
36.1
 20
209.5
 21
209.5
  0
LINE
  8
0
 10
36.1
 11
36.1
 20
209.5
 21
193
  0
LINE
  8
0
 10
36.1
 11
46
 20
193
 21
193
  0
LINE
  8
0
 10
46
 11
46
 20
193
 21
190
  0
LINE
  8
0
 10
46
 11
56
 20
190
 21
190
  0
LINE
  8
0
 10
56
 11
56
 20
190
 21
193
  0
LINE
  8
0
 10
56
 11
65.9
 20
193
 21
193
  0
LINE
  8
0
 10
65.9
 11
65.9
 20
193
 21
209.5
  0
LINE
  8
0
 10
65.9
 11
69.1
 20
209.5
 21
209.5
  0
LINE
  8
0
 10
69.1
 11
69.1
 20
209.5
 21
193
  0
LINE
  8
0
 10
69.1
 11
79
 20
193
 21
193
  0
LINE
  8
0
 10
79
 11
79
 20
193
 21
190
  0
LINE
  8
0
 10
79
 11
89
 20
190
 21
190
  0
LINE
  8
0
 10
89
 11
89
 20
190
 21
193
  0
LINE
  8
0
 10
89
 11
98.9
 20
193
 21
193
  0
LINE
  8
0
 10
98.9
 11
98.9
 20
193
 21
209.5
  0
LINE
  8
0
 10
98.9
 11
102.1
 20
209.5
 21
209.5
  0
LINE
  8
0
 10
102.1
 11
102.1
 20
209.5
 21
193
  0
LINE
  8
0
 10
102.1
 11
112
 20
193
 21
193
  0
LINE
  8
0
 10
112
 11
112
 20
193
 21
190
  0
LINE
  8
0
 10
112
 11
122
 20
190
 21
190
  0
LINE
  8
0
 10
122
 11
122
 20
190
 21
193
  0
LINE
  8
0
 10
122
 11
131.9
 20
193
 21
193
  0
LINE
  8
0
 10
131.9
 11
131.9
 20
193
 21
209.5
  0
LINE
  8
0
 10
131.9
 11
135.1
 20
209.5
 21
209.5
  0
LINE
  8
0
 10
135.1
 11
135.1
 20
209.5
 21
193
  0
LINE
  8
0
 10
135.1
 11
145
 20
193
 21
193
  0
LINE
  8
0
 10
145
 11
145
 20
193
 21
190
  0
LINE
  8
0
 10
145
 11
155
 20
190
 21
190
  0
LINE
  8
0
 10
155
 11
155
 20
190
 21
193
  0
LINE
  8
0
 10
155
 11
164.9
 20
193
 21
193
  0
LINE
  8
0
 10
164.9
 11
164.9
 20
193
 21
209.5
  0
LINE
  8
0
 10
164.9
 11
168.1
 20
209.5
 21
209.5
  0
LINE
  8
0
 10
168.1
 11
168.1
 20
209.5
 21
193
  0
LINE
  8
0
 10
168.1
 11
178
 20
193
 21
193
  0
LINE
  8
0
 10
178
 11
178
 20
193
 21
190
  0
LINE
  8
0
 10
178
 11
188
 20
190
 21
190
  0
LINE
  8
0
 10
188
 11
188
 20
190
 21
193
  0
LINE
  8
0
 10
188
 11
197.9
 20
193
 21
193
  0
LINE
  8
0
 10
197.9
 11
197.9
 20
193
 21
209.5
  0
LINE
  8
0
 10
197.9
 11
201.1
 20
209.5
 21
209.5
  0
LINE
  8
0
 10
201.1
 11
201.1
 20
209.5
 21
193
  0
LINE
  8
0
 10
201.1
 11
211
 20
193
 21
193
  0
LINE
  8
0
 10
211
 11
211
 20
193
 21
190
  0
LINE
  8
0
 10
211
 11
221
 20
190
 21
190
  0
LINE
  8
0
 10
221
 11
221
 20
190
 21
193
  0
LINE
  8
0
 10
221
 11
230.9
 20
193
 21
193
  0
LINE
  8
0
 10
230.9
 11
230.9
 20
193
 21
209.5
  0
LINE
  8
0
 10
230.9
 11
234.1
 20
209.5
 21
209.5
  0
LINE
  8
0
 10
234.1
 11
234.1
 20
209.5
 21
193
  0
LINE
  8
0
 10
234.1
 11
244
 20
193
 21
193
  0
LINE
  8
0
 10
244
 11
244
 20
193
 21
190
  0
LINE
  8
0
 10
244
 11
254
 20
190
 21
190
  0
LINE
  8
0
 10
254
 11
254
 20
190
 21
193
  0
LINE
  8
0
 10
254
 11
263.9
 20
193
 21
193
  0
LINE
  8
0
 10
263.9
 11
263.9
 20
193
 21
209.5
  0
LINE
  8
0
 10
263.9
 11
267.1
 20
209.5
 21
209.5
  0
LINE
  8
0
 10
267.1
 11
267.1
 20
209.5
 21
193
  0
LINE
  8
0
 10
267.1
 11
277
 20
193
 21
193
  0
LINE
  8
0
 10
277
 11
277
 20
193
 21
190
  0
LINE
  8
0
 10
277
 11
287
 20
190
 21
190
  0
LINE
  8
0
 10
287
 11
287
 20
190
 21
193
  0
LINE
  8
0
 10
287
 11
296.9
 20
193
 21
193
  0
LINE
  8
0
 10
296.9
 11
296.9
 20
193
 21
209.5
  0
LINE
  8
0
 10
296.9
 11
300.1
 20
209.5
 21
209.5
  0
LINE
  8
0
 10
300.1
 11
300.1
 20
209.5
 21
193
  0
LINE
  8
0
 10
300.1
 11
310
 20
193
 21
193
  0
LINE
  8
0
 10
310
 11
310
 20
193
 21
190
  0
LINE
  8
0
 10
310
 11
320
 20
190
 21
190
  0
LINE
  8
0
 10
320
 11
320
 20
190
 21
193
  0
LINE
  8
0
 10
320
 11
329.9
 20
193
 21
193
  0
LINE
  8
0
 10
329.9
 11
329.9
 20
193
 21
209.5
  0
LINE
  8
0
 10
329.9
 11
333.1
 20
209.5
 21
209.5
  0
LINE
  8
0
 10
333.1
 11
333.1
 20
209.5
 21
193
  0
LINE
  8
0
 10
333.1
 11
343
 20
193
 21
193
  0
LINE
  8
0
 10
343
 11
343
 20
193
 21
190
  0
LINE
  8
0
 10
343
 11
353
 20
190
 21
190
  0
LINE
  8
0
 10
353
 11
353
 20
190
 21
193
  0
LINE
  8
0
 10
353
 11
362.9
 20
193
 21
193
  0
LINE
  8
0
 10
362.9
 11
362.9
 20
193
 21
209.5
  0
LINE
  8
0
 10
362.9
 11
366.1
 20
209.5
 21
209.5
  0
LINE
  8
0
 10
366.1
 11
366.1
 20
209.5
 21
193
  0
LINE
  8
0
 10
366.1
 11
376
 20
193
 21
193
  0
LINE
  8
0
 10
376
 11
376
 20
193
 21
190
  0
LINE
  8
0
 10
376
 11
386
 20
190
 21
190
  0
LINE
  8
0
 10
386
 11
386
 20
190
 21
193
  0
LINE
  8
0
 10
386
 11
399
 20
193
 21
193
  0
LINE
  8
0
 10
399
 11
399
 20
193
 21
209.5
  0
LINE
  8
0
 10
399
 11
395.9
 20
209.5
 21
209.5
  0
LINE
  8
0
 10
395.9
 11
395.9
 20
209.5
 21
226
  0
LINE
  8
0
 10
395.9
 11
3.1
 20
226
 21
226
  0
LINE
  8
0
 10
3.1
 11
3.1
 20
226
 21
209.5
  0
LINE
  8
0
 10
3.1
 11
0
 20
209.5
 21
209.5
  0
LINE
  8
0
 10
0
 11
0
 20
209.5
 21
193
  0
LINE
  8
0
 10
0
 11
13
 20
193
 21
193
  0
LINE
  8
0
 10
13
 11
13
 20
193
 21
190
  0
LINE
  8
0
 10
13
 11
23
 20
190
 21
190
  0
LINE
  8
0
 10
23
 11
23
 20
190
 21
193
  0
LINE
  8
0
 10
23
 11
32.9
 20
155
 21
155
  0
LINE
  8
0
 10
32.9
 11
32.9
 20
155
 21
171.5
  0
LINE
  8
0
 10
32.9
 11
36.1
 20
171.5
 21
171.5
  0
LINE
  8
0
 10
36.1
 11
36.1
 20
171.5
 21
155
  0
LINE
  8
0
 10
36.1
 11
46
 20
155
 21
155
  0
LINE
  8
0
 10
46
 11
46
 20
155
 21
152
  0
LINE
  8
0
 10
46
 11
56
 20
152
 21
152
  0
LINE
  8
0
 10
56
 11
56
 20
152
 21
155
  0
LINE
  8
0
 10
56
 11
65.9
 20
155
 21
155
  0
LINE
  8
0
 10
65.9
 11
65.9
 20
155
 21
171.5
  0
LINE
  8
0
 10
65.9
 11
69.1
 20
171.5
 21
171.5
  0
LINE
  8
0
 10
69.1
 11
69.1
 20
171.5
 21
155
  0
LINE
  8
0
 10
69.1
 11
79
 20
155
 21
155
  0
LINE
  8
0
 10
79
 11
79
 20
155
 21
152
  0
LINE
  8
0
 10
79
 11
89
 20
152
 21
152
  0
LINE
  8
0
 10
89
 11
89
 20
152
 21
155
  0
LINE
  8
0
 10
89
 11
98.9
 20
155
 21
155
  0
LINE
  8
0
 10
98.9
 11
98.9
 20
155
 21
171.5
  0
LINE
  8
0
 10
98.9
 11
102.1
 20
171.5
 21
171.5
  0
LINE
  8
0
 10
102.1
 11
102.1
 20
171.5
 21
155
  0
LINE
  8
0
 10
102.1
 11
112
 20
155
 21
155
  0
LINE
  8
0
 10
112
 11
112
 20
155
 21
152
  0
LINE
  8
0
 10
112
 11
122
 20
152
 21
152
  0
LINE
  8
0
 10
122
 11
122
 20
152
 21
155
  0
LINE
  8
0
 10
122
 11
131.9
 20
155
 21
155
  0
LINE
  8
0
 10
131.9
 11
131.9
 20
155
 21
171.5
  0
LINE
  8
0
 10
131.9
 11
135.1
 20
171.5
 21
171.5
  0
LINE
  8
0
 10
135.1
 11
135.1
 20
171.5
 21
155
  0
LINE
  8
0
 10
135.1
 11
145
 20
155
 21
155
  0
LINE
  8
0
 10
145
 11
145
 20
155
 21
152
  0
LINE
  8
0
 10
145
 11
155
 20
152
 21
152
  0
LINE
  8
0
 10
155
 11
155
 20
152
 21
155
  0
LINE
  8
0
 10
155
 11
164.9
 20
155
 21
155
  0
LINE
  8
0
 10
164.9
 11
164.9
 20
155
 21
171.5
  0
LINE
  8
0
 10
164.9
 11
168.1
 20
171.5
 21
171.5
  0
LINE
  8
0
 10
168.1
 11
168.1
 20
171.5
 21
155
  0
LINE
  8
0
 10
168.1
 11
178
 20
155
 21
155
  0
LINE
  8
0
 10
178
 11
178
 20
155
 21
152
  0
LINE
  8
0
 10
178
 11
188
 20
152
 21
152
  0
LINE
  8
0
 10
188
 11
188
 20
152
 21
155
  0
LINE
  8
0
 10
188
 11
197.9
 20
155
 21
155
  0
LINE
  8
0
 10
197.9
 11
197.9
 20
155
 21
171.5
  0
LINE
  8
0
 10
197.9
 11
201.1
 20
171.5
 21
171.5
  0
LINE
  8
0
 10
201.1
 11
201.1
 20
171.5
 21
155
  0
LINE
  8
0
 10
201.1
 11
211
 20
155
 21
155
  0
LINE
  8
0
 10
211
 11
211
 20
155
 21
152
  0
LINE
  8
0
 10
211
 11
221
 20
152
 21
152
  0
LINE
  8
0
 10
221
 11
221
 20
152
 21
155
  0
LINE
  8
0
 10
221
 11
230.9
 20
155
 21
155
  0
LINE
  8
0
 10
230.9
 11
230.9
 20
155
 21
171.5
  0
LINE
  8
0
 10
230.9
 11
234.1
 20
171.5
 21
171.5
  0
LINE
  8
0
 10
234.1
 11
234.1
 20
171.5
 21
155
  0
LINE
  8
0
 10
234.1
 11
244
 20
155
 21
155
  0
LINE
  8
0
 10
244
 11
244
 20
155
 21
152
  0
LINE
  8
0
 10
244
 11
254
 20
152
 21
152
  0
LINE
  8
0
 10
254
 11
254
 20
152
 21
155
  0
LINE
  8
0
 10
254
 11
263.9
 20
155
 21
155
  0
LINE
  8
0
 10
263.9
 11
263.9
 20
155
 21
171.5
  0
LINE
  8
0
 10
263.9
 11
267.1
 20
171.5
 21
171.5
  0
LINE
  8
0
 10
267.1
 11
267.1
 20
171.5
 21
155
  0
LINE
  8
0
 10
267.1
 11
277
 20
155
 21
155
  0
LINE
  8
0
 10
277
 11
277
 20
155
 21
152
  0
LINE
  8
0
 10
277
 11
287
 20
152
 21
152
  0
LINE
  8
0
 10
287
 11
287
 20
152
 21
155
  0
LINE
  8
0
 10
287
 11
296.9
 20
155
 21
155
  0
LINE
  8
0
 10
296.9
 11
296.9
 20
155
 21
171.5
  0
LINE
  8
0
 10
296.9
 11
300.1
 20
171.5
 21
171.5
  0
LINE
  8
0
 10
300.1
 11
300.1
 20
171.5
 21
155
  0
LINE
  8
0
 10
300.1
 11
310
 20
155
 21
155
  0
LINE
  8
0
 10
310
 11
310
 20
155
 21
152
  0
LINE
  8
0
 10
310
 11
320
 20
152
 21
152
  0
LINE
  8
0
 10
320
 11
320
 20
152
 21
155
  0
LINE
  8
0
 10
320
 11
329.9
 20
155
 21
155
  0
LINE
  8
0
 10
329.9
 11
329.9
 20
155
 21
171.5
  0
LINE
  8
0
 10
329.9
 11
333.1
 20
171.5
 21
171.5
  0
LINE
  8
0
 10
333.1
 11
333.1
 20
171.5
 21
155
  0
LINE
  8
0
 10
333.1
 11
343
 20
155
 21
155
  0
LINE
  8
0
 10
343
 11
343
 20
155
 21
152
  0
LINE
  8
0
 10
343
 11
353
 20
152
 21
152
  0
LINE
  8
0
 10
353
 11
353
 20
152
 21
155
  0
LINE
  8
0
 10
353
 11
362.9
 20
155
 21
155
  0
LINE
  8
0
 10
362.9
 11
362.9
 20
155
 21
171.5
  0
LINE
  8
0
 10
362.9
 11
366.1
 20
171.5
 21
171.5
  0
LINE
  8
0
 10
366.1
 11
366.1
 20
171.5
 21
155
  0
LINE
  8
0
 10
366.1
 11
376
 20
155
 21
155
  0
LINE
  8
0
 10
376
 11
376
 20
155
 21
152
  0
LINE
  8
0
 10
376
 11
386
 20
152
 21
152
  0
LINE
  8
0
 10
386
 11
386
 20
152
 21
155
  0
LINE
  8
0
 10
386
 11
399
 20
155
 21
155
  0
LINE
  8
0
 10
399
 11
399
 20
155
 21
171.5
  0
LINE
  8
0
 10
399
 11
395.9
 20
171.5
 21
171.5
  0
LINE
  8
0
 10
395.9
 11
395.9
 20
171.5
 21
188
  0
LINE
  8
0
 10
395.9
 11
3.1
 20
188
 21
188
  0
LINE
  8
0
 10
3.1
 11
3.1
 20
188
 21
171.5
  0
LINE
  8
0
 10
3.1
 11
0
 20
171.5
 21
171.5
  0
LINE
  8
0
 10
0
 11
0
 20
171.5
 21
155
  0
LINE
  8
0
 10
0
 11
13
 20
155
 21
155
  0
LINE
  8
0
 10
13
 11
13
 20
155
 21
152
  0
LINE
  8
0
 10
13
 11
23
 20
152
 21
152
  0
LINE
  8
0
 10
23
 11
23
 20
152
 21
155
  0
LINE
  8
0
 10
23
 11
32.9
 20
117
 21
117
  0
LINE
  8
0
 10
32.9
 11
32.9
 20
117
 21
133.5
  0
LINE
  8
0
 10
32.9
 11
36.1
 20
133.5
 21
133.5
  0
LINE
  8
0
 10
36.1
 11
36.1
 20
133.5
 21
117
  0
LINE
  8
0
 10
36.1
 11
46
 20
117
 21
117
  0
LINE
  8
0
 10
46
 11
46
 20
117
 21
114
  0
LINE
  8
0
 10
46
 11
56
 20
114
 21
114
  0
LINE
  8
0
 10
56
 11
56
 20
114
 21
117
  0
LINE
  8
0
 10
56
 11
65.9
 20
117
 21
117
  0
LINE
  8
0
 10
65.9
 11
65.9
 20
117
 21
133.5
  0
LINE
  8
0
 10
65.9
 11
69.1
 20
133.5
 21
133.5
  0
LINE
  8
0
 10
69.1
 11
69.1
 20
133.5
 21
117
  0
LINE
  8
0
 10
69.1
 11
79
 20
117
 21
117
  0
LINE
  8
0
 10
79
 11
79
 20
117
 21
114
  0
LINE
  8
0
 10
79
 11
89
 20
114
 21
114
  0
LINE
  8
0
 10
89
 11
89
 20
114
 21
117
  0
LINE
  8
0
 10
89
 11
98.9
 20
117
 21
117
  0
LINE
  8
0
 10
98.9
 11
98.9
 20
117
 21
133.5
  0
LINE
  8
0
 10
98.9
 11
102.1
 20
133.5
 21
133.5
  0
LINE
  8
0
 10
102.1
 11
102.1
 20
133.5
 21
117
  0
LINE
  8
0
 10
102.1
 11
112
 20
117
 21
117
  0
LINE
  8
0
 10
112
 11
112
 20
117
 21
114
  0
LINE
  8
0
 10
112
 11
122
 20
114
 21
114
  0
LINE
  8
0
 10
122
 11
122
 20
114
 21
117
  0
LINE
  8
0
 10
122
 11
131.9
 20
117
 21
117
  0
LINE
  8
0
 10
131.9
 11
131.9
 20
117
 21
133.5
  0
LINE
  8
0
 10
131.9
 11
135.1
 20
133.5
 21
133.5
  0
LINE
  8
0
 10
135.1
 11
135.1
 20
133.5
 21
117
  0
LINE
  8
0
 10
135.1
 11
145
 20
117
 21
117
  0
LINE
  8
0
 10
145
 11
145
 20
117
 21
114
  0
LINE
  8
0
 10
145
 11
155
 20
114
 21
114
  0
LINE
  8
0
 10
155
 11
155
 20
114
 21
117
  0
LINE
  8
0
 10
155
 11
164.9
 20
117
 21
117
  0
LINE
  8
0
 10
164.9
 11
164.9
 20
117
 21
133.5
  0
LINE
  8
0
 10
164.9
 11
168.1
 20
133.5
 21
133.5
  0
LINE
  8
0
 10
168.1
 11
168.1
 20
133.5
 21
117
  0
LINE
  8
0
 10
168.1
 11
178
 20
117
 21
117
  0
LINE
  8
0
 10
178
 11
178
 20
117
 21
114
  0
LINE
  8
0
 10
178
 11
188
 20
114
 21
114
  0
LINE
  8
0
 10
188
 11
188
 20
114
 21
117
  0
LINE
  8
0
 10
188
 11
197.9
 20
117
 21
117
  0
LINE
  8
0
 10
197.9
 11
197.9
 20
117
 21
133.5
  0
LINE
  8
0
 10
197.9
 11
201.1
 20
133.5
 21
133.5
  0
LINE
  8
0
 10
201.1
 11
201.1
 20
133.5
 21
117
  0
LINE
  8
0
 10
201.1
 11
211
 20
117
 21
117
  0
LINE
  8
0
 10
211
 11
211
 20
117
 21
114
  0
LINE
  8
0
 10
211
 11
221
 20
114
 21
114
  0
LINE
  8
0
 10
221
 11
221
 20
114
 21
117
  0
LINE
  8
0
 10
221
 11
230.9
 20
117
 21
117
  0
LINE
  8
0
 10
230.9
 11
230.9
 20
117
 21
133.5
  0
LINE
  8
0
 10
230.9
 11
234.1
 20
133.5
 21
133.5
  0
LINE
  8
0
 10
234.1
 11
234.1
 20
133.5
 21
117
  0
LINE
  8
0
 10
234.1
 11
244
 20
117
 21
117
  0
LINE
  8
0
 10
244
 11
244
 20
117
 21
114
  0
LINE
  8
0
 10
244
 11
254
 20
114
 21
114
  0
LINE
  8
0
 10
254
 11
254
 20
114
 21
117
  0
LINE
  8
0
 10
254
 11
263.9
 20
117
 21
117
  0
LINE
  8
0
 10
263.9
 11
263.9
 20
117
 21
133.5
  0
LINE
  8
0
 10
263.9
 11
267.1
 20
133.5
 21
133.5
  0
LINE
  8
0
 10
267.1
 11
267.1
 20
133.5
 21
117
  0
LINE
  8
0
 10
267.1
 11
277
 20
117
 21
117
  0
LINE
  8
0
 10
277
 11
277
 20
117
 21
114
  0
LINE
  8
0
 10
277
 11
287
 20
114
 21
114
  0
LINE
  8
0
 10
287
 11
287
 20
114
 21
117
  0
LINE
  8
0
 10
287
 11
296.9
 20
117
 21
117
  0
LINE
  8
0
 10
296.9
 11
296.9
 20
117
 21
133.5
  0
LINE
  8
0
 10
296.9
 11
300.1
 20
133.5
 21
133.5
  0
LINE
  8
0
 10
300.1
 11
300.1
 20
133.5
 21
117
  0
LINE
  8
0
 10
300.1
 11
310
 20
117
 21
117
  0
LINE
  8
0
 10
310
 11
310
 20
117
 21
114
  0
LINE
  8
0
 10
310
 11
320
 20
114
 21
114
  0
LINE
  8
0
 10
320
 11
320
 20
114
 21
117
  0
LINE
  8
0
 10
320
 11
329.9
 20
117
 21
117
  0
LINE
  8
0
 10
329.9
 11
329.9
 20
117
 21
133.5
  0
LINE
  8
0
 10
329.9
 11
333.1
 20
133.5
 21
133.5
  0
LINE
  8
0
 10
333.1
 11
333.1
 20
133.5
 21
117
  0
LINE
  8
0
 10
333.1
 11
343
 20
117
 21
117
  0
LINE
  8
0
 10
343
 11
343
 20
117
 21
114
  0
LINE
  8
0
 10
343
 11
353
 20
114
 21
114
  0
LINE
  8
0
 10
353
 11
353
 20
114
 21
117
  0
LINE
  8
0
 10
353
 11
362.9
 20
117
 21
117
  0
LINE
  8
0
 10
362.9
 11
362.9
 20
117
 21
133.5
  0
LINE
  8
0
 10
362.9
 11
366.1
 20
133.5
 21
133.5
  0
LINE
  8
0
 10
366.1
 11
366.1
 20
133.5
 21
117
  0
LINE
  8
0
 10
366.1
 11
376
 20
117
 21
117
  0
LINE
  8
0
 10
376
 11
376
 20
117
 21
114
  0
LINE
  8
0
 10
376
 11
386
 20
114
 21
114
  0
LINE
  8
0
 10
386
 11
386
 20
114
 21
117
  0
LINE
  8
0
 10
386
 11
399
 20
117
 21
117
  0
LINE
  8
0
 10
399
 11
399
 20
117
 21
133.5
  0
LINE
  8
0
 10
399
 11
395.9
 20
133.5
 21
133.5
  0
LINE
  8
0
 10
395.9
 11
395.9
 20
133.5
 21
150
  0
LINE
  8
0
 10
395.9
 11
3.1
 20
150
 21
150
  0
LINE
  8
0
 10
3.1
 11
3.1
 20
150
 21
133.5
  0
LINE
  8
0
 10
3.1
 11
0
 20
133.5
 21
133.5
  0
LINE
  8
0
 10
0
 11
0
 20
133.5
 21
117
  0
LINE
  8
0
 10
0
 11
13
 20
117
 21
117
  0
LINE
  8
0
 10
13
 11
13
 20
117
 21
114
  0
LINE
  8
0
 10
13
 11
23
 20
114
 21
114
  0
LINE
  8
0
 10
23
 11
23
 20
114
 21
117
  0
LINE
  8
0
 10
23
 11
32.9
 20
79
 21
79
  0
LINE
  8
0
 10
32.9
 11
32.9
 20
79
 21
95.5
  0
LINE
  8
0
 10
32.9
 11
36.1
 20
95.5
 21
95.5
  0
LINE
  8
0
 10
36.1
 11
36.1
 20
95.5
 21
79
  0
LINE
  8
0
 10
36.1
 11
46
 20
79
 21
79
  0
LINE
  8
0
 10
46
 11
46
 20
79
 21
76
  0
LINE
  8
0
 10
46
 11
56
 20
76
 21
76
  0
LINE
  8
0
 10
56
 11
56
 20
76
 21
79
  0
LINE
  8
0
 10
56
 11
65.9
 20
79
 21
79
  0
LINE
  8
0
 10
65.9
 11
65.9
 20
79
 21
95.5
  0
LINE
  8
0
 10
65.9
 11
69.1
 20
95.5
 21
95.5
  0
LINE
  8
0
 10
69.1
 11
69.1
 20
95.5
 21
79
  0
LINE
  8
0
 10
69.1
 11
79
 20
79
 21
79
  0
LINE
  8
0
 10
79
 11
79
 20
79
 21
76
  0
LINE
  8
0
 10
79
 11
89
 20
76
 21
76
  0
LINE
  8
0
 10
89
 11
89
 20
76
 21
79
  0
LINE
  8
0
 10
89
 11
98.9
 20
79
 21
79
  0
LINE
  8
0
 10
98.9
 11
98.9
 20
79
 21
95.5
  0
LINE
  8
0
 10
98.9
 11
102.1
 20
95.5
 21
95.5
  0
LINE
  8
0
 10
102.1
 11
102.1
 20
95.5
 21
79
  0
LINE
  8
0
 10
102.1
 11
112
 20
79
 21
79
  0
LINE
  8
0
 10
112
 11
112
 20
79
 21
76
  0
LINE
  8
0
 10
112
 11
122
 20
76
 21
76
  0
LINE
  8
0
 10
122
 11
122
 20
76
 21
79
  0
LINE
  8
0
 10
122
 11
131.9
 20
79
 21
79
  0
LINE
  8
0
 10
131.9
 11
131.9
 20
79
 21
95.5
  0
LINE
  8
0
 10
131.9
 11
135.1
 20
95.5
 21
95.5
  0
LINE
  8
0
 10
135.1
 11
135.1
 20
95.5
 21
79
  0
LINE
  8
0
 10
135.1
 11
145
 20
79
 21
79
  0
LINE
  8
0
 10
145
 11
145
 20
79
 21
76
  0
LINE
  8
0
 10
145
 11
155
 20
76
 21
76
  0
LINE
  8
0
 10
155
 11
155
 20
76
 21
79
  0
LINE
  8
0
 10
155
 11
164.9
 20
79
 21
79
  0
LINE
  8
0
 10
164.9
 11
164.9
 20
79
 21
95.5
  0
LINE
  8
0
 10
164.9
 11
168.1
 20
95.5
 21
95.5
  0
LINE
  8
0
 10
168.1
 11
168.1
 20
95.5
 21
79
  0
LINE
  8
0
 10
168.1
 11
178
 20
79
 21
79
  0
LINE
  8
0
 10
178
 11
178
 20
79
 21
76
  0
LINE
  8
0
 10
178
 11
188
 20
76
 21
76
  0
LINE
  8
0
 10
188
 11
188
 20
76
 21
79
  0
LINE
  8
0
 10
188
 11
197.9
 20
79
 21
79
  0
LINE
  8
0
 10
197.9
 11
197.9
 20
79
 21
95.5
  0
LINE
  8
0
 10
197.9
 11
201.1
 20
95.5
 21
95.5
  0
LINE
  8
0
 10
201.1
 11
201.1
 20
95.5
 21
79
  0
LINE
  8
0
 10
201.1
 11
211
 20
79
 21
79
  0
LINE
  8
0
 10
211
 11
211
 20
79
 21
76
  0
LINE
  8
0
 10
211
 11
221
 20
76
 21
76
  0
LINE
  8
0
 10
221
 11
221
 20
76
 21
79
  0
LINE
  8
0
 10
221
 11
230.9
 20
79
 21
79
  0
LINE
  8
0
 10
230.9
 11
230.9
 20
79
 21
95.5
  0
LINE
  8
0
 10
230.9
 11
234.1
 20
95.5
 21
95.5
  0
LINE
  8
0
 10
234.1
 11
234.1
 20
95.5
 21
79
  0
LINE
  8
0
 10
234.1
 11
244
 20
79
 21
79
  0
LINE
  8
0
 10
244
 11
244
 20
79
 21
76
  0
LINE
  8
0
 10
244
 11
254
 20
76
 21
76
  0
LINE
  8
0
 10
254
 11
254
 20
76
 21
79
  0
LINE
  8
0
 10
254
 11
263.9
 20
79
 21
79
  0
LINE
  8
0
 10
263.9
 11
263.9
 20
79
 21
95.5
  0
LINE
  8
0
 10
263.9
 11
267.1
 20
95.5
 21
95.5
  0
LINE
  8
0
 10
267.1
 11
267.1
 20
95.5
 21
79
  0
LINE
  8
0
 10
267.1
 11
277
 20
79
 21
79
  0
LINE
  8
0
 10
277
 11
277
 20
79
 21
76
  0
LINE
  8
0
 10
277
 11
287
 20
76
 21
76
  0
LINE
  8
0
 10
287
 11
287
 20
76
 21
79
  0
LINE
  8
0
 10
287
 11
296.9
 20
79
 21
79
  0
LINE
  8
0
 10
296.9
 11
296.9
 20
79
 21
95.5
  0
LINE
  8
0
 10
296.9
 11
300.1
 20
95.5
 21
95.5
  0
LINE
  8
0
 10
300.1
 11
300.1
 20
95.5
 21
79
  0
LINE
  8
0
 10
300.1
 11
310
 20
79
 21
79
  0
LINE
  8
0
 10
310
 11
310
 20
79
 21
76
  0
LINE
  8
0
 10
310
 11
320
 20
76
 21
76
  0
LINE
  8
0
 10
320
 11
320
 20
76
 21
79
  0
LINE
  8
0
 10
320
 11
329.9
 20
79
 21
79
  0
LINE
  8
0
 10
329.9
 11
329.9
 20
79
 21
95.5
  0
LINE
  8
0
 10
329.9
 11
333.1
 20
95.5
 21
95.5
  0
LINE
  8
0
 10
333.1
 11
333.1
 20
95.5
 21
79
  0
LINE
  8
0
 10
333.1
 11
343
 20
79
 21
79
  0
LINE
  8
0
 10
343
 11
343
 20
79
 21
76
  0
LINE
  8
0
 10
343
 11
353
 20
76
 21
76
  0
LINE
  8
0
 10
353
 11
353
 20
76
 21
79
  0
LINE
  8
0
 10
353
 11
362.9
 20
79
 21
79
  0
LINE
  8
0
 10
362.9
 11
362.9
 20
79
 21
95.5
  0
LINE
  8
0
 10
362.9
 11
366.1
 20
95.5
 21
95.5
  0
LINE
  8
0
 10
366.1
 11
366.1
 20
95.5
 21
79
  0
LINE
  8
0
 10
366.1
 11
376
 20
79
 21
79
  0
LINE
  8
0
 10
376
 11
376
 20
79
 21
76
  0
LINE
  8
0
 10
376
 11
386
 20
76
 21
76
  0
LINE
  8
0
 10
386
 11
386
 20
76
 21
79
  0
LINE
  8
0
 10
386
 11
399
 20
79
 21
79
  0
LINE
  8
0
 10
399
 11
399
 20
79
 21
95.5
  0
LINE
  8
0
 10
399
 11
395.9
 20
95.5
 21
95.5
  0
LINE
  8
0
 10
395.9
 11
395.9
 20
95.5
 21
112
  0
LINE
  8
0
 10
395.9
 11
3.1
 20
112
 21
112
  0
LINE
  8
0
 10
3.1
 11
3.1
 20
112
 21
95.5
  0
LINE
  8
0
 10
3.1
 11
0
 20
95.5
 21
95.5
  0
LINE
  8
0
 10
0
 11
0
 20
95.5
 21
79
  0
LINE
  8
0
 10
0
 11
13
 20
79
 21
79
  0
LINE
  8
0
 10
13
 11
13
 20
79
 21
76
  0
LINE
  8
0
 10
13
 11
23
 20
76
 21
76
  0
LINE
  8
0
 10
23
 11
23
 20
76
 21
79
  0
LINE
  8
0
 10
23
 11
32.9
 20
41
 21
41
  0
LINE
  8
0
 10
32.9
 11
32.9
 20
41
 21
57.5
  0
LINE
  8
0
 10
32.9
 11
36.1
 20
57.5
 21
57.5
  0
LINE
  8
0
 10
36.1
 11
36.1
 20
57.5
 21
41
  0
LINE
  8
0
 10
36.1
 11
46
 20
41
 21
41
  0
LINE
  8
0
 10
46
 11
46
 20
41
 21
38
  0
LINE
  8
0
 10
46
 11
56
 20
38
 21
38
  0
LINE
  8
0
 10
56
 11
56
 20
38
 21
41
  0
LINE
  8
0
 10
56
 11
65.9
 20
41
 21
41
  0
LINE
  8
0
 10
65.9
 11
65.9
 20
41
 21
57.5
  0
LINE
  8
0
 10
65.9
 11
69.1
 20
57.5
 21
57.5
  0
LINE
  8
0
 10
69.1
 11
69.1
 20
57.5
 21
41
  0
LINE
  8
0
 10
69.1
 11
79
 20
41
 21
41
  0
LINE
  8
0
 10
79
 11
79
 20
41
 21
38
  0
LINE
  8
0
 10
79
 11
89
 20
38
 21
38
  0
LINE
  8
0
 10
89
 11
89
 20
38
 21
41
  0
LINE
  8
0
 10
89
 11
98.9
 20
41
 21
41
  0
LINE
  8
0
 10
98.9
 11
98.9
 20
41
 21
57.5
  0
LINE
  8
0
 10
98.9
 11
102.1
 20
57.5
 21
57.5
  0
LINE
  8
0
 10
102.1
 11
102.1
 20
57.5
 21
41
  0
LINE
  8
0
 10
102.1
 11
112
 20
41
 21
41
  0
LINE
  8
0
 10
112
 11
112
 20
41
 21
38
  0
LINE
  8
0
 10
112
 11
122
 20
38
 21
38
  0
LINE
  8
0
 10
122
 11
122
 20
38
 21
41
  0
LINE
  8
0
 10
122
 11
131.9
 20
41
 21
41
  0
LINE
  8
0
 10
131.9
 11
131.9
 20
41
 21
57.5
  0
LINE
  8
0
 10
131.9
 11
135.1
 20
57.5
 21
57.5
  0
LINE
  8
0
 10
135.1
 11
135.1
 20
57.5
 21
41
  0
LINE
  8
0
 10
135.1
 11
145
 20
41
 21
41
  0
LINE
  8
0
 10
145
 11
145
 20
41
 21
38
  0
LINE
  8
0
 10
145
 11
155
 20
38
 21
38
  0
LINE
  8
0
 10
155
 11
155
 20
38
 21
41
  0
LINE
  8
0
 10
155
 11
164.9
 20
41
 21
41
  0
LINE
  8
0
 10
164.9
 11
164.9
 20
41
 21
57.5
  0
LINE
  8
0
 10
164.9
 11
168.1
 20
57.5
 21
57.5
  0
LINE
  8
0
 10
168.1
 11
168.1
 20
57.5
 21
41
  0
LINE
  8
0
 10
168.1
 11
178
 20
41
 21
41
  0
LINE
  8
0
 10
178
 11
178
 20
41
 21
38
  0
LINE
  8
0
 10
178
 11
188
 20
38
 21
38
  0
LINE
  8
0
 10
188
 11
188
 20
38
 21
41
  0
LINE
  8
0
 10
188
 11
197.9
 20
41
 21
41
  0
LINE
  8
0
 10
197.9
 11
197.9
 20
41
 21
57.5
  0
LINE
  8
0
 10
197.9
 11
201.1
 20
57.5
 21
57.5
  0
LINE
  8
0
 10
201.1
 11
201.1
 20
57.5
 21
41
  0
LINE
  8
0
 10
201.1
 11
211
 20
41
 21
41
  0
LINE
  8
0
 10
211
 11
211
 20
41
 21
38
  0
LINE
  8
0
 10
211
 11
221
 20
38
 21
38
  0
LINE
  8
0
 10
221
 11
221
 20
38
 21
41
  0
LINE
  8
0
 10
221
 11
230.9
 20
41
 21
41
  0
LINE
  8
0
 10
230.9
 11
230.9
 20
41
 21
57.5
  0
LINE
  8
0
 10
230.9
 11
234.1
 20
57.5
 21
57.5
  0
LINE
  8
0
 10
234.1
 11
234.1
 20
57.5
 21
41
  0
LINE
  8
0
 10
234.1
 11
244
 20
41
 21
41
  0
LINE
  8
0
 10
244
 11
244
 20
41
 21
38
  0
LINE
  8
0
 10
244
 11
254
 20
38
 21
38
  0
LINE
  8
0
 10
254
 11
254
 20
38
 21
41
  0
LINE
  8
0
 10
254
 11
263.9
 20
41
 21
41
  0
LINE
  8
0
 10
263.9
 11
263.9
 20
41
 21
57.5
  0
LINE
  8
0
 10
263.9
 11
267.1
 20
57.5
 21
57.5
  0
LINE
  8
0
 10
267.1
 11
267.1
 20
57.5
 21
41
  0
LINE
  8
0
 10
267.1
 11
277
 20
41
 21
41
  0
LINE
  8
0
 10
277
 11
277
 20
41
 21
38
  0
LINE
  8
0
 10
277
 11
287
 20
38
 21
38
  0
LINE
  8
0
 10
287
 11
287
 20
38
 21
41
  0
LINE
  8
0
 10
287
 11
296.9
 20
41
 21
41
  0
LINE
  8
0
 10
296.9
 11
296.9
 20
41
 21
57.5
  0
LINE
  8
0
 10
296.9
 11
300.1
 20
57.5
 21
57.5
  0
LINE
  8
0
 10
300.1
 11
300.1
 20
57.5
 21
41
  0
LINE
  8
0
 10
300.1
 11
310
 20
41
 21
41
  0
LINE
  8
0
 10
310
 11
310
 20
41
 21
38
  0
LINE
  8
0
 10
310
 11
320
 20
38
 21
38
  0
LINE
  8
0
 10
320
 11
320
 20
38
 21
41
  0
LINE
  8
0
 10
320
 11
329.9
 20
41
 21
41
  0
LINE
  8
0
 10
329.9
 11
329.9
 20
41
 21
57.5
  0
LINE
  8
0
 10
329.9
 11
333.1
 20
57.5
 21
57.5
  0
LINE
  8
0
 10
333.1
 11
333.1
 20
57.5
 21
41
  0
LINE
  8
0
 10
333.1
 11
343
 20
41
 21
41
  0
LINE
  8
0
 10
343
 11
343
 20
41
 21
38
  0
LINE
  8
0
 10
343
 11
353
 20
38
 21
38
  0
LINE
  8
0
 10
353
 11
353
 20
38
 21
41
  0
LINE
  8
0
 10
353
 11
362.9
 20
41
 21
41
  0
LINE
  8
0
 10
362.9
 11
362.9
 20
41
 21
57.5
  0
LINE
  8
0
 10
362.9
 11
366.1
 20
57.5
 21
57.5
  0
LINE
  8
0
 10
366.1
 11
366.1
 20
57.5
 21
41
  0
LINE
  8
0
 10
366.1
 11
376
 20
41
 21
41
  0
LINE
  8
0
 10
376
 11
376
 20
41
 21
38
  0
LINE
  8
0
 10
376
 11
386
 20
38
 21
38
  0
LINE
  8
0
 10
386
 11
386
 20
38
 21
41
  0
LINE
  8
0
 10
386
 11
399
 20
41
 21
41
  0
LINE
  8
0
 10
399
 11
399
 20
41
 21
57.5
  0
LINE
  8
0
 10
399
 11
395.9
 20
57.5
 21
57.5
  0
LINE
  8
0
 10
395.9
 11
395.9
 20
57.5
 21
74
  0
LINE
  8
0
 10
395.9
 11
3.1
 20
74
 21
74
  0
LINE
  8
0
 10
3.1
 11
3.1
 20
74
 21
57.5
  0
LINE
  8
0
 10
3.1
 11
0
 20
57.5
 21
57.5
  0
LINE
  8
0
 10
0
 11
0
 20
57.5
 21
41
  0
LINE
  8
0
 10
0
 11
13
 20
41
 21
41
  0
LINE
  8
0
 10
13
 11
13
 20
41
 21
38
  0
LINE
  8
0
 10
13
 11
23
 20
38
 21
38
  0
LINE
  8
0
 10
23
 11
23
 20
38
 21
41
  0
LINE
  8
0
 10
23
 11
32.9
 20
3
 21
3
  0
LINE
  8
0
 10
32.9
 11
32.9
 20
3
 21
19.5
  0
LINE
  8
0
 10
32.9
 11
36.1
 20
19.5
 21
19.5
  0
LINE
  8
0
 10
36.1
 11
36.1
 20
19.5
 21
3
  0
LINE
  8
0
 10
36.1
 11
46
 20
3
 21
3
  0
LINE
  8
0
 10
46
 11
46
 20
3
 21
0
  0
LINE
  8
0
 10
46
 11
56
 20
0
 21
0
  0
LINE
  8
0
 10
56
 11
56
 20
0
 21
3
  0
LINE
  8
0
 10
56
 11
65.9
 20
3
 21
3
  0
LINE
  8
0
 10
65.9
 11
65.9
 20
3
 21
19.5
  0
LINE
  8
0
 10
65.9
 11
69.1
 20
19.5
 21
19.5
  0
LINE
  8
0
 10
69.1
 11
69.1
 20
19.5
 21
3
  0
LINE
  8
0
 10
69.1
 11
79
 20
3
 21
3
  0
LINE
  8
0
 10
79
 11
79
 20
3
 21
0
  0
LINE
  8
0
 10
79
 11
89
 20
0
 21
0
  0
LINE
  8
0
 10
89
 11
89
 20
0
 21
3
  0
LINE
  8
0
 10
89
 11
98.9
 20
3
 21
3
  0
LINE
  8
0
 10
98.9
 11
98.9
 20
3
 21
19.5
  0
LINE
  8
0
 10
98.9
 11
102.1
 20
19.5
 21
19.5
  0
LINE
  8
0
 10
102.1
 11
102.1
 20
19.5
 21
3
  0
LINE
  8
0
 10
102.1
 11
112
 20
3
 21
3
  0
LINE
  8
0
 10
112
 11
112
 20
3
 21
0
  0
LINE
  8
0
 10
112
 11
122
 20
0
 21
0
  0
LINE
  8
0
 10
122
 11
122
 20
0
 21
3
  0
LINE
  8
0
 10
122
 11
131.9
 20
3
 21
3
  0
LINE
  8
0
 10
131.9
 11
131.9
 20
3
 21
19.5
  0
LINE
  8
0
 10
131.9
 11
135.1
 20
19.5
 21
19.5
  0
LINE
  8
0
 10
135.1
 11
135.1
 20
19.5
 21
3
  0
LINE
  8
0
 10
135.1
 11
145
 20
3
 21
3
  0
LINE
  8
0
 10
145
 11
145
 20
3
 21
0
  0
LINE
  8
0
 10
145
 11
155
 20
0
 21
0
  0
LINE
  8
0
 10
155
 11
155
 20
0
 21
3
  0
LINE
  8
0
 10
155
 11
164.9
 20
3
 21
3
  0
LINE
  8
0
 10
164.9
 11
164.9
 20
3
 21
19.5
  0
LINE
  8
0
 10
164.9
 11
168.1
 20
19.5
 21
19.5
  0
LINE
  8
0
 10
168.1
 11
168.1
 20
19.5
 21
3
  0
LINE
  8
0
 10
168.1
 11
178
 20
3
 21
3
  0
LINE
  8
0
 10
178
 11
178
 20
3
 21
0
  0
LINE
  8
0
 10
178
 11
188
 20
0
 21
0
  0
LINE
  8
0
 10
188
 11
188
 20
0
 21
3
  0
LINE
  8
0
 10
188
 11
197.9
 20
3
 21
3
  0
LINE
  8
0
 10
197.9
 11
197.9
 20
3
 21
19.5
  0
LINE
  8
0
 10
197.9
 11
201.1
 20
19.5
 21
19.5
  0
LINE
  8
0
 10
201.1
 11
201.1
 20
19.5
 21
3
  0
LINE
  8
0
 10
201.1
 11
211
 20
3
 21
3
  0
LINE
  8
0
 10
211
 11
211
 20
3
 21
0
  0
LINE
  8
0
 10
211
 11
221
 20
0
 21
0
  0
LINE
  8
0
 10
221
 11
221
 20
0
 21
3
  0
LINE
  8
0
 10
221
 11
230.9
 20
3
 21
3
  0
LINE
  8
0
 10
230.9
 11
230.9
 20
3
 21
19.5
  0
LINE
  8
0
 10
230.9
 11
234.1
 20
19.5
 21
19.5
  0
LINE
  8
0
 10
234.1
 11
234.1
 20
19.5
 21
3
  0
LINE
  8
0
 10
234.1
 11
244
 20
3
 21
3
  0
LINE
  8
0
 10
244
 11
244
 20
3
 21
0
  0
LINE
  8
0
 10
244
 11
254
 20
0
 21
0
  0
LINE
  8
0
 10
254
 11
254
 20
0
 21
3
  0
LINE
  8
0
 10
254
 11
263.9
 20
3
 21
3
  0
LINE
  8
0
 10
263.9
 11
263.9
 20
3
 21
19.5
  0
LINE
  8
0
 10
263.9
 11
267.1
 20
19.5
 21
19.5
  0
LINE
  8
0
 10
267.1
 11
267.1
 20
19.5
 21
3
  0
LINE
  8
0
 10
267.1
 11
277
 20
3
 21
3
  0
LINE
  8
0
 10
277
 11
277
 20
3
 21
0
  0
LINE
  8
0
 10
277
 11
287
 20
0
 21
0
  0
LINE
  8
0
 10
287
 11
287
 20
0
 21
3
  0
LINE
  8
0
 10
287
 11
296.9
 20
3
 21
3
  0
LINE
  8
0
 10
296.9
 11
296.9
 20
3
 21
19.5
  0
LINE
  8
0
 10
296.9
 11
300.1
 20
19.5
 21
19.5
  0
LINE
  8
0
 10
300.1
 11
300.1
 20
19.5
 21
3
  0
LINE
  8
0
 10
300.1
 11
310
 20
3
 21
3
  0
LINE
  8
0
 10
310
 11
310
 20
3
 21
0
  0
LINE
  8
0
 10
310
 11
320
 20
0
 21
0
  0
LINE
  8
0
 10
320
 11
320
 20
0
 21
3
  0
LINE
  8
0
 10
320
 11
329.9
 20
3
 21
3
  0
LINE
  8
0
 10
329.9
 11
329.9
 20
3
 21
19.5
  0
LINE
  8
0
 10
329.9
 11
333.1
 20
19.5
 21
19.5
  0
LINE
  8
0
 10
333.1
 11
333.1
 20
19.5
 21
3
  0
LINE
  8
0
 10
333.1
 11
343
 20
3
 21
3
  0
LINE
  8
0
 10
343
 11
343
 20
3
 21
0
  0
LINE
  8
0
 10
343
 11
353
 20
0
 21
0
  0
LINE
  8
0
 10
353
 11
353
 20
0
 21
3
  0
LINE
  8
0
 10
353
 11
362.9
 20
3
 21
3
  0
LINE
  8
0
 10
362.9
 11
362.9
 20
3
 21
19.5
  0
LINE
  8
0
 10
362.9
 11
366.1
 20
19.5
 21
19.5
  0
LINE
  8
0
 10
366.1
 11
366.1
 20
19.5
 21
3
  0
LINE
  8
0
 10
366.1
 11
376
 20
3
 21
3
  0
LINE
  8
0
 10
376
 11
376
 20
3
 21
0
  0
LINE
  8
0
 10
376
 11
386
 20
0
 21
0
  0
LINE
  8
0
 10
386
 11
386
 20
0
 21
3
  0
LINE
  8
0
 10
386
 11
399
 20
3
 21
3
  0
LINE
  8
0
 10
399
 11
399
 20
3
 21
19.5
  0
LINE
  8
0
 10
399
 11
395.9
 20
19.5
 21
19.5
  0
LINE
  8
0
 10
395.9
 11
395.9
 20
19.5
 21
36
  0
LINE
  8
0
 10
395.9
 11
3.1
 20
36
 21
36
  0
LINE
  8
0
 10
3.1
 11
3.1
 20
36
 21
19.5
  0
LINE
  8
0
 10
3.1
 11
0
 20
19.5
 21
19.5
  0
LINE
  8
0
 10
0
 11
0
 20
19.5
 21
3
  0
LINE
  8
0
 10
0
 11
13
 20
3
 21
3
  0
LINE
  8
0
 10
13
 11
13
 20
3
 21
0
  0
LINE
  8
0
 10
13
 11
23
 20
0
 21
0
  0
LINE
  8
0
 10
23
 11
23
 20
0
 21
3
  0
ENDSEC
  0
SECTION
  2
OBJECTS
  0
DICTIONARY
  0
ENDSEC
  0
EOF
